<?xml version="1.0" encoding="utf-8"?>
<!-- Generator: Adobe Illustrator 25.0.0, SVG Export Plug-In . SVG Version: 6.00 Build 0)  -->
<svg version="1.1" id="Layer_1" xmlns="http://www.w3.org/2000/svg" xmlns:xlink="http://www.w3.org/1999/xlink" x="0px" y="0px"
	 viewBox="0 0 240 240" style="enable-background:new 0 0 240 240;" xml:space="preserve">
<style type="text/css">
	.st0{fill-rule:evenodd;clip-rule:evenodd;fill:#2EBEC0;}
</style>
<path class="st0" d="M162.6,123.4v-17l6.1-6.1l0.4,0.9c1,1.8,2,5.2,2.6,7.2l0.3,1.3c1.1,4.3,1.6,8.8,1.6,13.3l0.1,39.2
	c8.4-11.4,12.9-25.2,12.9-39.4c0-1.9-0.1-3.8-0.2-5.8c-1.2-13.7-6.5-26.7-15.4-37.3L149.6,101l0,35.3L162.6,123.4L162.6,123.4z
	 M120,46.8l-9.1-9.1l9.1-9.1l9.1,9.1L120,46.8L120,46.8z M101.5,198.5l12.9,12.9v-86.4C99.3,110,84.2,94.9,69.1,79.8l-0.8,1
	c-0.5,0.6-0.9,1.2-1.4,1.8l0,0.1c-0.4,0.5-0.8,1.1-1.2,1.6c-0.8,1.2-1.6,2.3-2.4,3.6l-0.7,1.2l-0.7,1.2l-0.2,0.4l-0.3,0.6
	c-1.7,3.1-3.1,6.4-4.3,9.7l-0.3,1l-0.3,1l-0.3,1l-0.3,1l-0.2,0.8l-0.3,1.2l0,0.1l-0.2,0.7l-0.3,1.1l-0.3,1.7l-0.2,1l-0.2,1.1
	l-0.2,1.4l-0.2,1.4l-0.1,1.1l-0.1,0.6c-0.2,1.9-0.2,3.8-0.2,5.8c0,2.7,0.1,5.4,0.5,8l0.1,0.7l0.1,0.8l0.3,1.8l0.2,1.4l0.3,1.3
	l0.3,1.3l0.2,0.7l0.2,0.7l0.4,1.3l0.3,1l0.3,1l0.2,0.6l0.5,1.6l0.4,1l0.2,0.6l0.5,1.3l0.3,0.7l0.5,1.1l0.3,0.6l0.6,1.2l0.6,1.2
	l0.6,1.2l0.3,0.6l0.3,0.6l0.4,0.7l0.7,1.1l0.7,1.2l0.4,0.6l0.4,0.6c0.3,0.5,0.6,0.9,0.9,1.4l0.7,0.9l0.8,1.1l0.9,1.1l0.4,0.6
	l0.8,0.9l0.6,0.7l0.5,0.6l0.6,0.6l0.7,0.7l0.7,0.7l0.5,0.5l0.5,0.5l17.5,17.5v-18.3l-8.3-8.3l-0.4-0.4c-6.8-6.9-11.5-15.4-13.8-24.8
	l-0.1-0.6l-0.2-1l-0.1-0.5l-0.2-1l-0.5-2.7l0.8,0.7L100,163l0.4,0.4l0.4,0.4l0.7,0.7V198.5L101.5,198.5z M67.4,112.1l0.2-1.1
	l0.1-0.3l0-0.1l0-0.1l0.2-0.7c0.7-3,1.7-5.8,2.9-8.6l0.4-1L72,101c8.4,8.3,16.7,16.7,25.1,25l4.4,4.4v15.8L67.4,112.1L67.4,112.1z
	 M162.6,174.5l-37,37c0-28.2,0-56.4,0-84.5l0-1.8l12.9-12.9l0,66.3l0,1.7l11.1-11.1v-17l12.9-12.9V174.5L162.6,174.5z M163.2,71.7
	L120,114.9L76.8,71.7l9.1-9.1l34,34l34-34L163.2,71.7L163.2,71.7z M120,80.9l26.2-26.2l-9.1-9.1l-17,17l-17-17l-9.1,9.1L120,80.9z"
	/>
</svg>
