<?xml version="1.0" encoding="utf-8"?>
<!-- Generator: Adobe Illustrator 25.0.0, SVG Export Plug-In . SVG Version: 6.00 Build 0)  -->
<svg version="1.1" id="Layer_1" xmlns="http://www.w3.org/2000/svg" xmlns:xlink="http://www.w3.org/1999/xlink" x="0px" y="0px"
	 viewBox="0 0 231.4 89.7" style="enable-background:new 0 0 231.4 89.7;" xml:space="preserve">
<style type="text/css">
	.st0{fill-rule:evenodd;clip-rule:evenodd;fill:#3AB9BF;}
	.st1{fill:#FFFFFF;}
	.st2{fill:#3AB9BF;}
	.st3{fill-rule:evenodd;clip-rule:evenodd;fill:#FFFFFF;}
</style>
<g>
	<path class="st0" d="M36.7,12.9l-4-4l4-4l4,4L36.7,12.9L36.7,12.9z M13.8,41.3l0.1-0.5l0-0.1l0,0l0,0l0.1-0.3
		c0.3-1.3,0.7-2.5,1.3-3.7l0.2-0.4l0.3,0.3c3.6,3.6,7.3,7.2,10.9,10.9l1.9,1.9v6.9L13.8,41.3L13.8,41.3z M28.7,78.9l5.6,5.6V46.9
		c-6.6-6.6-13.1-13.1-19.7-19.7l-0.4,0.4c-0.2,0.3-0.4,0.5-0.6,0.8l0,0c-0.2,0.2-0.3,0.5-0.5,0.7c-0.4,0.5-0.7,1-1,1.5l-0.3,0.5
		l-0.3,0.5l-0.1,0.2l-0.1,0.3c-0.7,1.4-1.4,2.8-1.9,4.2l-0.1,0.4l-0.1,0.4l-0.1,0.4l-0.1,0.4l-0.1,0.3L8.6,39l0,0l-0.1,0.3l-0.1,0.5
		l-0.1,0.7L8.2,41l-0.1,0.5L8,42.1l-0.1,0.6l0,0.5l0,0.3c-0.1,0.8-0.1,1.7-0.1,2.5c0,1.2,0.1,2.3,0.2,3.5l0,0.3l0,0.3l0.1,0.8
		l0.1,0.6L8.4,52l0.1,0.6l0.1,0.3l0.1,0.3l0.2,0.6l0.1,0.4l0.1,0.4l0.1,0.3l0.2,0.7L9.5,56l0.1,0.3l0.2,0.6l0.1,0.3l0.2,0.5l0.1,0.3
		l0.3,0.5l0.3,0.5l0.3,0.5l0.1,0.3l0.1,0.3l0.2,0.3l0.3,0.5l0.3,0.5l0.2,0.3l0.2,0.3c0.1,0.2,0.3,0.4,0.4,0.6l0.3,0.4l0.4,0.5
		l0.4,0.5l0.2,0.2l0.3,0.4l0.3,0.3l0.2,0.2l0.2,0.3l0.3,0.3l0.3,0.3l0.2,0.2l0.2,0.2l7.6,7.6v-8l-3.6-3.6L20,62.3
		c-2.9-3-5-6.7-6-10.8L14,51.2l-0.1-0.4l0-0.2l-0.1-0.4L13.5,49l0.4,0.3L28,63.4l0.2,0.2l0.2,0.2l0.3,0.3V78.9L28.7,78.9z
		 M55.2,68.4V53l-5.6,5.6v7.4l-4.8,4.8l0-0.8l0-28.9l-5.6,5.6l0,0.8c0,12.3,0,24.5,0,36.8L55.2,68.4L55.2,68.4z M55.5,23.7
		L36.7,42.5L17.9,23.7l4-4l14.8,14.8l14.8-14.8L55.5,23.7L55.5,23.7z M36.7,27.7L25.3,16.3l4-4l7.4,7.4l7.4-7.4l4,4L36.7,27.7
		L36.7,27.7z M55.2,46.2v-7.4l2.7-2.7l0.2,0.4c0.4,0.8,0.9,2.2,1.1,3.1l0.2,0.6c0.5,1.9,0.7,3.8,0.7,5.8l0,17.1
		c3.7-5,5.6-11,5.6-17.2c0-0.8,0-1.7-0.1-2.5c-0.5-6-2.8-11.6-6.7-16.2l-9.2,9.2l0,15.4L55.2,46.2L55.2,46.2z"/>
	<polygon class="st0" points="78.5,4.9 80.5,4.9 80.5,84.5 78.5,84.5 78.5,4.9 	"/>
	<path class="st1" d="M114.9,67.6V53.4h-2.7v6h-7v-6h-2.7v14.2h2.7v-5.7h7v5.7H114.9L114.9,67.6z M135.2,65h-8v-3.2h7.7v-2.5h-7.7
		V56h8v-2.6h-10.6c0,4.7,0,9.5,0,14.2h10.6V65L135.2,65z M155.8,67.6h2.9l-6.4-14.2h-2.9L143,67.6h2.9l1.2-2.7h7.4L155.8,67.6
		L155.8,67.6z M153.5,62.4h-5.3l2.6-6.1L153.5,62.4L153.5,62.4z M167.3,53.4v14.2h10v-2.5H170V53.4H167.3L167.3,53.4z M187.9,67.6
		h2.7V55.8h4.5v-2.4c-4.1,0-7.6,0-11.7,0v2.4h4.5V67.6L187.9,67.6z M216.3,67.6V53.4h-2.7v6h-7v-6H204v14.2h2.7v-5.7h7v5.7H216.3
		L216.3,67.6z"/>
	<path class="st2" d="M221.2,44.3h4.2v-22h-4.8l-6.9,9.5l-6.9-9.5H202v22h4.2v-16l7,9.6h0.8l7.2-9.6V44.3L221.2,44.3z M125.3,22.2
		l7.9,11.1l-7.9,11.1h4.7l5.6-7.8l5.6,7.8h4.7L138,33.3c2.6-3.7,5.3-7.4,7.9-11.1h-4.7c-1.9,2.6-3.7,5.2-5.6,7.8l-5.6-7.8H125.3
		L125.3,22.2z M113.3,44.3h4.5l-9.9-22.1h-4.5l-9.9,22.1H98c3.9-8.7,3.1-7.1,7.7-17.5C110.4,37.9,109,34.9,113.3,44.3L113.3,44.3z
		 M159.2,44.3V22.2h-4.1v22.1H159.2L159.2,44.3z M180.9,21.8c6.5,0,11.5,5.3,11.5,11.5c0,6.4-5.2,11.5-11.5,11.5
		c-6.4,0-11.5-5.2-11.5-11.5C169.4,27,174.5,21.8,180.9,21.8L180.9,21.8z M181.2,26.1l-0.2,0l-0.1,0c-4,0-7.3,3.2-7.3,7.2
		c0,4,3.2,7.2,7.2,7.2c4,0,7.2-3.2,7.2-7.2C188.1,29.4,185.1,26.3,181.2,26.1L181.2,26.1z"/>
	<path class="st3" d="M102.2,42.4c1.1-2.6,2.3-5.2,3.4-7.7c1.1,2.6,2.2,5.2,3.4,7.7H102.2L102.2,42.4z"/>
</g>
</svg>
