<svg width="56px" height="56px" viewBox="0 0 56 56" fill="none" xmlns="http://www.w3.org/2000/svg">
  <g filter="url(#filter0_g)">
    <path fill-rule="evenodd" clip-rule="evenodd" d="M50 19.6569V36.3431C50 37.404 49.5786 38.4214 48.8284 39.1716L39.1716 48.8284C38.4214 49.5786 37.404 50 36.3431 50H19.6569C18.596 50 17.5786 49.5786 16.8284 48.8284L7.17158 39.1716C6.42143 38.4214 6 37.404 6 36.3431L6 19.6569C6 18.596 6.42143 17.5786 7.17157 16.8284L16.8284 7.17157C17.5786 6.42143 18.596 6 19.6569 6L36.3432 6C37.404 6 38.4214 6.42143 39.1716 7.17157L48.8284 16.8284C49.5786 17.5786 50 18.596 50 19.6569ZM28 17C27.2158 17 26.4386 17.1503 25.7127 17.443C24.9867 17.7357 24.3253 18.1654 23.767 18.7088C23.2086 19.2523 22.7642 19.899 22.4605 20.6127C22.1628 21.3122 22 22.0112 22 22.8V27H20C18.8954 27 18 27.8954 18 29V38C18 39.1046 18.8954 40 20 40H36C37.1046 40 38 39.1046 38 38V29C38 27.8954 37.1046 27 36 27H34V22.8C34 22.0112 33.8372 21.3122 33.5395 20.6127C33.2358 19.899 32.7914 19.2523 32.233 18.7088C31.6747 18.1654 31.0133 17.7357 30.2873 17.443C29.5614 17.1503 28.7842 17 28 17ZM32 27V22.8C32 22.3106 31.9041 21.8772 31.6993 21.3958C31.5004 20.9286 31.2083 20.5023 30.8381 20.142C30.4678 19.7816 30.0268 19.4944 29.5395 19.2979C29.0522 19.1014 28.529 19 28 19C27.471 19 26.9478 19.1014 26.4605 19.2979C25.9732 19.4944 25.5322 19.7816 25.162 20.142C24.7918 20.5023 24.4996 20.9286 24.3008 21.3958C24.0959 21.8772 24 22.3106 24 22.8V27H32ZM25 31C25 31.5523 24.5523 32 24 32C23.4477 32 23 31.5523 23 31C23 30.4477 23.4477 30 24 30C24.5523 30 25 30.4477 25 31ZM28 32C28.5523 32 29 31.5523 29 31C29 30.4477 28.5523 30 28 30C27.4477 30 27 30.4477 27 31C27 31.5523 27.4477 32 28 32ZM33 31C33 31.5523 32.5523 32 32 32C31.4477 32 31 31.5523 31 31C31 30.4477 31.4477 30 32 30C32.5523 30 33 30.4477 33 31Z" fill="url(#paint7_linear)"></path>
  </g>
  <defs>
    <filter id="filter0_g" x="5" y="6" width="45" height="45" filterUnits="userSpaceOnUse" color-interpolation-filters="sRGB">
      <feFlood flood-opacity="0" result="BackgroundImageFix"></feFlood>
      <feBlend mode="normal" in="SourceGraphic" in2="BackgroundImageFix" result="shape"></feBlend>
      <feColorMatrix in="SourceAlpha" type="matrix" values="0 0 0 0 0 0 0 0 0 0 0 0 0 0 0 0 0 0 127 0" result="hardAlpha"></feColorMatrix>
      <feOffset dx="-1" dy="1"></feOffset>
      <feGaussianBlur stdDeviation="1"></feGaussianBlur>
      <feComposite in2="hardAlpha" operator="arithmetic" k2="-1" k3="1"></feComposite>
      <feColorMatrix type="matrix" values="0 0 0 0 1 0 0 0 0 1 0 0 0 0 1 0 0 0 0.18 0"></feColorMatrix>
      <feBlend mode="normal" in2="shape" result="effect1_innerShadow"></feBlend>
    </filter>
    <linearGradient id="paint7_linear" x1="28" y1="6" x2="28" y2="50" gradientUnits="userSpaceOnUse">
      <stop stop-color="#50FAAB"></stop>
      <stop offset="1" stop-color="#3A8563"></stop>
    </linearGradient>
  </defs>
</svg>
