<svg width="56px" height="56px" viewBox="0 0 56 56" fill="none" xmlns="http://www.w3.org/2000/svg">
  <g filter="url(#filter0_d)">
    <path fill-rule="evenodd" clip-rule="evenodd" d="M48 6.5V6.44444H47.9995C47.9998 6.46295 48 6.48147 48 6.5C48 10.6421 39.0457 14 28 14C16.9543 14 8 10.6421 8 6.5C8 6.48147 8.00018 6.46295 8.00054 6.44444H8V6.5V18H8.00194C8.00065 18.037 8 18.074 8 18.1111C8 21.7739 14.3285 24.8537 22.9079 25.742C22.0362 26.4524 21.316 27.352 20.8087 28.3886L20.8077 28.3907L20.8067 28.3928C20.7894 28.4282 20.7724 28.4637 20.7557 28.4993C17.7723 28.0725 15.0499 27.3845 12.7571 26.4801C10.9639 25.7728 9.31434 24.8866 8 23.7933V31H8.00194C8.00065 31.037 8 31.074 8 31.1111C8 34.8605 14.6313 37.999 23.5202 38.8013L26.4994 41.9793C21.2721 41.8348 16.4558 40.9391 12.7571 39.4801C10.9639 38.7728 9.31434 37.8866 8 36.7933V46.5556H8.00054C8.08018 50.6721 17.0037 54 28 54C38.9963 54 47.9198 50.6721 47.9995 46.5556H48V36.7933C46.6857 37.8866 45.0361 38.7728 43.2429 39.4801C42.1839 39.8979 41.0331 40.2695 39.8074 40.5904L42.762 37.4344C43.2235 36.9589 43.6156 36.4354 43.9366 35.8783C46.4866 34.5541 48 32.9023 48 31.1111C48 31.074 47.9994 31.037 47.9981 31H48V23.7933C46.6857 24.8866 45.0361 25.7728 43.2429 26.4801C43.1545 26.515 43.0654 26.5496 42.9757 26.5838C42.1255 25.6365 41.0546 24.9058 39.8506 24.4666C44.7933 23.0303 48 20.7184 48 18.1111C48 18.074 47.9994 18.037 47.9981 18H48V6.5ZM32.5058 44L24.4083 35.3622C22.9477 33.8728 22.5832 31.595 23.5033 29.7074C24.1925 28.2992 25.5015 27.3155 27.0217 27.0633C28.5419 26.8111 30.088 27.3212 31.1773 28.4343L32.5004 29.7869L33.8234 28.4343C34.9127 27.3212 36.4589 26.8111 37.9791 27.0633C39.4993 27.3155 40.8083 28.2992 41.4975 29.7074C42.4165 31.5952 42.052 33.8723 40.5925 35.3622L32.5058 44Z" fill="url(#paint00_linear)"></path>
    <path d="M45.0032 6.46486C45.0035 6.46487 45.0031 6.46909 45.001 6.47747C45.0018 6.46904 45.0029 6.46485 45.0032 6.46486Z" fill="url(#paint01_linear)"></path>
    <path d="M44.9939 6.5C44.9643 6.41741 44.8492 6.18995 44.4381 5.82544C43.7984 5.25829 42.7016 4.6105 41.0888 4.00569C37.8852 2.80437 33.2583 2 28 2C22.7417 2 18.1148 2.80437 14.9112 4.00569C13.2984 4.6105 12.2016 5.25829 11.5619 5.82544C11.1508 6.18995 11.0357 6.41741 11.0061 6.5C11.0357 6.58259 11.1508 6.81005 11.5619 7.17456C12.2016 7.74171 13.2984 8.3895 14.9112 8.99431C18.1148 10.1956 22.7417 11 28 11C33.2583 11 37.8852 10.1956 41.0888 8.99431C42.7016 8.3895 43.7984 7.74171 44.4381 7.17456C44.8492 6.81005 44.9643 6.58259 44.9939 6.5Z" fill="url(#paint02_linear)"></path>
    <path d="M10.9968 6.46486C10.9971 6.46485 10.9982 6.46904 10.999 6.47747C10.9969 6.46909 10.9965 6.46488 10.9968 6.46486Z" fill="url(#paint03_linear)"></path>
    <path d="M10.9968 6.53514C10.9965 6.53512 10.9969 6.53091 10.999 6.52253C10.9982 6.53096 10.9971 6.53515 10.9968 6.53514Z" fill="url(#paint04_linear)"></path>
    <path d="M45.001 6.52253C45.0031 6.53091 45.0035 6.53512 45.0032 6.53514C45.0029 6.53515 45.0018 6.53096 45.001 6.52253Z" fill="url(#paint05_linear)"></path>
  </g>
  <defs>
    <filter id="filter0_d" x="7" y="2" width="41" height="53" filterUnits="userSpaceOnUse" color-interpolation-filters="sRGB">
      <feFlood flood-opacity="0" result="BackgroundImageFix"></feFlood>
      <feBlend mode="normal" in="SourceGraphic" in2="BackgroundImageFix" result="shape"></feBlend>
      <feColorMatrix in="SourceAlpha" type="matrix" values="0 0 0 0 0 0 0 0 0 0 0 0 0 0 0 0 0 0 127 0" result="hardAlpha"></feColorMatrix>
      <feOffset dx="-1" dy="1"></feOffset>
      <feGaussianBlur stdDeviation="1"></feGaussianBlur>
      <feComposite in2="hardAlpha" operator="arithmetic" k2="-1" k3="1"></feComposite>
      <feColorMatrix type="matrix" values="0 0 0 0 1 0 0 0 0 1 0 0 0 0 1 0 0 0 0.18 0"></feColorMatrix>
      <feBlend mode="normal" in2="shape" result="effect1_innerShadow"></feBlend>
    </filter>
    <linearGradient id="paint00_linear" x1="28" y1="2" x2="28" y2="54" gradientUnits="userSpaceOnUse">
      <stop stop-color="#50FAAB"></stop>
      <stop offset="1" stop-color="#3A8563"></stop>
    </linearGradient>
    <linearGradient id="paint01_linear" x1="28" y1="2" x2="28" y2="54" gradientUnits="userSpaceOnUse">
      <stop stop-color="#50FAAB"></stop>
      <stop offset="1" stop-color="#3A8563"></stop>
    </linearGradient>
    <linearGradient id="paint02_linear" x1="28" y1="2" x2="28" y2="54" gradientUnits="userSpaceOnUse">
      <stop stop-color="#50FAAB"></stop>
      <stop offset="1" stop-color="#3A8563"></stop>
    </linearGradient>
    <linearGradient id="paint03_linear" x1="28" y1="2" x2="28" y2="54" gradientUnits="userSpaceOnUse">
      <stop stop-color="#50FAAB"></stop>
      <stop offset="1" stop-color="#3A8563"></stop>
    </linearGradient>
    <linearGradient id="paint04_linear" x1="28" y1="2" x2="28" y2="54" gradientUnits="userSpaceOnUse">
      <stop stop-color="#50FAAB"></stop>
      <stop offset="1" stop-color="#3A8563"></stop>
    </linearGradient>
    <linearGradient id="paint05_linear" x1="28" y1="2" x2="28" y2="54" gradientUnits="userSpaceOnUse">
      <stop stop-color="#50FAAB"></stop>
      <stop offset="1" stop-color="#3A8563"></stop>
    </linearGradient>
  </defs>
</svg>
