<svg width="142" height="61" viewBox="0 0 142 61" fill="none" xmlns="http://www.w3.org/2000/svg">
<path d="M29.6726 32.7013C29.6726 37.695 29.6726 42.6887 29.6693 47.6824C29.6693 47.9311 29.7352 48.1959 29.5837 48.4285C29.5672 48.4543 29.4981 48.4866 29.4816 48.4737C29.3466 48.3704 29.2016 48.2702 29.0864 48.1507C26.57 45.5667 24.0569 42.9826 21.5406 40.3985C16.5111 35.2272 11.4817 30.0591 6.45226 24.8909C6.17889 24.6099 5.90222 24.3354 5.61238 24.0737C5.57285 24.035 5.46416 24.0608 5.38841 24.0705C5.36206 24.0737 5.32583 24.1286 5.32253 24.1609C5.30607 24.5905 5.28301 25.0201 5.28301 25.4497C5.27972 32.2523 5.28301 39.0516 5.27972 45.8541C5.27972 46.2417 5.26984 46.6294 5.25995 47.0137C5.25666 47.1849 5.09856 47.3497 4.93059 47.3529C4.05447 47.3658 3.17836 47.3787 2.29895 47.3787C1.90371 47.3787 1.76208 47.2237 1.75549 46.8232C1.7489 46.5648 1.7522 46.3063 1.7522 46.0479C1.7522 36.277 1.7522 26.506 1.7522 16.735C1.7522 16.5186 1.7522 16.3054 1.7522 16.089C1.75549 15.7466 1.79501 15.6529 1.91688 15.6529C2.1145 15.6562 2.2199 15.7918 2.33847 15.9113C2.49327 16.0631 2.64149 16.2214 2.793 16.3765C5.94504 19.6162 9.09708 22.8528 12.2458 26.0925C16.5177 30.4822 20.7896 34.8751 25.0648 39.2648C25.3349 39.5426 25.628 39.801 25.9211 40.0561C25.9442 40.0755 26.1188 40.0012 26.1221 39.9625C26.155 39.6653 26.1781 39.3681 26.1781 39.071C26.1813 35.0237 26.1813 30.9796 26.1813 26.9323C26.1813 23.8315 26.1813 20.7338 26.1846 17.633C26.1846 17.3778 26.2044 17.1194 26.2373 16.8642C26.2472 16.8028 26.3394 16.735 26.4086 16.6995C26.4844 16.6607 26.5766 16.6446 26.6589 16.6446C27.535 16.6413 28.4145 16.6413 29.2906 16.6478C29.4849 16.6478 29.6364 16.7835 29.643 16.9546C29.6562 17.3423 29.666 17.7299 29.666 18.1142C29.6726 22.9723 29.6726 27.8368 29.6726 32.7013Z" fill="#767DA5"/>
<path d="M114.439 37.6885C114.439 34.9785 114.439 32.2652 114.439 29.5552C114.439 29.2128 114.458 28.8704 114.468 28.5248C114.472 28.3601 114.613 28.3278 114.722 28.2664C114.758 28.247 114.807 28.2438 114.85 28.2438C115.726 28.2438 116.603 28.2438 117.482 28.2438C117.656 28.2438 117.831 28.4053 117.834 28.5603C117.841 28.8187 117.844 29.0771 117.851 29.3355C117.861 29.6715 117.907 29.7587 118.025 29.7684C118.177 29.7813 118.256 29.6909 118.345 29.6069C118.47 29.4874 118.585 29.3549 118.717 29.2419C119.774 28.3213 121 27.8142 122.422 27.8013C123.081 27.7948 123.733 27.8077 124.379 27.9854C125.512 28.2955 126.454 28.893 127.225 29.7555C127.426 29.9816 127.6 30.2303 127.821 30.4338C127.89 30.4984 128.114 30.5113 128.18 30.4531C128.47 30.1915 128.717 29.8879 128.993 29.6166C130.093 28.5409 131.414 27.9272 132.965 27.8303C133.532 27.7948 134.105 27.8142 134.675 27.8239C135.205 27.8303 135.716 27.9434 136.223 28.1017C137.537 28.5151 138.528 29.3065 139.204 30.4887C139.55 31.0959 139.797 31.742 139.932 32.417C140.103 33.2601 140.225 34.1096 140.221 34.9785C140.212 38.8514 140.218 42.7242 140.215 46.5971C140.215 46.7683 140.195 46.9395 140.175 47.1074C140.156 47.2592 140.021 47.3368 139.902 47.34C138.983 47.3561 138.061 47.3529 137.142 47.3529C136.98 47.3529 136.822 47.1753 136.819 47.0073C136.812 46.6197 136.809 46.2321 136.809 45.8477C136.809 42.4916 136.809 39.1356 136.806 35.7763C136.806 34.9591 136.806 34.1387 136.565 33.3441C136.49 33.0986 136.421 32.8499 136.325 32.6108C135.91 31.5481 135.096 30.957 133.973 30.7826C133.087 30.6437 132.228 30.7697 131.411 31.1541C130.755 31.4642 130.271 31.9422 129.909 32.5527C129.507 33.231 129.26 33.9675 129.178 34.7427C129.095 35.5114 129.039 36.2867 129.033 37.0587C129.016 39.9431 129.026 42.8243 129.026 45.7088C129.026 46.0092 129.02 46.3128 129.026 46.6132C129.043 47.3368 128.881 47.3788 128.302 47.382C128.127 47.382 127.949 47.3884 127.775 47.382C127.119 47.3529 126.46 47.4563 125.812 47.3142C125.476 46.6649 125.654 45.9672 125.647 45.2954C125.624 42.3269 125.63 39.3552 125.64 36.3868C125.644 35.5664 125.578 34.7524 125.472 33.9416C125.4 33.3796 125.209 32.8563 124.945 32.3557C124.418 31.3447 123.539 30.8343 122.419 30.7503C120.733 30.6243 119.307 31.364 118.582 32.9112C118.134 33.8673 117.956 34.8784 117.874 35.9087C117.834 36.3803 117.848 36.8552 117.848 37.3268C117.844 40.2952 117.848 43.2669 117.844 46.2353C117.844 46.5357 117.824 46.8361 117.792 47.1333C117.785 47.1979 117.689 47.256 117.63 47.3109C117.6 47.3368 117.551 47.3529 117.512 47.3561C117.337 47.3691 117.162 47.3788 116.988 47.382C115.163 47.4078 114.574 47.382 114.534 47.2237C114.333 46.4646 114.448 45.6894 114.442 44.9207C114.432 42.511 114.439 40.0982 114.439 37.6885Z" fill="#767DA5"/>
<path d="M48.6475 38.4767C46.6285 38.4767 44.6095 38.4767 42.5904 38.4767C42.238 38.4767 41.8889 38.4767 41.5365 38.4831C41.24 38.4896 41.0819 38.6705 41.1083 38.9902C41.1313 39.2906 41.1379 39.5975 41.2038 39.8882C41.7505 42.3624 43.1536 44.1131 45.7161 44.7527C47.6396 45.2307 49.461 44.9271 51.065 43.6997C51.6941 43.2184 52.2178 42.6402 52.6559 41.991C52.8239 41.739 52.9523 41.4612 53.1335 41.219C53.196 41.135 53.397 41.0446 53.4661 41.0801C54.2797 41.5 55.0833 41.9393 55.8771 42.398C55.9397 42.4335 55.966 42.6628 55.9166 42.75C54.3324 45.5441 52.0202 47.34 48.7232 47.8148C47.218 48.0312 45.7458 47.9343 44.2933 47.5306C41.1313 46.652 39.0366 44.6558 38.0814 41.5872C37.2646 38.9612 37.3436 36.3157 38.2823 33.7188C38.8521 32.1457 39.7678 30.7923 41.0951 29.7361C42.5311 28.5894 44.1846 27.9563 46.0323 27.8303C47.5803 27.7237 49.1053 27.8206 50.5644 28.3891C52.7975 29.258 54.4213 30.7439 55.2875 32.9629C55.9364 34.6264 56.2723 36.3513 56.2131 38.1407C56.2065 38.3378 56.0846 38.4605 55.887 38.467C55.5346 38.4734 55.1854 38.4799 54.833 38.4799C52.7745 38.4767 50.7126 38.4767 48.6475 38.4767ZM46.9776 35.673C48.5125 35.673 50.0473 35.673 51.5789 35.673C51.8424 35.673 52.1026 35.66 52.366 35.6503C52.534 35.6439 52.6526 35.4598 52.6131 35.2789C52.2936 33.8867 51.5789 32.7174 50.4129 31.8647C49.046 30.8634 47.5145 30.4984 45.8215 30.8827C43.8815 31.322 42.574 32.4978 41.7571 34.2356C41.5925 34.5812 41.5167 34.9688 41.408 35.337C41.3784 35.4404 41.5035 35.6245 41.5957 35.631C41.8131 35.6471 42.0305 35.673 42.2446 35.673C43.8223 35.673 45.3999 35.673 46.9776 35.673Z" fill="#767DA5"/>
<path d="M90.6912 34.9655C90.6912 33.0727 90.6912 31.1799 90.6912 29.2838C90.6912 29.0254 90.7044 28.7703 90.7176 28.5119C90.7242 28.3923 90.8526 28.2535 90.9646 28.2535C91.8835 28.2502 92.8058 28.247 93.7247 28.2502C93.9059 28.2502 94.0738 28.4053 94.0771 28.5603C94.0903 28.9479 94.1002 29.3323 94.1002 29.7199C94.1035 32.9467 94.1002 36.1736 94.1035 39.4037C94.1035 39.8785 94.1166 40.3501 94.1298 40.8249C94.1397 41.2577 94.2319 41.6744 94.3472 42.0943C94.7523 43.5672 95.7404 44.4684 97.216 44.814C98.2041 45.0466 99.2185 45.024 100.197 44.6558C101.432 44.1874 102.212 43.3153 102.548 42.0685C102.703 41.4871 102.809 40.8927 102.802 40.2822C102.795 39.7654 102.809 39.2486 102.809 38.7318C102.809 35.6762 102.809 32.6205 102.809 29.5649C102.809 29.2645 102.805 28.9608 102.812 28.6604C102.819 28.3891 102.95 28.2341 103.187 28.2341C104.064 28.2341 104.943 28.2373 105.819 28.247C106.05 28.2502 106.211 28.4279 106.218 28.6637C106.224 28.8801 106.224 29.0933 106.224 29.3097C106.224 32.7529 106.221 36.1962 106.224 39.6395C106.224 40.5439 106.178 41.4451 106.017 42.3398C105.789 43.606 105.236 44.7042 104.32 45.6215C103.349 46.6003 102.176 47.243 100.836 47.6048C98.8628 48.1378 96.9327 48.0183 95.0389 47.2592C94.3867 46.9976 93.7873 46.6422 93.2339 46.2126C91.653 44.9884 90.8954 43.354 90.7373 41.4192C90.6978 40.9476 90.6978 40.4728 90.6945 40.0012C90.6912 38.3248 90.6945 36.6452 90.6912 34.9655Z" fill="#767DA5"/>
<path d="M82.7469 21.4542C82.9116 21.9419 83.1026 22.4264 83.2376 22.9238C83.4023 23.5311 83.3134 24.119 82.9511 24.6519C82.7765 24.9071 82.5493 25.1171 82.2495 25.214C81.9169 25.3206 81.5743 25.4594 81.2351 25.4594C80.3458 25.4594 79.4894 25.6468 78.6495 25.8826C78.1226 26.0312 77.6911 25.902 77.2893 25.6242C76.7392 25.2495 76.3143 24.7553 76.0904 24.1254C76.0179 23.9252 75.985 23.7087 75.9356 23.502C75.8499 23.1564 75.649 22.9335 75.3032 23.1822C74.9738 23.4213 74.5819 23.4923 74.2097 23.6086C74.0878 23.6474 73.9462 23.6732 73.821 23.6538C73.1228 23.5408 72.441 23.3728 71.9041 22.8851C71.7164 22.7139 71.5682 22.4878 71.4463 22.2649C71.1005 21.6189 70.804 20.9438 70.3693 20.3462C70.2112 20.1298 70.1618 19.8746 70.1585 19.613C70.1552 19.3546 70.1618 19.0962 70.1651 18.8378C70.1684 18.4825 70.2737 18.1659 70.4812 17.872C70.6328 17.662 70.7579 17.4327 70.8897 17.2098C70.9753 17.0645 70.9325 16.8448 70.8073 16.7382C70.7085 16.6543 70.6097 16.5703 70.501 16.4992C69.8686 16.089 69.391 15.5431 68.9596 14.9359C68.4062 14.1542 67.8858 13.366 67.6388 12.4325C67.596 12.2678 67.5729 12.0966 67.5532 11.9254C67.5235 11.6476 67.731 11.3925 67.9945 11.3925C68.2119 11.3925 68.4392 11.386 68.6467 11.4377C69.4964 11.6412 70.3561 11.8156 71.1433 12.2161C71.3113 12.3033 71.4891 12.2614 71.6209 12.1257C71.8942 11.8447 72.161 11.5604 72.4212 11.2697C72.7736 10.8757 72.8231 10.4784 72.5629 9.97769C71.8811 8.66628 71.5649 7.23535 71.2981 5.79797C71.2586 5.58801 71.2553 5.36837 71.252 5.15518C71.2487 4.46718 71.2454 3.77917 71.2553 3.09116C71.2684 2.13183 71.555 1.23064 71.8679 0.335909C71.9733 0.0355121 72.3718 -0.093691 72.632 0.0807332C73.6333 0.752589 74.4402 1.59887 74.8223 2.74232C75.4909 4.74173 76.2616 6.70885 76.7392 8.76641C76.7985 9.01836 76.8808 9.26384 76.9467 9.51256C77.0192 9.78065 77.1575 9.96154 77.4507 10.0423C77.9085 10.1683 78.1753 10.4977 78.3169 10.937C78.4091 11.2245 78.5145 11.5055 78.6199 11.7898C78.6331 11.8221 78.7022 11.8705 78.7154 11.8641C78.7714 11.8318 78.8571 11.7833 78.8603 11.7381C78.8768 11.1696 79.0514 10.6399 79.2622 10.1198C79.5026 9.52871 79.9374 9.1411 80.5269 8.87623C81.5183 8.43371 82.4669 8.4434 83.4155 8.98606C83.7547 9.17986 84.1236 9.32198 84.4826 9.4738C84.8219 9.61592 85.0459 9.85818 85.2369 10.1618C85.6651 10.8401 85.8067 11.6056 85.8956 12.3679C85.9714 12.9978 85.7342 13.5534 85.1447 13.9087C84.6967 14.18 84.2521 14.4578 83.8074 14.7324C83.702 14.797 83.6362 14.9875 83.7086 15.0586C83.7613 15.1103 83.8766 15.1652 83.9326 15.1426C84.8878 14.7291 85.8792 14.3835 86.7487 13.7892C87.7631 13.0947 88.8764 12.5941 90.0456 12.2129C90.2499 12.1451 90.4705 12.1192 90.6879 12.0934C90.9712 12.0579 91.2413 12.2969 91.1853 12.5521C91.07 13.0979 90.981 13.6567 90.7801 14.1703C90.5265 14.8099 90.2004 15.4236 89.848 16.0179C89.6537 16.3474 89.3474 16.6123 89.0839 16.8997C88.8171 17.184 88.5371 17.4553 88.2704 17.7363C88.244 17.7622 88.2243 17.8268 88.2407 17.8494C88.2802 17.9172 88.3296 17.9915 88.3955 18.0238C88.468 18.0593 88.5668 18.0658 88.6524 18.0626C89.9304 17.9915 91.1886 18.1885 92.4467 18.3404C93.5435 18.4728 94.5843 18.8313 95.523 19.3998C95.8886 19.6195 96.1949 19.9489 96.4947 20.259C96.8471 20.624 96.7944 20.9083 96.3662 21.2119C95.3485 21.9322 94.2352 22.3941 92.9671 22.449C92.7069 22.4619 92.4467 22.5136 92.1898 22.5685C91.7551 22.659 91.3203 22.6557 90.8822 22.5814C90.6253 22.5362 90.3651 22.4619 90.1049 22.4619C89.1728 22.4619 88.2835 22.2261 87.3877 22.0388C87.0418 21.9677 86.7026 21.8967 86.3501 21.929C85.3653 22.0226 84.4332 21.8547 83.5308 21.4606C83.3364 21.3766 83.1059 21.3702 82.8918 21.3282C82.8325 21.2894 82.7798 21.2216 82.7172 21.2151C82.5855 21.1925 82.5921 21.2571 82.7469 21.4542ZM90.1873 13.6567C90.0951 13.6567 90.0061 13.6535 89.9139 13.6535C89.9007 13.5275 89.8876 13.3983 89.8744 13.2724C89.8349 12.9591 89.6241 12.8298 89.3342 12.9558C88.6524 13.2498 87.9739 13.5469 87.3613 13.9636C87.1834 14.0831 86.9727 14.1994 86.8673 14.3674C86.7355 14.5741 87.0056 14.7485 87.0352 14.952C87.0484 15.0328 87.0286 15.12 87.0254 15.204C86.9397 15.1878 86.8409 15.1943 86.7684 15.1555C86.1624 14.8228 85.586 14.9294 85.0195 15.2459C84.5255 15.5237 84.0314 15.8015 83.5406 16.0825C82.6645 16.58 81.772 17.0322 80.7476 17.1517C80.6752 17.1614 80.5467 17.1032 80.5302 17.0483C80.494 16.9385 80.4644 16.7415 80.5237 16.6995C81.1956 16.2085 81.772 15.6239 82.3615 15.0489C82.5427 14.8713 82.7831 14.7421 83.0071 14.6096C83.6065 14.2511 84.2257 13.9281 84.8087 13.5469C85.2369 13.2659 85.4378 12.8298 85.3719 12.3195C85.3159 11.8931 85.2468 11.4668 85.1315 11.0565C85.0261 10.6851 84.8713 10.3007 84.5024 10.1037C83.7745 9.70959 83.04 9.31552 82.2298 9.10557C82.0651 9.06358 81.8708 9.02482 81.7127 9.06681C80.2503 9.44796 80.0131 9.60946 79.5158 10.8337C79.4532 10.9919 79.4104 11.1664 79.4071 11.3343C79.3906 11.8931 79.361 12.4487 79.5257 12.9978C79.6739 13.4888 79.7727 13.9991 79.8616 14.5063C79.9275 14.8874 79.9604 15.275 79.7793 15.6432C79.7233 15.7595 79.5718 15.8726 79.4796 15.8274C79.4038 15.7918 79.305 15.7434 79.2819 15.6788C79.137 15.275 79.0053 14.868 78.8768 14.4578C78.5079 13.3111 78.1489 12.1612 77.7767 11.0145C77.6911 10.7497 77.4869 10.5785 77.2069 10.5397C76.5054 10.4428 75.8368 10.2555 75.2143 9.91309C75.1385 9.8711 75.0529 9.82588 74.9705 9.82588C74.7993 9.82588 74.6214 9.83234 74.46 9.88079C74.3414 9.91632 74.236 10.0132 74.1372 10.0972C73.3434 10.7884 72.7736 11.6638 72.0951 12.4519C71.8119 12.7814 71.7065 13.2142 71.7427 13.6664C71.8284 14.6936 73.0207 16.0018 74.3316 15.6206C74.8948 15.4591 75.4646 15.4688 76.0278 15.5044C76.6865 15.5463 77.3255 15.7078 77.8986 16.0502C77.9711 16.0922 78.0303 16.1633 78.0962 16.2214C78.1786 16.2925 78.2214 16.5154 78.1522 16.5735C78.0896 16.6284 78.0106 16.693 77.9381 16.693C77.7668 16.6962 77.5923 16.6704 77.421 16.6446C77.118 16.5993 76.8183 16.5121 76.5153 16.5024C75.7709 16.4831 75.0199 16.4605 74.2789 16.5057C73.3961 16.5606 72.5563 16.7996 71.7855 17.2421C70.6822 17.8752 70.557 18.8895 70.7085 19.7971C70.7217 19.8811 70.7513 19.9715 70.8007 20.0361C71.2948 20.7015 71.6242 21.4574 72.0095 22.1809C72.1347 22.4167 72.3224 22.5976 72.5661 22.7107C72.8033 22.8172 73.0536 22.8948 73.294 23.0014C73.9363 23.2824 74.5325 23.0789 75.0199 22.7074C75.8565 22.0679 76.5778 21.3185 76.782 20.2235C76.8282 19.9715 76.9204 19.7228 77.0258 19.487C77.2168 19.0542 77.4243 18.6278 77.6417 18.2079C77.6977 18.0981 77.8064 18.0044 77.9085 17.9334C77.9678 17.8914 78.0863 17.8688 78.1456 17.8978C78.2016 17.9269 78.2576 18.0497 78.2378 18.1046C78.1654 18.3048 78.06 18.4922 77.9711 18.686C77.7537 19.1543 77.454 19.6065 77.3387 20.0975C77.1674 20.8275 76.8809 21.4832 76.4395 22.084C76.2748 22.3101 76.2386 22.5556 76.2979 22.8172C76.3637 23.1112 76.4296 23.4051 76.512 23.6958C76.6207 24.0705 76.7985 24.4097 77.0554 24.7165C77.4144 25.1494 77.8525 25.3787 78.4322 25.3109C78.6924 25.2786 78.969 25.2915 79.2128 25.2075C79.7628 25.0202 80.3293 24.9846 80.8991 24.9782C81.3042 24.9749 81.6698 24.8264 82.0453 24.7133C82.2627 24.6487 82.4109 24.4872 82.5328 24.2999C82.7798 23.9155 82.8523 23.4988 82.7271 23.0627C82.5097 22.3134 82.2166 21.5963 81.7291 20.9729C81.2219 20.3269 80.7476 19.6518 80.1218 19.1027C79.9637 18.9638 79.8517 18.7732 79.7332 18.5955C79.6739 18.5083 79.7134 18.4243 79.8155 18.3823C79.8517 18.3662 79.9044 18.3533 79.9341 18.3694C80.0494 18.4211 80.1844 18.4631 80.27 18.5503C80.9749 19.2706 81.8049 19.8294 82.6547 20.3656C83.2113 20.7145 83.8008 20.9858 84.4234 21.2119C85.0195 21.4283 85.619 21.4638 86.2382 21.4122C86.719 21.3702 87.0616 21.0988 87.2394 20.6789C87.4766 20.1201 87.6511 19.5452 87.3975 18.9282C87.2625 18.5988 87.2823 18.2531 87.3877 17.914C87.4239 17.7912 87.4766 17.6685 87.4996 17.5425C87.6017 16.9805 87.5952 16.4346 87.3053 15.9113C87.1834 15.6885 87.1176 15.4365 87.0254 15.1943C87.3811 15.1943 87.7335 15.1943 88.0892 15.1943C87.8817 15.5367 87.7664 15.8855 87.9772 16.2731C88.0365 16.3829 88.0497 16.5154 88.0892 16.6381C88.1683 16.8901 88.2704 16.9191 88.4548 16.7673C89.1366 16.215 89.601 15.5011 90.0094 14.7485C90.2005 14.3964 90.2597 14.0282 90.1807 13.6374C90.2136 13.6309 90.2532 13.6309 90.2828 13.6148C90.2993 13.6051 90.3026 13.5663 90.3091 13.5437C90.263 13.5825 90.2268 13.6212 90.1873 13.6567ZM69.1045 13.3854C69.2297 13.4048 69.3812 13.3919 69.4767 13.4565C69.6545 13.576 69.806 13.7343 69.9641 13.8829C70.3396 14.2414 70.7085 14.6096 71.0873 14.9649C71.2454 15.1103 71.4232 15.2363 71.5978 15.3655C71.6274 15.3881 71.7032 15.3913 71.723 15.3719C71.7724 15.3202 71.8448 15.2298 71.8284 15.191C71.5286 14.5289 71.1663 13.8893 71.1861 13.1206C71.1894 12.9881 71.0313 12.8105 70.8996 12.72C70.2013 12.2452 69.3779 12.0998 68.5775 11.8996C68.3601 11.8447 68.1691 11.9545 68.179 12.1063C68.1922 12.2549 68.2778 12.3324 68.4194 12.3518C68.8937 12.4099 69.0749 12.7265 69.1341 13.1432C69.1473 13.2271 69.1243 13.3111 69.1177 13.3983C69.0781 13.3854 69.0353 13.379 68.9958 13.3628C68.9563 13.3467 68.92 13.3144 68.8838 13.3144C68.8147 13.3079 68.6994 13.295 68.6796 13.3273C68.6434 13.3854 68.6368 13.4985 68.673 13.5502C68.7389 13.6438 68.8443 13.7698 68.9398 13.7763C69.0782 13.786 69.088 13.6277 69.0979 13.5114C69.0946 13.4662 69.1012 13.4274 69.1045 13.3854ZM71.7559 4.15063C71.6143 5.1358 71.8251 6.11129 72.0457 7.07062C72.2664 8.02995 72.5628 8.9796 73.0931 9.83557C73.1491 9.92601 73.3566 9.99707 73.4357 9.94539C73.6168 9.82588 73.798 9.70636 73.9725 9.57716C74.3085 9.3349 74.3348 9.27676 74.2327 8.9473C73.6399 7.06093 73.1294 5.15518 72.6518 3.23975C72.5596 2.86506 72.4739 2.48714 72.4015 2.10922C72.3883 2.04462 72.4476 1.92834 72.5036 1.9025C72.5563 1.87989 72.6913 1.91865 72.7209 1.97033C72.8263 2.15444 72.9548 2.35148 72.9844 2.55497C73.1063 3.40771 73.3467 4.23138 73.5773 5.05828C73.9133 6.25664 74.2756 7.44854 74.6379 8.64044C74.6873 8.80194 74.7466 8.9796 74.8618 9.09911C75.1978 9.44796 75.6161 9.67406 76.1101 9.74835C76.2057 9.76127 76.4033 9.60946 76.3835 9.52548C76.2946 9.10557 76.2155 8.68566 76.1101 8.27221C75.6424 6.43753 74.9573 4.67067 74.3678 2.87475C74.2031 2.37409 73.9429 1.9348 73.5608 1.56334C73.3105 1.32108 73.0635 1.0756 72.8132 0.836571C72.7506 0.77843 72.6715 0.736439 72.6024 0.684758C72.4937 0.604006 72.3125 0.626616 72.2631 0.736439C72.1907 0.891482 72.0787 1.04007 72.0523 1.2048C71.9107 2.17705 71.6077 3.13639 71.7559 4.15063ZM93.751 20.6305C93.9684 20.5982 94.3142 20.5465 94.6601 20.5013C94.7457 20.4884 94.8346 20.4787 94.917 20.4948C95.0224 20.5142 95.0751 20.595 95.0389 20.6822C94.973 20.8404 95.164 20.7242 95.0026 20.7952C94.558 20.9858 94.1002 21.1247 93.6127 21.1311C92.4764 21.1441 91.3434 21.1861 90.2103 20.9341C89.5285 20.7823 88.8566 20.595 88.1748 20.4496C88.0299 20.4173 87.9113 20.498 87.8488 20.6111C87.7434 20.7984 87.661 20.9955 87.582 21.1957C87.526 21.3411 87.6577 21.5704 87.8125 21.6027C88.4515 21.7384 89.0806 21.9387 89.7492 21.9322C90.0522 21.929 90.3618 21.9839 90.6583 22.0453C91.2248 22.1648 91.7847 22.1712 92.3512 22.0388C92.6048 21.9774 92.8683 21.9451 93.1285 21.9257C93.9322 21.8676 94.6733 21.5866 95.3781 21.2474C96.0302 20.9341 96.1521 20.5853 95.5823 20.0717C95.2859 19.8068 94.9565 19.5936 94.5876 19.4515C94.222 19.3126 93.8432 19.1996 93.4645 19.093C92.7893 18.9024 92.0844 18.8572 91.4026 18.7247C90.3124 18.5116 89.2255 18.5697 88.132 18.6117C88.0365 18.6149 87.8916 18.799 87.9114 18.8895C87.9575 19.0994 88.0102 19.3094 88.0563 19.5193C88.1156 19.8004 88.2934 19.9748 88.5635 20.0555C89.6109 20.3785 90.6616 20.666 91.7781 20.6337C92.3907 20.6143 93.0067 20.6305 93.751 20.6305ZM69.5491 14.4804C69.5195 14.5127 69.4701 14.5386 69.4668 14.5741C69.4569 14.6516 69.4372 14.755 69.4767 14.8099C70.03 15.5883 70.7711 16.1633 71.6011 16.6381C71.634 16.6575 71.6867 16.6672 71.7263 16.6607C71.8086 16.6478 71.8942 16.6349 71.97 16.5993C72.1479 16.5251 72.194 16.286 72.0523 16.1924C71.2915 15.7046 70.5438 15.2072 69.9082 14.5644C69.8555 14.5095 69.7566 14.4933 69.6776 14.4707C69.6348 14.461 69.5887 14.474 69.5491 14.4804ZM83.0104 15.6529C83.1421 15.6852 83.287 15.5786 83.2607 15.4462C83.2475 15.3816 83.1816 15.3073 83.1224 15.2815C83.0005 15.2298 82.849 15.3525 82.872 15.4817C82.8852 15.5463 82.961 15.5948 83.0104 15.6529ZM90.5397 12.7717C90.5199 12.7394 90.5101 12.691 90.4804 12.6813C90.4475 12.6683 90.3849 12.6748 90.3618 12.6974C90.2894 12.7685 90.319 12.8234 90.4376 12.8298C90.4705 12.8331 90.5068 12.7911 90.5397 12.7717ZM82.4373 15.8047L82.3912 15.8629L82.457 15.8758L82.4373 15.8047Z" fill="#767DA5"/>
<path d="M63.2714 37.8113C63.2714 35.0592 63.2714 32.304 63.2714 29.552C63.2714 29.2096 63.2813 28.864 63.2879 28.5216C63.2912 28.4279 63.446 28.2664 63.5382 28.2664C64.4571 28.2599 65.3761 28.2567 66.2983 28.2567C66.4695 28.2567 66.6408 28.4214 66.6507 28.5765C66.6606 28.7477 66.6441 28.9221 66.6738 29.0901C66.7133 29.3194 66.5288 29.6424 66.8714 29.749C67.1217 29.8265 67.2205 29.5455 67.3588 29.4066C69.0155 27.7334 70.972 27.433 73.1557 28.1727C73.3994 28.2567 73.63 28.3827 73.8539 28.5119C73.9099 28.5442 73.9231 28.6605 73.9429 28.7412C73.9494 28.7767 73.9264 28.8252 73.9066 28.8607C73.4817 29.6618 73.0569 30.4596 72.6287 31.2574C72.5332 31.4319 72.3586 31.4965 72.1939 31.406C71.5648 31.0572 70.8962 30.9021 70.1749 30.9538C68.9431 31.041 68.0143 31.5837 67.4412 32.6787C67.013 33.4959 66.8154 34.3777 66.7528 35.2821C66.6902 36.1833 66.6738 37.0877 66.6705 37.9889C66.6606 40.7862 66.6672 43.5834 66.6639 46.3774C66.6639 46.6326 66.6441 46.891 66.6112 47.1462C66.6013 47.2108 66.5091 47.2915 66.4333 47.3174C66.3115 47.3594 66.1764 47.3755 66.048 47.3788C65.6099 47.3852 65.1718 47.3884 64.7305 47.382C63.0672 47.3561 63.2714 47.6146 63.2681 45.9446C63.2648 43.2313 63.2714 40.5213 63.2714 37.8113Z" fill="#767DA5"/>
<path d="M79.0547 37.7337C79.0547 34.8945 79.0547 32.0585 79.058 29.2193C79.058 28.9641 79.0777 28.7057 79.1107 28.4505C79.1206 28.3859 79.2128 28.3245 79.2754 28.2728C79.305 28.247 79.3577 28.2405 79.4005 28.2405C80.2766 28.2373 81.1528 28.2341 82.0289 28.2405C82.2594 28.2405 82.4406 28.4247 82.4472 28.6475C82.4537 28.9479 82.457 29.2483 82.457 29.5487C82.457 35.0528 82.457 40.5568 82.457 46.0609C82.457 46.3612 82.4537 46.6616 82.4472 46.962C82.4406 47.1817 82.2594 47.3593 82.0223 47.3593C81.1462 47.3626 80.27 47.3593 79.3939 47.3529C79.2194 47.3529 79.0843 47.2011 79.0777 47.0137C79.0679 46.6713 79.058 46.3257 79.058 45.9833C79.0547 43.2378 79.0547 40.4857 79.0547 37.7337Z" fill="#767DA5"/>
<path d="M129.965 56.5296C133.469 56.5296 136.974 56.5296 140.481 56.5296C140.831 56.5296 141.183 56.5263 141.532 56.5328C141.845 56.536 141.987 56.6426 142 56.859C142.013 57.098 141.868 57.2402 141.598 57.2499C141.466 57.2563 141.335 57.2595 141.203 57.2595C133.71 57.2595 126.22 57.2595 118.727 57.2595C118.552 57.2595 118.374 57.2595 118.203 57.2337C118.127 57.224 118.025 57.1626 117.999 57.098C117.956 56.9882 117.94 56.8558 117.956 56.7363C117.966 56.6749 118.068 56.5845 118.137 56.578C118.44 56.5489 118.747 56.5296 119.053 56.5296C122.692 56.5296 126.329 56.5296 129.965 56.5296Z" fill="#767DA5"/>
<path d="M44.4777 60.8804C44.313 60.8804 44.2241 60.8804 44.1352 60.8804C43.8915 60.8804 43.7136 60.7706 43.6115 60.5606C43.427 60.1698 43.2459 59.779 43.0746 59.3849C42.9758 59.1588 42.8012 59.0554 42.5674 59.0554C41.7341 59.049 40.9008 59.0522 40.0675 59.0457C39.7744 59.0425 39.5636 59.1588 39.4384 59.4204C39.2507 59.808 39.0662 60.1989 38.8818 60.5865C38.7764 60.8094 38.5853 60.8869 38.3482 60.8837C38.1736 60.8804 37.9991 60.874 37.8245 60.8643C37.6862 60.8578 37.5775 60.7157 37.617 60.6091C37.6796 60.4476 37.7323 60.2861 37.8047 60.131C38.8653 57.9152 39.9292 55.6994 40.993 53.4836C41.049 53.3673 41.1116 53.251 41.1841 53.1477C41.2236 53.096 41.3158 53.0217 41.352 53.0378C41.4245 53.0669 41.4904 53.1412 41.5365 53.2123C41.6056 53.3189 41.6616 53.4384 41.7143 53.5546C42.7387 55.7898 43.7597 58.0218 44.7807 60.257C44.8334 60.3733 44.8532 60.5025 44.8861 60.6252C44.9224 60.748 44.8137 60.8707 44.6622 60.8804C44.5732 60.8772 44.4876 60.8804 44.4777 60.8804ZM41.2499 57.8926C41.2499 57.8862 41.2499 57.8765 41.2499 57.87C41.5101 57.87 41.7736 57.8732 42.0338 57.87C42.1985 57.8668 42.3138 57.6601 42.238 57.4889C41.9745 56.9042 41.711 56.3163 41.441 55.7349C41.4179 55.6865 41.3356 55.6542 41.273 55.6348C41.2532 55.6283 41.1972 55.68 41.1808 55.7188C40.8843 56.3357 40.5879 56.9559 40.2981 57.5728C40.2519 57.6697 40.3639 57.8506 40.4726 57.8539C40.7295 57.87 40.9897 57.8797 41.2499 57.8926Z" fill="#767DA5"/>
<path d="M76.3967 60.8869C76.3077 60.8837 76.1694 60.8966 76.0442 60.8611C75.929 60.8288 75.7742 60.7706 75.7248 60.6802C75.5041 60.2603 75.3098 59.8307 75.1121 59.3978C75.0133 59.1782 74.8421 59.0555 74.6082 59.0522C73.9956 59.0393 73.3797 59.0425 72.767 59.0425C71.4035 59.0425 71.6999 58.9715 71.1499 60.0988C71.0741 60.2538 71.0016 60.4089 70.9259 60.5639C70.8205 60.7771 70.6393 60.8837 70.4022 60.8804C70.1848 60.8804 69.9674 60.874 69.7533 60.8449C69.7072 60.8385 69.6578 60.7125 69.6512 60.635C69.6447 60.5542 69.6677 60.4638 69.7039 60.3895C70.8403 58.0186 71.9766 55.6477 73.1162 53.2801C73.1524 53.2058 73.2216 53.1477 73.2842 53.0895C73.3698 53.0152 73.4521 53.0185 73.4982 53.096C73.5641 53.2058 73.6234 53.3221 73.6761 53.4384C74.7136 55.7123 75.7511 57.9831 76.7886 60.257C76.8413 60.3733 76.8775 60.4961 76.9237 60.6156C76.9632 60.7157 76.8347 60.8578 76.6964 60.8675C76.614 60.874 76.5251 60.8772 76.3967 60.8869ZM73.2578 57.8991C73.5443 57.8797 73.8474 57.8603 74.1471 57.841C74.2558 57.8345 74.3414 57.6665 74.2986 57.5535C74.2821 57.5147 74.2657 57.476 74.2459 57.4372C74.0055 56.8913 73.7683 56.3454 73.518 55.806C73.4917 55.7479 73.3863 55.693 73.3171 55.6962C73.2479 55.6962 73.1491 55.7543 73.1195 55.8157C72.8461 56.3907 72.5793 56.9721 72.3158 57.5535C72.2697 57.6536 72.3718 57.8377 72.4706 57.8442C72.7275 57.8603 72.9844 57.8797 73.2578 57.8991Z" fill="#767DA5"/>
<path d="M32.0507 53.096C32.716 53.1024 33.322 53.1541 33.8853 53.4416C34.0961 53.5514 34.2179 53.7226 34.2311 53.9487C34.2443 54.1619 34.2311 54.3783 34.2245 54.5915C34.2212 54.6916 34.0137 54.8111 33.9248 54.7692C33.6514 54.6335 33.3912 54.4623 33.108 54.3622C32.2351 54.0585 31.3722 54.1005 30.5883 54.5947C29.4553 55.3118 29.1555 56.4036 29.3564 57.6342C29.5376 58.7486 30.2424 59.4883 31.3458 59.8049C31.9453 59.9761 32.5612 59.9631 33.1442 59.6983C33.4208 59.5723 33.6876 59.4269 33.9577 59.2945C34.0565 59.2461 34.2146 59.3656 34.2278 59.4948C34.2311 59.5368 34.241 59.5788 34.241 59.624C34.2706 60.4186 34.2047 60.5349 33.4867 60.761C31.6752 61.3327 30.0975 60.8353 29.0468 59.6789C28.5363 59.1168 28.2399 58.4579 28.1147 57.7215C27.8348 56.0709 28.6318 54.0262 30.5488 53.3253C31.0527 53.1412 31.5731 53.1283 32.0507 53.096Z" fill="#767DA5"/>
<path d="M107.805 57.0852C107.808 55.8706 108.184 54.9339 108.958 54.1619C109.564 53.5611 110.292 53.1993 111.161 53.1315C111.998 53.0669 112.825 53.0572 113.605 53.4384C113.833 53.5514 113.928 53.7226 113.925 53.952C113.921 54.2071 113.889 54.4591 113.862 54.711C113.859 54.7336 113.786 54.7756 113.763 54.7659C113.609 54.7046 113.447 54.6464 113.306 54.5624C112.759 54.2394 112.163 54.1458 111.537 54.1974C110.424 54.2847 109.65 54.8661 109.235 55.8577C108.928 56.5942 108.928 57.3694 109.198 58.1317C109.541 59.1072 110.526 59.8178 111.58 59.8953C112.367 59.9535 113.039 59.7015 113.671 59.2752C113.704 59.2526 113.865 59.3236 113.869 59.3624C113.895 59.6595 113.918 59.9599 113.902 60.2539C113.895 60.3605 113.79 60.5058 113.691 60.5543C111.451 61.6493 108.714 60.6706 107.953 58.2286C107.904 58.0639 107.861 57.8959 107.845 57.7279C107.815 57.4695 107.812 57.2111 107.805 57.0852Z" fill="#767DA5"/>
<path d="M48.8385 57.0625C48.8385 55.8641 48.8385 54.6658 48.8385 53.4642C48.8385 53.3479 48.967 53.2252 49.0889 53.2219C49.7015 53.2155 50.3108 53.1929 50.9201 53.2219C51.2198 53.2349 51.5229 53.3253 51.8061 53.4254C52.758 53.7711 53.3574 54.8241 53.1796 55.8028C53.0017 56.7912 52.4154 57.4178 51.4175 57.6439C51.0354 57.7311 50.6402 57.7505 50.2581 57.8248C50.1362 57.8474 50.0341 57.954 50.0308 58.0961C50.021 58.7389 50.021 59.3817 50.0078 60.0245C50.0045 60.2377 49.9814 60.4508 49.9419 60.6576C49.9287 60.7222 49.8431 60.7997 49.7739 60.8255C49.5236 60.916 49.2601 60.9063 49.0098 60.8255C48.9406 60.8029 48.8616 60.7189 48.8484 60.6511C48.8122 60.4864 48.8023 60.3119 48.8023 60.144C48.799 59.1168 48.799 58.0864 48.799 57.0593C48.8188 57.0625 48.8287 57.0625 48.8385 57.0625ZM52.0136 55.4959C52.0169 54.9468 51.7699 54.5818 51.2627 54.4397C51.0156 54.3686 50.7554 54.3331 50.4985 54.2976C50.2647 54.2653 50.0407 54.4332 50.0374 54.6367C50.0242 55.1471 50.0177 55.6574 50.0177 56.1678C50.0177 56.5392 50.2252 56.7104 50.5941 56.6587C50.8081 56.6297 51.0255 56.5974 51.233 56.5425C51.7238 56.4165 52.0103 56.0224 52.0136 55.4959Z" fill="#767DA5"/>
<path d="M11.989 56.5295C15.5889 56.5295 19.1889 56.5295 22.7856 56.5328C23.1347 56.5328 23.4839 56.5457 23.833 56.578C23.968 56.5909 24.0372 56.7104 24.0438 56.8526C24.0504 57.0399 23.9186 57.2305 23.7737 57.2369C23.5563 57.2466 23.3357 57.2595 23.115 57.2595C15.6548 57.2595 8.19137 57.2595 0.731202 57.2595C0.599455 57.2595 0.467708 57.2563 0.335961 57.2499C0.171278 57.2434 0.0329437 57.1045 6.97188e-06 56.9172C-0.0263424 56.7556 0.118579 56.5489 0.270088 56.5457C0.622511 56.536 0.97164 56.5295 1.32406 56.5295C4.88123 56.5295 8.4351 56.5295 11.989 56.5295Z" fill="#767DA5"/>
<path d="M64.714 53.2155C65.3727 53.2155 66.0282 53.2122 66.6869 53.2155C66.845 53.2155 66.9998 53.3834 67.0031 53.5546C67.0064 53.7258 66.9998 53.897 66.9735 54.065C66.9603 54.1328 66.8911 54.2233 66.8253 54.2491C66.7067 54.2943 66.5716 54.3202 66.4432 54.3169C65.0763 54.2943 65.2212 54.4171 65.2179 55.5121C65.2114 57.0173 65.2179 58.5193 65.2147 60.0245C65.2147 60.2376 65.1949 60.4541 65.162 60.664C65.1521 60.7286 65.0631 60.8223 64.9973 60.832C64.7832 60.8611 64.5658 60.8804 64.3517 60.8643C64.2331 60.8546 64.0948 60.79 64.0882 60.6285C64.0718 60.3281 64.052 60.0309 64.052 59.7305C64.0487 58.1833 64.052 56.6361 64.0487 55.0889C64.0487 54.9177 64.0454 54.7433 64.0092 54.5753C63.9927 54.5075 63.8972 54.4138 63.8247 54.4041C63.5217 54.3622 63.2187 54.3363 62.9124 54.3234C62.3064 54.304 62.201 54.2233 62.2701 53.5159C62.2833 53.3802 62.3558 53.2704 62.4941 53.2381C62.6193 53.209 62.751 53.1993 62.8827 53.1961C63.4954 53.1929 64.1113 53.1929 64.7239 53.1929C64.714 53.2058 64.714 53.2122 64.714 53.2155Z" fill="#767DA5"/>
<path d="M102.334 56.5005C102.334 57.4436 102.331 58.3836 102.334 59.3268C102.334 59.5626 102.486 59.6982 102.749 59.7144C102.924 59.7241 103.099 59.7305 103.273 59.7337C103.622 59.7434 103.971 59.7499 104.32 59.7628C104.459 59.7693 104.623 59.9566 104.627 60.1214C104.627 60.2893 104.62 60.4637 104.591 60.6285C104.577 60.6963 104.502 60.7932 104.436 60.8061C104.225 60.8513 104.011 60.8804 103.797 60.8837C101.485 60.916 101.294 60.9095 101.241 60.7286C101.02 59.9308 101.159 59.1136 101.142 58.3061C101.116 56.8945 101.132 55.4798 101.139 54.065C101.139 53.8518 101.159 53.6386 101.191 53.4287C101.201 53.3641 101.28 53.2801 101.35 53.2542C101.6 53.1606 101.86 53.1767 102.114 53.2478C102.18 53.2672 102.268 53.3544 102.275 53.4157C102.305 53.6709 102.318 53.9261 102.321 54.1813C102.328 54.9533 102.324 55.722 102.324 56.494C102.328 56.5005 102.331 56.5005 102.334 56.5005Z" fill="#767DA5"/>
<path d="M93.7444 56.9624C93.7444 55.848 93.7411 54.7369 93.7477 53.6225C93.751 53.3124 93.8894 53.209 94.2681 53.2026C94.3538 53.2026 94.4427 53.2058 94.5283 53.209C94.5711 53.2123 94.6205 53.2058 94.6568 53.222C94.7687 53.2736 94.9071 53.3059 94.9104 53.4707C94.917 53.8551 94.9334 54.2394 94.9367 54.6238C94.94 56.0806 94.9367 57.5373 94.94 58.9941C94.94 59.1233 94.9532 59.2493 94.9598 59.3785C94.9697 59.5432 95.1146 59.695 95.2891 59.7015C95.77 59.7176 96.2476 59.7241 96.7284 59.737C97.1138 59.7499 97.2455 59.8985 97.2422 60.3087C97.2422 60.3927 97.2554 60.4896 97.2159 60.5607C97.1599 60.6673 97.0842 60.7997 96.9853 60.8352C96.8273 60.8901 96.6428 60.8837 96.4682 60.8837C95.6811 60.8837 94.8972 60.8804 94.11 60.8707C93.9355 60.8707 93.7708 60.7189 93.7609 60.5542C93.7444 60.299 93.728 60.0406 93.728 59.7854C93.7247 58.8423 93.728 57.9023 93.728 56.9591C93.7346 56.9624 93.7378 56.9624 93.7444 56.9624Z" fill="#767DA5"/>
<path d="M80.8332 56.9624C80.8332 55.848 80.8299 54.7369 80.8365 53.6225C80.8398 53.3156 80.9848 53.209 81.3536 53.2026C81.4393 53.2026 81.5282 53.2058 81.6139 53.209C81.6567 53.209 81.7061 53.2058 81.7423 53.222C81.8543 53.2736 81.9926 53.3027 81.9959 53.4707C82.0025 53.8551 82.0223 54.2394 82.0223 54.6238C82.0256 56.0806 82.0223 57.5373 82.0256 58.9941C82.0256 59.1233 82.0387 59.2493 82.0453 59.3785C82.0552 59.5432 82.2001 59.6983 82.3747 59.7015C82.8556 59.7176 83.3332 59.7241 83.8141 59.737C84.2027 59.7499 84.3345 59.8953 84.3312 60.3087C84.3312 60.3507 84.3312 60.396 84.3279 60.4379C84.3114 60.7157 84.1928 60.8546 83.9524 60.8708C83.8206 60.8772 83.6922 60.8869 83.5604 60.8869C82.7732 60.8837 81.9893 60.8805 81.2021 60.874C81.0309 60.874 80.8629 60.7222 80.8497 60.5607C80.8332 60.3055 80.8168 60.0471 80.8168 59.7919C80.8135 58.8487 80.8168 57.9088 80.8168 56.9656C80.8267 56.9624 80.8299 56.9624 80.8332 56.9624Z" fill="#767DA5"/>
<path d="M58.3935 56.9979C58.3935 58.1188 58.3968 59.2364 58.3902 60.3572C58.3869 60.7739 58.2651 60.8869 57.8435 60.8837C57.7117 60.8837 57.5767 60.8837 57.4548 60.8514C57.3823 60.832 57.3099 60.7577 57.2736 60.6899C57.2341 60.6188 57.2209 60.5252 57.2209 60.4412C57.2176 58.1607 57.2209 55.8771 57.2242 53.5966C57.2242 53.3447 57.3593 53.2187 57.6327 53.2123C57.8072 53.209 57.9818 53.209 58.1531 53.2381C58.2222 53.251 58.3178 53.3285 58.3342 53.3931C58.377 53.5579 58.3968 53.7323 58.3968 53.9003C58.3968 54.9307 58.3968 55.9643 58.3935 56.9979C58.3968 56.9979 58.3935 56.9979 58.3935 56.9979Z" fill="#767DA5"/>
<path d="M90.1872 13.6567C90.2268 13.6212 90.263 13.5857 90.3025 13.5501C90.2926 13.576 90.2926 13.6115 90.2762 13.6212C90.2465 13.6374 90.2103 13.6374 90.1741 13.6438C90.1741 13.6406 90.1872 13.6567 90.1872 13.6567Z" fill="#FEFFFF"/>
<path d="M82.4373 15.8047L82.4571 15.8758L82.3912 15.8661L82.4373 15.8047Z" fill="#FEFFFF"/>
<path d="M88.603 14.6775C88.5405 15.1038 88.5339 15.1103 88.0695 15.2007C88.1123 14.7711 88.1288 14.7518 88.603 14.6775Z" fill="#767DA5"/>
<path d="M89.3968 14.1607C89.3013 14.4126 89.1267 14.503 88.8599 14.4223C88.9554 14.1736 89.1333 14.0831 89.3968 14.1607Z" fill="#767DA5"/>
<path d="M89.9238 13.6438C89.9007 13.7989 89.8118 13.8893 89.6537 13.9087C89.6471 13.7278 89.736 13.6374 89.9238 13.6438Z" fill="#767DA5"/>
<path d="M88.8665 14.419C88.8764 14.6032 88.7776 14.6839 88.5964 14.6839C88.603 14.5127 88.6986 14.432 88.8665 14.419Z" fill="#767DA5"/>
<path d="M89.6602 13.9022C89.6405 14.0605 89.5483 14.1477 89.3902 14.1671C89.3836 13.9862 89.4725 13.8958 89.6602 13.9022Z" fill="#767DA5"/>
</svg>
