<svg width="129" height="53" viewBox="0 0 129 53" fill="none" xmlns="http://www.w3.org/2000/svg">
<path d="M49.8014 26.7362C49.8014 40.1487 38.9791 51.0217 25.6266 51.0217C12.2752 51.0217 1.45053 40.1487 1.45053 26.7362C1.45053 13.3226 12.2752 2.44949 25.6266 2.44949C38.9791 2.44949 49.8014 13.3226 49.8014 26.7362Z" fill="#242939"/>
<path d="M108.545 14.0754H102.979V39.5679H108.545C117.037 39.5679 121.771 34.5243 121.771 26.8217C121.771 19.0615 117.117 14.0754 108.545 14.0754ZM108.917 44.8872H100.062C98.4427 44.8872 97.1467 43.6603 97.1467 41.9583V11.6334C97.1467 10.0053 98.4427 8.75851 100.062 8.75851H108.917C120.921 8.75851 127.549 16.8412 127.549 26.8217C127.549 36.8056 120.85 44.8872 108.917 44.8872ZM80.2938 28.4497H69.6617V39.5175H80.2938C84.5531 39.5175 86.5088 36.7505 86.5088 33.9836C86.5088 31.2178 84.58 28.4497 80.2938 28.4497ZM78.9732 14.0754H69.6617V23.1891H78.9732C82.6663 23.1891 84.4048 21.1259 84.4048 18.6299C84.4048 16.0823 82.7737 14.0754 78.9732 14.0754ZM80.0848 44.8872H66.7439C65.1245 44.8872 63.8822 43.5852 63.8822 41.9583V11.6334C63.8822 10.0053 65.1245 8.75851 66.7439 8.75851H79.2208C86.0768 8.75851 90.1809 12.7664 90.1809 17.9742C90.1809 23.2395 86.9782 25.1162 85.862 25.5209C87.5935 25.9596 92.2872 27.9559 92.2872 34.5407C92.2872 40.1837 87.757 44.8872 80.0848 44.8872Z" fill="#767DA5"/>
<path d="M33.4577 20.1005C33.4986 20.1005 33.5371 20.0934 33.5803 20.0829C33.6807 20.0571 47.6018 16.6004 47.6018 16.6004C45.6823 12.4084 42.6116 8.86026 38.7947 6.36544C38.7947 6.36544 33.3806 19.7791 33.3526 19.8459C33.3305 19.9022 33.3246 19.9374 33.3246 19.9656C33.3246 20.043 33.3841 20.1005 33.4577 20.1005ZM28.3974 16.7775C28.4184 16.8913 28.4849 16.9289 28.5457 16.9289C28.6052 16.9289 28.6531 16.889 28.7196 16.8198C29.0419 16.4785 38.6441 6.26809 38.6441 6.26809C34.909 3.86592 30.4745 2.46779 25.7143 2.4502C25.7143 2.4502 28.2713 16.1078 28.3974 16.7775ZM35.9061 25.4619C35.9867 25.4889 49.5645 30.1419 49.5645 30.1419C49.721 29.0288 49.8016 27.8922 49.8016 26.7357C49.8016 23.1841 49.0426 19.8107 47.6789 16.7693C47.6789 16.7693 35.926 25.0972 35.8536 25.1488C35.7824 25.2004 35.7497 25.2461 35.7497 25.3001C35.7497 25.3951 35.8244 25.435 35.9061 25.4619ZM17.9265 19.9656C17.9265 19.9374 17.9221 19.9022 17.8984 19.8459C17.8716 19.7791 12.4575 6.36544 12.4575 6.36544C8.64065 8.86026 5.56873 12.4084 3.64922 16.6004C3.64922 16.6004 17.5703 20.0571 17.6719 20.0829C17.7151 20.0934 17.7525 20.1005 17.7945 20.1005C17.8669 20.1005 17.9265 20.043 17.9265 19.9656ZM25.538 2.4502C20.7777 2.46779 16.3421 3.86592 12.6081 6.26809C12.6081 6.26809 22.2092 16.4785 22.5326 16.8198C22.5991 16.889 22.647 16.9289 22.7066 16.9289C22.7673 16.9289 22.8327 16.8913 22.8548 16.7775C22.9809 16.1078 25.538 2.4502 25.538 2.4502ZM15.3449 25.4619C15.2644 25.4889 1.68651 30.1419 1.68651 30.1419C1.53122 29.0288 1.45065 27.8922 1.45065 26.7357C1.45065 23.1841 2.20959 19.8107 3.57332 16.7693C3.57332 16.7693 15.3263 25.0972 15.3975 25.1488C15.4699 25.2004 15.5014 25.2461 15.5014 25.3001C15.5014 25.3951 15.4267 25.435 15.3449 25.4619Z" fill="#767DA5"/>
<path d="M25.6261 51.0215C37.7421 51.0215 47.7752 42.0685 49.5289 30.3908L40.5187 31.6529C40.3797 31.6716 40.3225 31.7456 40.2886 31.8441C38.5022 37.073 34.0012 41.0516 28.419 42.072C30.5451 41.0317 32.0105 38.8395 32.0105 36.3036C32.0105 32.7613 29.1522 29.89 25.6261 29.89C22.1012 29.89 19.2417 32.7613 19.2417 36.3036C19.2417 38.8395 20.7071 41.0317 22.8332 42.072C17.251 41.0516 12.7488 37.073 10.9624 31.8441C10.9285 31.7456 10.8725 31.6717 10.7335 31.6529L1.72211 30.3908C3.47699 42.0685 13.51 51.0215 25.6261 51.0215Z" fill="#767DA5"/>
</svg>
