<svg width="47" height="57" viewBox="0 0 47 57" fill="none" xmlns="http://www.w3.org/2000/svg">
<path d="M29.9506 27.5467H42.3054M11.0574 25.3128C11.0574 15.6142 18.9205 7.74731 28.6229 7.74731C38.3276 7.74731 46.1899 15.6142 46.1899 25.3128C46.1899 35.0129 38.3276 42.8821 28.6229 42.8821C18.9205 42.8821 11.0574 35.0129 11.0574 25.3128ZM42.4548 11.5771C42.4548 17.318 37.7998 21.9723 32.0574 21.9723C26.3157 21.9723 21.6637 17.318 21.6637 11.5771C21.6637 5.83318 26.3157 1.17886 32.0574 1.17886C37.7998 1.17886 42.4548 5.83318 42.4548 11.5771ZM11.0574 1.12492V42.7472V1.12492ZM17.434 1.12492L17.4309 7.58087L17.434 1.12492ZM0.679962 7.60707H42.3054H0.679962ZM0.679962 36.1248H42.3054H0.679962ZM32.8873 1.01472L29.2293 42.8312L32.8873 1.01472Z" stroke="#242939" stroke-width="0.355936" stroke-miterlimit="3.864"/>
<path d="M11.0093 36.2101V34.9031H13.3164C13.5045 34.8731 13.7873 34.6989 13.8135 34.4747V9.24425C13.8104 8.97454 13.5045 8.75724 13.2455 8.74183H11.0093V7.43106H29.3785L29.8994 14.4858H28.8499L28.3821 12.0307C27.9814 10.132 26.2676 8.7426 24.305 8.7426V8.74183H17.698V20.7822H21.8483C23.1761 20.5672 23.7054 19.5362 23.9721 18.2624L24.3797 16.2257H25.3452V27.0601H24.4491L23.969 24.6081C23.6723 23.1587 22.9503 22.096 21.453 22.096H17.698V33.7295C17.698 34.366 18.2127 34.8877 18.8415 34.9031H24.5747C26.7022 34.7999 28.5563 33.271 29.0687 31.1912L29.7514 27.2782H30.8611L30.0782 36.2101H11.0093Z" fill="#242939"/>
<path d="M0.640808 1.11117H42.2416V42.7104H0.640808V1.11117Z" fill="#767DA5"/>
<path d="M29.8964 27.5196H42.245M11.0117 25.2865C11.0117 15.5925 18.8724 7.72951 28.5702 7.72951C38.2703 7.72951 46.1272 15.5925 46.1272 25.2865C46.1272 34.982 38.2703 42.8473 28.5702 42.8473C18.8724 42.8473 11.0117 34.982 11.0117 25.2865ZM42.3952 11.5578C42.3952 17.2955 37.7424 21.9483 32.0031 21.9483C26.2638 21.9483 21.6134 17.2955 21.6134 11.5578C21.6134 5.81692 26.2638 1.16568 32.0031 1.16568C37.7424 1.16568 42.3952 5.81692 42.3952 11.5578ZM11.0117 1.1125V42.7117V1.1125ZM17.3852 1.1125L17.3836 7.56537L17.3852 1.1125ZM0.640381 7.59157H42.245H0.640381ZM0.640381 36.0932H42.245H0.640381ZM32.8346 1L29.1774 42.798L32.8346 1Z" stroke="#242939" stroke-width="0.355936" stroke-miterlimit="3.864"/>
<path d="M10.9657 36.1792V34.8715H13.2689C13.457 34.843 13.7413 34.6689 13.7667 34.4438V9.22649C13.7652 8.95525 13.4585 8.73871 13.198 8.7233H10.9657V7.41254H29.3233L29.8457 14.4649H28.7977L28.3269 12.0114C27.9293 10.115 26.2155 8.72407 24.2559 8.72407V8.7233H17.6497V20.759H21.7993C23.1239 20.5441 23.6549 19.5122 23.9207 18.24L24.3284 16.2041H25.2916V27.0324H24.3985L23.9192 24.5827C23.6233 23.1324 22.8997 22.0714 21.4032 22.0714H17.6497V33.6995C17.6497 34.336 18.1645 34.8561 18.7948 34.8715H24.5225C26.6494 34.769 28.5034 33.241 29.015 31.1619L29.6993 27.2504H30.8059L30.023 36.1792H10.9657Z" fill="#242939"/>
<path d="M4.9951 50.4334L5.07678 49.8347H5.23244V53.2507H5.09759L4.9951 52.5256C4.88491 51.9885 4.411 51.5808 3.84231 51.5808H2.66255V55.5894C2.66255 55.8838 2.88216 56.1096 3.1588 56.1134H5.0868C5.8728 56.0734 6.52471 55.5162 6.7058 54.7765L6.87995 53.5505H7.07491L6.85221 56.0865L6.82986 56.3269H0.640533V56.1134H1.30169C1.42807 56.0957 1.52902 55.9948 1.54674 55.8684V47.3781C1.5452 47.2278 1.42807 47.1061 1.28551 47.0953H0.640533V46.8787H6.59483L6.61333 47.1184L6.75434 49.0248H6.57942L6.47616 48.2951C6.33361 47.6131 5.72947 47.0984 5.00666 47.0953H2.66255V51.3674H3.9841C4.47573 51.2942 4.89416 50.9151 4.9951 50.4334Z" fill="#767DA5"/>
<path d="M11.9289 55.4069V56.3501H13.6435V56.1482H12.9369V46.5359C12.5731 46.7833 12.2179 46.8788 11.8056 46.8788H11.2231V47.0853H11.9166V51.8167C11.5752 50.9591 10.9927 50.4967 10.2992 50.4967C9.15869 50.4967 8.0976 51.8059 8.0976 53.4889C8.0976 55.3221 9.07392 56.5234 10.4093 56.5234C11.0274 56.5234 11.5136 56.1482 11.9289 55.4069ZM9.20338 54.3196V52.6767C9.20338 51.3983 9.59638 50.761 10.3716 50.761C11.0274 50.761 11.5999 51.3174 11.9166 52.333V54.8913C11.5876 55.8207 11.0512 56.3069 10.3462 56.3069C9.51008 56.3069 9.20338 55.6758 9.20338 54.3196Z" fill="#767DA5"/>
<path d="M14.2046 50.8541H14.7039L16.7945 56.5241L16.8908 56.4509L18.1692 52.8176L19.5278 56.5241L19.6279 56.4509L21.1968 51.993C21.4627 51.2271 21.6106 50.8541 22.0098 50.8541H22.0838V50.6561H20.3931V50.8541C20.9502 50.8695 21.1807 50.8996 21.1807 51.2132C21.1807 51.3442 21.1336 51.4868 21.0735 51.6594L19.9554 54.8766L18.5214 50.8541H19.3467V50.6561H16.672V50.8541H17.451L18.0606 52.4885L17.2206 54.8766L15.7712 50.8541H16.467V50.6561H14.2046V50.8541Z" fill="#767DA5"/>
<path d="M25.4119 55.3061C25.17 55.8764 24.7076 56.2093 24.2453 56.2093C23.712 56.2093 23.3976 55.7508 23.3976 54.9324C23.3976 53.8613 23.9278 53.3604 25.0474 53.3604C25.1576 53.3604 25.2825 53.3604 25.4119 53.3766V55.3061ZM27.4794 55.7361L27.3492 55.5936C27.1157 55.9503 26.9431 56.1368 26.7258 56.1368C26.4838 56.1368 26.3659 55.8509 26.3659 55.2345V52.3633C26.3659 51.7129 26.3243 51.3839 25.8635 50.9847C25.4736 50.6564 25.0382 50.4815 24.5011 50.4815C23.4076 50.4815 22.6933 51.2128 22.6933 52.0157C22.6933 52.4149 22.9098 52.6931 23.2504 52.6931C23.5656 52.6931 23.7713 52.4295 23.7713 52.0157C23.7713 51.6197 23.4307 51.5033 23.4307 51.3839C23.4307 51.1712 23.8214 50.6842 24.4787 50.6842C25.1576 50.6842 25.4119 51.0132 25.4119 51.7129V53.1593H25.3534C23.383 53.1593 22.3396 53.8875 22.3396 55.0911C22.3396 55.8925 22.9214 56.5237 23.7367 56.5237C24.5735 56.5237 25.1438 56.2093 25.4643 55.5789C25.573 56.1484 25.9236 56.4782 26.4353 56.4782C26.8336 56.4782 27.1426 56.2355 27.4794 55.7361Z" fill="#767DA5"/>
<path d="M27.9298 56.3499H30.3109V56.148H29.6443V52.8005C29.8863 51.4644 30.3741 50.73 30.8118 50.73C30.8603 50.73 30.9073 50.7485 30.9566 50.7608C30.8118 50.9596 30.7262 51.1299 30.7262 51.3179C30.7262 51.6478 30.9821 51.9151 31.2695 51.9151C31.5646 51.9151 31.7588 51.6593 31.7588 51.2278C31.7588 50.8001 31.4537 50.4819 30.9821 50.4819C30.4103 50.4819 29.9811 50.9719 29.6443 51.9752V50.4819C29.3985 50.6021 29.0255 50.656 28.5123 50.656H27.9298V50.8541H28.6218V56.148H27.9298V56.3499Z" fill="#767DA5"/>
<path d="M36.2136 55.4069V56.3501H37.9281V56.1482H37.2246V46.5359C36.8593 46.7833 36.5056 46.8788 36.0903 46.8788H35.5093V47.0853H36.2012V51.8167C35.8599 50.9591 35.2788 50.4967 34.5899 50.4967C33.4425 50.4967 32.3861 51.8059 32.3861 53.4889C32.3861 55.3221 33.3586 56.5234 34.6932 56.5234C35.3135 56.5234 35.8044 56.1482 36.2136 55.4069ZM33.4919 54.3196V52.6767C33.4919 51.3983 33.8826 50.761 34.6593 50.761C35.3135 50.761 35.8868 51.3174 36.2012 52.333V54.8913C35.8768 55.8207 35.339 56.3069 34.6316 56.3069C33.7939 56.3069 33.4919 55.6758 33.4919 54.3196Z" fill="#767DA5"/>
<path d="M38.882 56.3942H39.0508C39.0508 56.1099 39.1124 55.9928 39.2581 55.9928C39.4045 55.9928 39.7705 56.5337 40.6189 56.5337C41.5328 56.5337 42.1524 55.7362 42.1524 54.5055C42.1524 53.5593 41.69 52.9181 40.8624 52.774C40.2791 52.677 39.7805 52.7448 39.4769 52.3872C39.3413 52.2169 39.2581 51.9927 39.2581 51.7291C39.2581 51.1458 39.6603 50.6842 40.2529 50.6842C40.9711 50.6842 41.3995 51.1712 41.5791 52.163H41.7131V50.4816H41.519C41.5328 50.5417 41.5328 50.5894 41.5328 50.6264C41.5328 50.7859 41.4843 50.8699 41.3818 50.8699C41.2993 50.8699 40.9233 50.497 40.2305 50.497C39.4507 50.497 38.882 51.2622 38.882 52.2423C38.882 53.2464 39.4507 53.8737 40.4471 53.8737C41.2146 53.8737 41.6291 54.2751 41.6291 54.9625C41.6291 55.7801 41.2146 56.2825 40.5342 56.2825C39.7443 56.2825 39.292 55.6915 38.9991 54.3884H38.882V56.3942Z" fill="#767DA5"/>
</svg>
