<svg width="175" height="32" viewBox="0 0 175 32" fill="none" xmlns="http://www.w3.org/2000/svg">
<path fill-rule="evenodd" clip-rule="evenodd" d="M63.4972 11.587C63.4972 11.2964 63.6932 11.1411 63.9394 11.1411C64.3559 11.1411 64.9847 11.587 65.3394 12.4786C65.2122 12.4786 65.0209 12.5174 64.8925 12.5174C64.1342 12.5174 63.4972 12.154 63.4972 11.587V11.587ZM17.6167 11.587C17.6167 11.2964 17.8045 11.1411 18.0612 11.1411C18.4672 11.1411 19.0703 11.587 19.4204 12.4786C18.249 12.4786 17.6167 12.2234 17.6167 11.587ZM26.4659 6.97923C26.4659 2.20917 27.3875 1.47631 27.6734 1.47631C28.1821 1.47631 28.2427 1.79627 28.2427 3.62548C28.2427 5.50528 27.4482 7.96501 26.4659 9.31545V6.97923ZM58.6788 11.6822C58.1328 12.4492 57.6907 13.5385 57.6907 14.9419C57.6907 17.6298 59.2108 20.1954 62.1649 20.1954C65.0209 20.1954 67.0217 17.9204 67.0217 14.7478C67.0217 13.8267 66.9867 13.6997 66.9272 13.3174C67.591 13.0256 68.1639 12.5798 68.6095 12.2234C68.9887 11.9352 69.2722 11.774 69.4986 11.774C69.7832 11.774 69.9081 11.9987 69.9081 12.4139V18.6909C69.9081 19.7131 70.2289 20.1954 71.0187 20.1954C71.7467 20.1954 72.2589 19.6802 72.5424 19.0732C73.5924 16.8652 75.1126 13.922 75.7764 12.8045C75.9362 12.548 76.0657 12.3516 76.1567 12.3516C76.2839 12.3516 76.3492 12.4492 76.3492 12.8633V17.8604C76.3492 19.2661 76.9862 20.1954 78.3769 20.1954C79.8399 20.1954 80.5656 18.7826 81.8443 16.6076C81.9049 16.477 81.9318 16.3841 81.9318 16.2911C81.9318 16.0029 81.6844 15.8394 81.4289 15.8394C81.1408 15.8394 80.9821 16.13 80.0324 17.1828C79.8399 17.3828 79.6533 17.6604 79.3009 17.6604C79.1749 17.6604 79.0781 17.5063 79.0781 17.311V11.7093C79.0781 10.2048 78.4107 9.59777 77.5544 9.59777C76.8579 9.59777 76.2839 9.88597 75.6819 10.7823C74.6027 12.3857 73.4921 14.6596 72.8912 15.8053C72.8236 15.9394 72.7326 16.13 72.6707 16.13C72.6042 16.13 72.5762 16.0312 72.5762 15.8053V11.7093C72.5762 10.5283 72.2589 9.59777 71.0187 9.59777C69.7167 9.59777 69.0517 10.4953 68.0997 11.1658C67.4965 11.6187 66.9587 11.9352 66.548 12.1269C65.9099 10.4953 64.7374 9.66835 63.7539 9.69305C62.7669 9.72716 62.0692 10.3389 62.0692 11.3635C62.0692 12.4139 62.7074 13.1456 63.5602 13.4715C64.0339 13.6632 64.4795 13.6997 65.1177 13.6997C65.309 13.6997 65.498 13.6997 65.6205 13.6632C65.6882 13.982 65.6579 14.4361 65.6579 14.7866C65.6579 16.357 64.7374 17.9204 63.0259 17.9204C61.2443 17.9204 60.2013 16.1923 60.2013 14.2102C60.2013 12.7045 60.6435 11.4587 61.368 10.5977C61.6608 10.2753 61.879 10.0801 61.879 9.78481C61.879 9.63542 61.6608 9.59778 61.4683 9.59778C60.2597 9.59778 58.9308 10.1436 58.0127 10.6212C56.8005 11.2623 55.376 12.3222 54.2 13.3774C53.6295 12.094 52.9318 10.9741 52.5806 10.1071C52.4546 9.7554 52.3625 9.34721 52.1081 9.34721C51.883 9.34721 51.785 9.57072 51.6298 10.0118C51.0605 11.7093 48.012 16.6735 47.3458 17.3452C47.2828 17.4369 47.1906 17.5381 47.1603 17.5381C47.0915 17.5381 47.0553 17.5063 47.0553 17.311V11.7093C47.0553 10.2048 46.4533 9.59778 45.6343 9.59778C44.9331 9.59778 44.3323 9.88598 43.7618 10.7824C42.7164 12.3857 41.4413 14.7219 40.8404 15.8712C40.7436 16.0688 40.6479 16.13 40.6153 16.13C40.5838 16.13 40.5581 16.0029 40.5581 15.8053V11.7093C40.5581 10.2048 39.9526 9.59778 39.1266 9.59778C38.4266 9.59778 37.7639 9.8601 37.2214 10.7824C35.8914 13.0574 33.6712 16.5452 33.2582 17.1169C33.1941 17.2158 33.1299 17.2805 33.0669 17.311C33.0039 17.311 32.9677 17.2487 32.9677 17.0899V11.7093C32.9677 10.2048 32.3657 9.59778 31.5456 9.59778C30.4011 9.59778 29.7699 10.6588 29.3534 11.327C28.7794 12.2551 28.0211 13.5056 27.4202 14.6596C27.006 15.4313 26.6549 16.13 26.5265 16.13C26.4659 16.13 26.4659 15.8394 26.4659 15.2971V11.0106C28.4621 8.7661 29.7011 6.01699 29.7011 3.00909C29.7011 1.27751 28.9427 0.322325 27.7714 0.322325C25.5769 0.322325 23.8992 3.77959 23.8992 7.87208V11.2C22.8819 11.8411 21.9287 12.154 20.7527 12.3857C20.1519 10.5977 18.8802 9.66835 17.8687 9.69306C16.8875 9.72717 16.1863 10.3389 16.1863 11.3635C16.1863 13.0574 17.8372 13.7608 19.2932 13.7608H19.7062C19.768 14.0832 19.768 14.4361 19.768 14.7866C19.768 16.357 18.8487 17.9204 17.1395 17.9204C15.3638 17.9204 14.3138 16.1923 14.3138 14.2102C14.3138 12.7045 14.7537 11.4587 15.484 10.5977C15.7722 10.2753 15.9962 9.98714 15.9962 9.78481C15.9962 9.63542 15.7722 9.59778 15.5797 9.59778C14.3745 9.59778 11.7122 11.2364 8.53648 14.4361C8.25531 11.8752 7.93564 9.37662 7.93564 6.94394C7.93564 4.22542 8.46881 1.91626 8.59597 1.25045C8.66014 0.837555 8.69981 0.577583 8.69981 0.389369C8.69981 0.13175 8.56447 0 8.22264 0C5.64896 0 -6.10352e-05 4.13013 -6.10352e-05 10.3059C-6.10352e-05 14.6854 1.59011 16.7993 4.34579 19.519C2.67278 22.2399 1.33111 25.4701 1.33111 28.351C1.33111 30.4272 1.81178 32 3.33079 32C6.5053 32 8.88297 25.3478 8.88297 20.4166C8.88297 18.9461 8.82464 17.4722 8.69981 16.0029C9.86998 14.7478 11.6795 13.0574 12.1205 12.8974C11.9315 13.5703 11.8043 14.2761 11.8043 14.9419C11.8043 17.6298 13.3303 20.1954 16.2785 20.1954C19.0435 20.1954 21.1342 17.9204 21.1342 14.7478C21.1342 14.3384 21.1015 13.982 21.0735 13.5997C22.0839 13.4079 23.0137 13.1456 23.8992 12.6104V19.0414C23.8992 19.8696 24.4662 20.1954 25.0064 20.1954C25.7402 20.1954 26.1205 19.6802 26.6549 18.5027C27.104 17.5381 28.3057 15.3324 29.0349 14.0161C29.6101 12.9892 29.9274 12.3222 30.1829 12.3222C30.2424 12.3222 30.31 12.4786 30.31 12.8633V18.3368C30.31 19.8096 31.0719 20.1954 31.7311 20.1954C32.3657 20.1954 32.7811 19.8437 33.1941 19.2661C34.8461 16.8958 36.5937 14.0832 37.2867 12.8633C37.4151 12.6445 37.5726 12.4786 37.7009 12.4786C37.8246 12.4786 37.8887 12.548 37.8887 12.9586V18.6909C37.8887 19.7131 38.2061 20.1954 39.0029 20.1954C39.7286 20.1954 40.2034 19.6802 40.4869 19.0732C41.5416 16.8652 43.0921 13.9514 43.7618 12.8045C43.9169 12.548 44.0768 12.3222 44.1713 12.3222C44.3031 12.3222 44.3323 12.4786 44.3323 12.8974V18.3368C44.3323 19.8096 45.0941 20.1954 45.7649 20.1954C46.6458 20.1954 47.2233 19.552 47.7938 18.8191C48.8345 17.4369 50.3593 14.9831 51.281 13.4079C51.6006 13.922 51.946 14.5313 52.2365 15.2019C51.4735 16.13 50.7105 17.1828 50.7105 18.3015C50.7105 19.4873 51.5353 20.1954 52.3928 20.1954C53.85 20.1954 55.1811 18.7826 55.1811 16.8346C55.1811 16.0688 54.963 15.2666 54.6795 14.5008C55.9733 13.2174 57.5308 11.9693 58.6788 11.6822H58.6788ZM6.4073 18.6579C6.66397 20.3519 6.8868 22.0199 6.8868 23.3292C6.8868 26.3959 5.87413 29.9814 4.12762 29.952C3.45329 29.952 2.88628 29.2721 2.85828 28.0946C2.79412 24.2585 4.60246 20.993 6.4073 18.6579ZM52.7393 16.477C52.9318 17.0275 53.0286 17.4722 53.0286 17.9204C53.0286 18.4333 52.8373 18.9461 52.4861 18.9461C52.2365 18.9461 51.9821 18.6579 51.9821 18.2086C51.9821 17.7275 52.3928 16.9593 52.7393 16.477ZM7.55297 1.21634C7.55297 1.41161 7.10847 2.30445 6.53913 3.90663C5.93596 5.56762 5.36079 7.93325 5.36079 10.7823C5.36079 12.4786 5.7773 14.7219 6.12846 16.9922L5.11229 18.3733C3.49179 16.3841 2.47795 14.1479 2.47795 10.3059C2.47795 4.8677 5.7458 1.09517 7.42463 1.09517C7.52497 1.09517 7.55297 1.12341 7.55297 1.21634L7.55297 1.21634Z" fill="#767DA5"/>
<path fill-rule="evenodd" clip-rule="evenodd" d="M156.568 11.587C156.568 11.2964 156.753 11.1411 157.01 11.1411C157.419 11.1411 158.055 11.587 158.403 12.4786C158.279 12.4786 158.089 12.5174 157.956 12.5174C157.201 12.5174 156.568 12.154 156.568 11.587V11.587ZM110.678 11.587C110.678 11.2964 110.872 11.1411 111.122 11.1411C111.535 11.1411 112.144 11.587 112.486 12.4786C111.313 12.4786 110.678 12.2234 110.678 11.587ZM119.533 6.97923C119.533 2.20917 120.449 1.47631 120.738 1.47631C121.244 1.47631 121.309 1.79627 121.309 3.62548C121.309 5.50528 120.513 7.96501 119.533 9.31545V6.97923ZM99.4802 18.6579C99.7263 20.3519 99.9574 22.0199 99.9574 23.3292C99.9574 26.3959 98.9435 29.9814 97.1935 29.952C96.5285 29.952 95.9568 29.2721 95.9253 28.0946C95.86 24.2585 97.6718 20.993 99.4802 18.6579ZM145.811 16.477C146.004 17.0275 146.095 17.4722 146.095 17.9204C146.095 18.4333 145.904 18.9461 145.556 18.9461C145.305 18.9461 145.043 18.6579 145.043 18.2086C145.043 17.7275 145.46 16.9593 145.811 16.477ZM100.617 1.21634C100.617 1.41161 100.177 2.30445 99.6015 3.90663C99.003 5.56762 98.4278 7.93325 98.4278 10.7823C98.4278 12.4786 98.8513 14.7219 99.1978 16.9922L98.1793 18.3733C96.5635 16.3841 95.5427 14.1479 95.5427 10.3059C95.5427 4.8677 98.8175 1.09517 100.496 1.09517C100.589 1.09517 100.617 1.12341 100.617 1.21634L100.617 1.21634ZM95.3257 17.2158C95.8927 17.9839 96.5927 18.7191 97.4175 19.519C95.734 22.2399 94.4028 25.4701 94.4028 28.351C94.4028 30.4272 94.8823 32 96.406 32C99.5758 32 101.954 25.3478 101.954 20.4166C101.954 18.9461 101.892 17.4722 101.765 16.0029C102.941 14.7478 104.743 13.0574 105.193 12.8974C105.002 13.5703 104.87 14.2761 104.87 14.9419C104.87 17.6298 106.395 20.1954 109.349 20.1954C112.107 20.1954 114.201 17.9204 114.201 14.7478C114.201 14.3384 114.172 13.982 114.137 13.5997C115.154 13.4079 116.081 13.1456 116.964 12.6104V19.0414C116.964 19.8696 117.532 20.1954 118.068 20.1954C118.807 20.1954 119.188 19.6802 119.724 18.5027C120.166 17.5381 121.375 15.3324 122.107 14.0161C122.676 12.9892 122.993 12.3222 123.253 12.3222C123.313 12.3222 123.372 12.4786 123.372 12.8633V18.3368C123.372 19.8096 124.132 20.1954 124.799 20.1954C125.436 20.1954 125.845 19.8437 126.266 19.2661C127.911 16.8958 129.658 14.0832 130.355 12.8633C130.482 12.6445 130.643 12.4786 130.766 12.4786C130.889 12.4786 130.959 12.548 130.959 12.9586V18.6909C130.959 19.7131 131.273 20.1954 132.065 20.1954C132.796 20.1954 133.272 19.6802 133.56 19.0732C134.607 16.8652 136.161 13.9514 136.825 12.8045C136.987 12.548 137.145 12.3222 137.244 12.3222C137.368 12.3222 137.403 12.4786 137.403 12.8974V18.3368C137.403 19.8096 138.158 20.1954 138.823 20.1954C139.718 20.1954 140.289 19.552 140.856 18.8191C141.903 17.4369 143.43 14.9831 144.349 13.4079C144.663 13.922 145.017 14.5313 145.305 15.2019C144.535 16.13 143.781 17.1828 143.781 18.3015C143.781 19.4873 144.597 20.1954 145.46 20.1954C146.917 20.1954 148.248 18.7826 148.248 16.8346C148.248 16.0688 148.028 15.2666 147.742 14.5008C149.042 13.2174 150.598 11.9693 151.74 11.6822C151.201 12.4492 150.757 13.5385 150.757 14.9419C150.757 17.6298 152.281 20.1954 155.233 20.1954C158.089 20.1954 160.083 17.9204 160.083 14.7478C160.083 13.8267 160.054 13.6997 159.994 13.3174C160.653 13.0256 161.229 12.5798 161.678 12.2234C162.05 11.9352 162.342 11.774 162.56 11.774C162.847 11.774 162.981 11.9987 162.981 12.4139V18.6909C162.981 19.7131 163.294 20.1954 164.087 20.1954C164.814 20.1954 165.325 19.6802 165.612 19.0732C166.652 16.8652 168.178 13.922 168.842 12.8045C169.001 12.548 169.13 12.3516 169.226 12.3516C169.356 12.3516 169.417 12.4492 169.417 12.8633V17.8604C169.417 19.2661 170.046 20.1954 171.446 20.1954C172.91 20.1954 173.638 18.7826 174.91 16.6076C174.97 16.477 175 16.3841 175 16.2911C175 16.0029 174.746 15.8394 174.494 15.8394C174.21 15.8394 174.048 16.13 173.098 17.1828C172.91 17.3828 172.717 17.6604 172.369 17.6604C172.238 17.6604 172.149 17.5063 172.149 17.311V11.7093C172.149 10.2048 171.474 9.59777 170.618 9.59777C169.924 9.59777 169.356 9.88597 168.75 10.7823C167.669 12.3857 166.561 14.6596 165.963 15.8053C165.894 15.9394 165.802 16.13 165.734 16.13C165.667 16.13 165.642 16.0312 165.642 15.8053V11.7093C165.642 10.5283 165.325 9.59777 164.087 9.59777C162.783 9.59777 162.12 10.4953 161.169 11.1658C160.56 11.6187 160.025 11.9352 159.608 12.1269C158.979 10.4953 157.801 9.66835 156.822 9.69305C155.833 9.72716 155.141 10.3389 155.141 11.3635C155.141 12.4139 155.776 13.1456 156.625 13.4715C157.102 13.6632 157.547 13.6997 158.189 13.6997C158.375 13.6997 158.559 13.6997 158.695 13.6632C158.756 13.982 158.724 14.4361 158.724 14.7866C158.724 16.357 157.801 17.9204 156.086 17.9204C154.31 17.9204 153.267 16.1923 153.267 14.2102C153.267 12.7045 153.708 11.4587 154.435 10.5977C154.724 10.2753 154.948 10.0801 154.948 9.78481C154.948 9.63542 154.724 9.59778 154.534 9.59778C153.334 9.59778 151.997 10.1436 151.076 10.6212C149.869 11.2623 148.441 12.3222 147.271 13.3774C146.698 12.094 146.004 10.9741 145.65 10.1071C145.519 9.7554 145.433 9.34721 145.169 9.34721C144.95 9.34721 144.853 9.57071 144.697 10.0118C144.124 11.7093 141.08 16.6735 140.414 17.3451C140.35 17.4369 140.255 17.5381 140.222 17.5381C140.162 17.5381 140.127 17.5063 140.127 17.311V11.7093C140.127 10.2048 139.529 9.59777 138.696 9.59777C137.997 9.59777 137.403 9.88597 136.825 10.7823C135.776 12.3857 134.511 14.7219 133.907 15.8712C133.814 16.0688 133.721 16.13 133.69 16.13C133.654 16.13 133.622 16.0029 133.622 15.8053V11.7093C133.622 10.2048 133.023 9.59777 132.197 9.59777C131.497 9.59777 130.826 9.86009 130.292 10.7823C128.955 13.0574 126.737 16.5452 126.322 17.1169C126.266 17.2158 126.198 17.2805 126.13 17.311C126.074 17.311 126.037 17.2487 126.037 17.0899V11.7093C126.037 10.2048 125.436 9.59777 124.608 9.59777C123.462 9.59777 122.832 10.6588 122.417 11.327C121.846 12.2551 121.089 13.5056 120.484 14.6596C120.074 15.4312 119.724 16.13 119.597 16.13C119.533 16.13 119.533 15.8394 119.533 15.2971V11.0106C121.535 8.76609 122.768 6.01699 122.768 3.00908C122.768 1.27751 122.009 0.322317 120.83 0.322317C118.644 0.322317 116.964 3.77958 116.964 7.87208V11.1999C115.945 11.8411 114.993 12.154 113.817 12.3857C113.219 10.5977 111.948 9.66835 110.939 9.69305C109.949 9.72716 109.253 10.3389 109.253 11.3635C109.253 13.0574 110.898 13.7608 112.361 13.7608H112.777C112.835 14.0832 112.835 14.4361 112.835 14.7866C112.835 16.357 111.918 17.9204 110.203 17.9204C108.425 17.9204 107.383 16.1923 107.383 14.2102C107.383 12.7045 107.827 11.4587 108.551 10.5977C108.836 10.2753 109.06 9.98714 109.06 9.78481C109.06 9.63541 108.836 9.59777 108.648 9.59777C107.44 9.59777 104.777 11.2364 101.6 14.4361C101.321 11.8752 101 9.37662 101 6.94394C101 4.22542 101.539 1.91626 101.667 1.25045C101.729 0.837555 101.765 0.577583 101.765 0.389369C101.765 0.13175 101.635 0 101.292 0C98.7207 0 93.0716 4.13013 93.0716 10.3059C93.0716 12.8304 93.6106 14.6266 94.5626 16.1923C94.208 16.13 93.9292 16.13 93.669 16.13C92.6575 16.13 91.702 16.3841 91.1093 16.5147V15.8712C91.1093 14.5008 90.7873 12.6104 90.2145 11.9693C90.1468 11.9034 90.0523 11.8752 89.9636 11.8752C89.7023 11.8752 89.3896 11.9987 89.042 12.1928C88.657 12.3857 88.2766 12.5798 88.2766 12.7045C88.2766 12.7657 88.2766 12.8304 88.3723 12.9892C88.5963 13.3174 89.2006 13.9514 89.4188 15.4595C88.3373 14.3702 87.1053 13.8867 85.493 13.8867C83.5854 13.8867 83.0114 14.7478 83.0114 15.6171C83.0114 17.2804 85.2013 18.1121 87.9663 18.1121C88.4726 18.1121 89.042 18.0157 89.6101 17.8851C89.6101 18.398 89.6743 18.852 89.6743 19.2332C89.6743 19.7778 89.7665 20.1954 90.12 20.1954C90.6578 20.1954 90.9775 19.1026 91.0381 17.5381C92.0217 17.2805 93.039 17.0593 93.8988 17.0593C94.3095 17.0593 94.8228 17.1169 95.3257 17.2158ZM89.0746 16.8958C88.5403 16.9593 88.2148 16.9593 87.649 16.9593C86.4076 16.9593 85.493 16.477 85.493 15.7794C85.493 15.3324 85.7123 15.0725 86.347 15.0725C87.3643 15.0725 88.1845 15.7794 89.0746 16.8958V16.8958Z" fill="#767DA5"/>
</svg>
