<svg width="176" height="21" viewBox="0 0 176 21" fill="none" xmlns="http://www.w3.org/2000/svg">
<path d="M0 20.4974H40.2524V14.7062H0V20.4974ZM0 6.16633H8.0534V0.380008H0V6.16633ZM16.1019 6.16633H24.1553V0.380008H16.1007L16.1019 6.16633ZM32.2039 6.16633H40.2524V0.380008H32.2039V6.16633ZM19.4331 13.3318H0V7.54553H19.4331V13.3318ZM40.2524 13.3318H20.8193V7.54553H40.2524V13.3318ZM70.6996 19.8199C73.3626 19.7301 73.9506 19.2262 73.9506 18.136V2.8361C73.9506 1.74585 73.3626 1.2153 70.6996 1.12424V0.474707H80.0104V1.12424C77.3486 1.2153 76.7606 1.74585 76.7606 2.8361V18.136C76.7606 19.2262 77.3486 19.7301 80.0104 19.8199V20.4974H70.6996V19.8199ZM86.2755 19.8199C88.9045 19.7301 89.7014 19.2262 89.7014 18.136V1.30028H88.2241C85.7422 1.30028 84.4702 1.31849 83.0233 4.95225L82.3733 4.89033L82.5482 0.474707H99.6282L99.8371 4.89033L99.1872 4.95103C97.8581 1.5516 96.557 1.30028 93.9851 1.30028H92.4762V18.136C92.4762 19.2262 93.278 19.7301 95.907 19.8199V20.4974H86.2731V19.8199H86.2755ZM139.327 19.8199C141.894 19.7301 142.548 19.2262 142.548 18.136V2.8361C142.548 1.74585 141.892 1.2153 139.327 1.12424V0.474707H155.58L155.665 4.88547L155.015 4.91339C153.776 1.33792 152.77 1.33306 149.402 1.33306H145.354V9.6896H147.156C149.491 9.6896 150.525 9.15904 151.294 5.99514H151.884V14.2096H151.294C150.525 11.0457 149.491 10.5431 147.156 10.5431H145.354V19.4788H149.402C153.363 19.4788 154.692 19.5819 155.992 15.8025L156.643 15.8353L156.495 20.4974H139.327V19.8199ZM159.656 19.8199C162.228 19.7301 162.878 19.2262 162.878 18.136V2.8361C162.878 1.74585 162.228 1.2153 159.656 1.12424V0.474707H168.758V1.12424C166.129 1.2153 165.683 1.71793 165.683 2.8361V19.4775H168.64C172.54 19.4775 173.931 18.312 175.35 14.0008L176 14.0287L175.763 20.4974H159.656V19.8199ZM126.788 19.5115H124.601V1.30028H126.76C132.137 1.30028 134.799 3.63375 134.799 10.3112C134.799 16.8648 133.081 19.5115 126.788 19.5115ZM127.082 0.474707H119.062V1.15338C121.213 1.29543 121.796 1.82112 121.796 2.8361V18.136C121.796 19.1509 121.213 19.6536 119.062 19.7871V20.4974H127.353C134.799 20.4974 138.016 15.5038 138.016 10.1303C138.016 4.52125 134.324 0.474707 127.082 0.474707ZM104.27 12.051L107.521 3.69446H107.64L110.534 12.051H104.27ZM115.351 17.1307L109.087 0H108.086L101.935 15.3849C100.754 18.3108 99.9282 19.4023 97.9444 19.877V20.4974H104.598V19.877C101.964 19.435 101.67 18.7855 102.913 15.5658L103.948 12.8766H110.833L112.428 17.4864C113.016 19.1412 112.603 19.7301 109.913 19.877V20.4974H118.241V19.7859C116.461 19.4581 115.973 18.8001 115.351 17.1307ZM61.4848 0.802509C57.9957 0.802509 54.7459 3.8705 54.7459 10.605C54.7459 17.0117 58.6456 19.6681 62.0436 19.6681C63.0793 19.6564 64.0964 19.3909 65.0055 18.8948C65.9215 18.3921 66.7561 17.705 67.3502 16.8369C67.7669 16.2299 68.067 15.6131 68.3318 14.8689L68.9878 15.068C68.655 16.1352 68.1945 17.1781 67.5154 18.0741C66.8641 18.9385 66.0277 19.6466 65.0674 20.1465C64.793 20.2848 64.5107 20.4068 64.2219 20.5119C63.9019 20.6287 63.5738 20.722 63.2403 20.7912C62.5851 20.9293 61.9174 20.9993 61.2479 21C55.5428 21 51.5228 16.894 51.5228 10.724C51.5228 4.60987 56.0458 0.00121407 61.8067 0.00121407C63.9048 0.00121407 65.5886 0.564549 66.8326 1.24322L67.8665 1.22865L68.0803 3.1639L68.4837 6.52691H67.8665C66.5058 2.86524 64.4685 0.802509 61.4836 0.802509" fill="#767DA5"/>
</svg>
