<svg width="175" height="44" viewBox="0 0 175 44" fill="none" xmlns="http://www.w3.org/2000/svg">
<path d="M47.3091 0H0V7.2672H44.9475V7.27276C46.2473 7.27276 47.2924 8.32346 47.2924 9.6163V34.0328L47.2827 34.0495C47.2716 35.3423 46.2223 36.3805 44.9336 36.3805H9.61352C8.31928 36.3805 7.26441 35.334 7.26441 34.0328V24.1646C7.26441 22.869 8.31928 21.8211 9.61352 21.8211H40.0058V14.5567H7.24632C3.24254 14.5567 0 17.795 0 21.7974V36.3986C0 40.3996 3.24254 43.6463 7.24632 43.6463H47.3091C51.3157 43.6463 54.5555 40.3996 54.5555 36.3986V7.24632C54.5555 3.24394 51.3157 0 47.3091 0Z" fill="#767DA5"/>
<path d="M81.5896 0.0139771L87.2717 17.013C87.9522 19.0851 88.4254 19.5667 89.6139 19.5667H90.7731V22.5573H78.3624V19.5667H79.3769C80.3998 19.5667 81.2542 19.4289 81.2542 19.0559C81.2542 18.7136 81.2153 18.3406 81.0831 17.8327L80.3691 15.382H73.429L73.024 16.7416C72.6469 17.9315 72.5133 18.4408 72.5133 18.9168C72.5133 19.4665 73.7018 19.5681 74.6244 19.5681H75.6041V22.5587H65.6121V19.5667H66.7658C67.9556 19.5667 68.4302 19.0851 69.1149 17.013L74.7928 0.0139771H81.5896ZM74.4073 12.3927H79.3463L76.897 5.0768H76.833L74.4073 12.3927Z" fill="#767DA5"/>
<path d="M92.7424 4.19589C92.7424 3.24121 92.5044 2.73465 91.5177 2.73465H89.9563V0.0139771H98.3897V8.47938C99.6435 7.04877 101.244 6.13306 102.772 6.13306C107.872 6.13306 109.772 10.1146 109.772 14.5985C109.772 19.0851 107.872 23.0597 102.772 23.0597C100.632 23.0597 98.7278 22.3166 97.5338 20.4448L96.5499 22.5573H92.741V4.19589H92.7424ZM98.3897 14.5985C98.3897 18.0665 99.169 20.1428 101.073 20.1428C102.981 20.1428 103.76 18.0665 103.76 14.5985C103.76 11.1305 102.981 9.06109 101.073 9.06109C99.169 9.06109 98.3897 11.1305 98.3897 14.5985Z" fill="#767DA5"/>
<path d="M111.819 4.19589C111.819 3.24121 111.577 2.73465 110.597 2.73465H109.032V0.0139771H117.466V8.47938C118.723 7.04877 120.322 6.13306 121.851 6.13306C126.949 6.13306 128.856 10.1146 128.856 14.5985C128.856 19.0851 126.949 23.0597 121.851 23.0597C119.706 23.0597 117.806 22.3166 116.611 20.4448L115.627 22.5573H111.819V4.19589ZM117.465 14.5985C117.465 18.0665 118.248 20.1428 120.148 20.1428C122.055 20.1428 122.835 18.0665 122.835 14.5985C122.835 11.1305 122.055 9.06109 120.148 9.06109C118.25 9.06109 117.465 11.1305 117.465 14.5985Z" fill="#767DA5"/>
<path d="M148.033 14.5985C148.033 20.0385 144.325 23.0597 139.26 23.0597C134.19 23.0597 130.482 20.0385 130.482 14.5985C130.482 9.15714 134.19 6.13309 139.26 6.13309C144.325 6.13309 148.033 9.15714 148.033 14.5985ZM136.504 14.5985C136.504 18.6078 137.217 20.3432 139.26 20.3432C141.3 20.3432 142.014 18.6078 142.014 14.5985C142.014 10.5864 141.3 8.85376 139.26 8.85376C137.217 8.85376 136.504 10.5864 136.504 14.5985Z" fill="#767DA5"/>
<path d="M172.277 14.8726V17.5265C172.277 19.0838 171.938 20.0078 170.644 20.0078C169.861 20.0078 169.489 19.4275 169.489 18.7122V9.36032H173.668V6.64521H169.489V0.32016H166.123C165.847 3.14103 164.966 6.64521 161.568 6.64521H156.263V0.32016H152.898C152.621 3.14103 151.74 6.64521 148.34 6.64521V9.36032H150.621V17.8981C150.621 21.3661 152.557 23.0597 156.057 23.0597C160.141 23.0597 161.768 21.2297 161.768 17.8981V14.8713H159.056V17.5251C159.056 19.0824 158.712 20.0064 157.419 20.0064C156.636 20.0064 156.264 19.4261 156.264 18.7108V9.35893H163.85V17.8967C163.85 21.3647 165.783 23.0583 169.284 23.0583C173.368 23.0583 175 21.2283 175 17.8967V14.8699H172.277" fill="#767DA5"/>
</svg>
