<svg width="56px" height="56px" viewBox="0 0 56 56" fill="none" xmlns="http://www.w3.org/2000/svg">
  <g filter="url(#filter0_j)">
    <path d="M28 34C30.2091 34 32 32.2091 32 30C32 27.7909 30.2091 26 28 26C25.7909 26 24 27.7909 24 30C24 32.2091 25.7909 34 28 34Z" fill="url(#paint8_linear)"></path>
    <path fill-rule="evenodd" clip-rule="evenodd" d="M4.66667 48C3.19391 48 2 46.8061 2 45.3333L2 9.77778C2 8.79594 2.79594 8 3.77778 8L16.1111 8C16.6707 8 17.1976 8.26346 17.5333 8.71111L19.4667 11.2889C19.8024 11.7365 20.3293 12 20.8889 12L51.3333 12C52.8061 12 54 13.1939 54 14.6667V45.3333C54 46.8061 52.8061 48 51.3333 48L4.66667 48ZM14 30C16 33 22 37 28 37C34 37 40 33 42 30C40 27 34 23 28 23C22 23 16 27 14 30Z" fill="url(#paint9_linear)"></path>
  </g>
  <defs>
    <filter id="filter0_j" x="1" y="8" width="53" height="41" filterUnits="userSpaceOnUse" color-interpolation-filters="sRGB">
      <feFlood flood-opacity="0" result="BackgroundImageFix"></feFlood>
      <feBlend mode="normal" in="SourceGraphic" in2="BackgroundImageFix" result="shape"></feBlend>
      <feColorMatrix in="SourceAlpha" type="matrix" values="0 0 0 0 0 0 0 0 0 0 0 0 0 0 0 0 0 0 127 0" result="hardAlpha"></feColorMatrix>
      <feOffset dx="-1" dy="1"></feOffset>
      <feGaussianBlur stdDeviation="1"></feGaussianBlur>
      <feComposite in2="hardAlpha" operator="arithmetic" k2="-1" k3="1"></feComposite>
      <feColorMatrix type="matrix" values="0 0 0 0 1 0 0 0 0 1 0 0 0 0 1 0 0 0 0.18 0"></feColorMatrix>
      <feBlend mode="normal" in2="shape" result="effect1_innerShadow"></feBlend>
    </filter>
    <linearGradient id="paint8_linear" x1="28" y1="8" x2="28" y2="48" gradientUnits="userSpaceOnUse">
      <stop stop-color="#50FAAB"></stop>
      <stop offset="1" stop-color="#3A8563"></stop>
    </linearGradient>
    <linearGradient id="paint9_linear" x1="28" y1="8" x2="28" y2="48" gradientUnits="userSpaceOnUse">
      <stop stop-color="#50FAAB"></stop>
      <stop offset="1" stop-color="#3A8563"></stop>
    </linearGradient>
  </defs>
</svg>
