<svg width="150" height="47" viewBox="0 0 150 47" fill="none" xmlns="http://www.w3.org/2000/svg">
<path d="M19.8406 1.02831H20.5867V25.499H15.861C15.861 25.499 15.861 15.9518 15.861 14.6508C14.6173 14.6508 5.96939 14.6508 4.7449 14.6508C4.7449 15.9518 4.7449 25.499 4.7449 25.499H0V1.02831H4.7449C4.7449 1.02831 4.7449 9.17882 4.7449 10.4607C5.98852 10.4607 14.6173 10.4607 15.861 10.4607C15.861 9.19795 15.861 1.02831 15.861 1.02831H19.8406ZM44.9235 6.80637C45.9184 8.71963 46.4349 10.9008 46.4349 13.3115C46.4349 15.7413 45.8992 17.9607 44.8469 19.8931C43.7755 21.8446 42.2449 23.3561 40.2934 24.3702C38.361 25.365 36.2564 25.8625 34.037 25.8625C31.6263 25.8625 29.426 25.3076 27.5128 24.1979C25.5804 23.0883 24.1071 21.5576 23.1122 19.6252C22.1365 17.712 21.639 15.6839 21.639 13.5602C21.639 9.56147 22.8061 6.38544 25.1212 4.08953C27.4362 1.79361 30.4401 0.626529 34.0561 0.626529C36.4286 0.626529 38.5906 1.16223 40.5038 2.23366C42.4171 3.34335 43.9094 4.87397 44.9235 6.80637ZM40.676 8.73877C40.0638 7.47601 39.2028 6.51938 38.0166 5.8306C36.8495 5.14183 35.5102 4.79743 34.037 4.79743C31.9133 4.79743 30.1531 5.44795 28.6225 6.8255C27.1492 8.14565 26.4031 10.4416 26.4031 13.6559C26.4031 16.2005 27.1301 18.2286 28.5651 19.6635C30.0191 21.1176 31.7985 21.8255 33.9987 21.8255C36.2372 21.8255 38.0357 21.1176 39.4707 19.6444C40.8865 18.1903 41.6135 16.0666 41.6135 13.3306C41.6135 11.5513 41.3074 10.0207 40.676 8.73877ZM52.1747 21.3089C52.1747 19.9122 52.1747 1.02831 52.1747 1.02831H47.449V25.499H64.1709V21.2898C64.1518 21.309 53.4949 21.309 52.1747 21.309V21.3089ZM85.0638 6.8064C86.0587 8.71967 86.5753 10.9008 86.5753 13.3115C86.5753 15.7413 86.0395 17.9607 84.9872 19.8931C83.9158 21.8447 82.3852 23.3561 80.4337 24.3702C78.5013 25.3651 76.3967 25.8625 74.1773 25.8625C71.7666 25.8625 69.5663 25.3077 67.6531 24.198C65.7207 23.0883 64.2474 21.5577 63.2525 19.6253C62.2768 17.712 61.7793 15.6839 61.7793 13.5602C61.7793 9.5615 62.9464 6.38548 65.2615 4.08956C67.5574 1.79364 70.5804 0.626551 74.1964 0.626551C76.5689 0.626551 78.7309 1.16227 80.6441 2.2337C82.5574 3.34339 84.0498 4.87401 85.0638 6.8064ZM80.8163 8.7388C80.2041 7.47604 79.3431 6.51941 78.1569 5.83064C76.9898 5.14186 75.6505 4.79747 74.1773 4.79747C72.0536 4.79747 70.2934 5.44799 68.7628 6.82554C67.2895 8.14569 66.5434 10.4416 66.5434 13.6559C66.5434 16.2388 67.2513 18.2095 68.7054 19.6635C70.1594 21.1176 71.9196 21.8255 74.1199 21.8255C76.3584 21.8255 78.1569 21.1176 79.5918 19.6444C81.0077 18.1903 81.7347 16.0666 81.7347 13.3306C81.7539 11.5513 81.4477 10.0207 80.8163 8.7388ZM99.949 12.2975V16.4875C99.949 16.4875 105.899 16.4875 107.105 16.4875C107.105 17.3868 107.105 19.1087 107.105 19.6444C106.492 20.1036 105.67 20.5436 104.56 20.9646C103.316 21.4429 102.034 21.6725 100.733 21.6725C99.2411 21.6725 97.8253 21.3664 96.5051 20.735C95.2041 20.1227 94.2666 19.2235 93.5778 17.9799C92.889 16.7171 92.5446 15.11 92.5446 13.1967C92.5446 11.647 92.8316 10.1929 93.4056 8.87273C93.7309 8.12655 94.2092 7.43778 94.8023 6.8064C95.3763 6.19416 96.1607 5.6967 97.1365 5.31406C98.1122 4.9314 99.3176 4.74008 100.676 4.74008C101.805 4.74008 102.838 4.9314 103.756 5.27579C104.636 5.62018 105.306 6.07936 105.784 6.65334C106.263 7.24645 106.684 8.08829 107.009 9.15971L107.219 9.84849L111.543 8.70053L111.333 7.97349C110.893 6.32808 110.223 4.96967 109.343 3.93651C108.463 2.88421 107.219 2.04237 105.689 1.46839C104.177 0.89441 102.494 0.607418 100.657 0.607418C98.1314 0.607418 95.8546 1.10486 93.9031 2.09977C91.9133 3.1138 90.3444 4.66353 89.2921 6.74899C88.2589 8.77706 87.7232 10.9964 87.7232 13.3306C87.7232 15.7031 88.2589 17.8842 89.3112 19.8166C90.3827 21.7681 91.9707 23.2796 94.0561 24.3128C96.1033 25.3268 98.3992 25.8434 100.906 25.8434C102.761 25.8434 104.579 25.5373 106.339 24.9059C108.08 24.2745 109.802 23.337 111.429 22.1125L111.735 21.8829V12.2974H99.949V12.2975ZM117.666 1.02831H113.686V25.499H118.412V1.02831H117.666ZM138.31 15.7987L138.138 16.5449C137.736 18.286 136.971 19.6061 135.861 20.4862C134.732 21.3663 133.393 21.8064 131.747 21.8064C130.408 21.8064 129.126 21.4811 127.978 20.8306C126.849 20.1801 126.027 19.2426 125.491 17.9416C124.936 16.5832 124.649 14.9569 124.649 13.101C124.649 11.6852 124.898 10.2885 125.376 8.94923C125.835 7.66734 126.601 6.67244 127.73 5.92627C128.858 5.1801 130.293 4.79743 132.015 4.79743C133.469 4.79743 134.694 5.14183 135.651 5.79235C136.588 6.44285 137.315 7.55255 137.832 9.06403L138.042 9.6954L142.653 8.68137L142.423 7.89693C141.696 5.60101 140.434 3.80255 138.635 2.53979C136.856 1.27704 134.636 0.645651 132.054 0.645651C129.796 0.645651 127.691 1.14311 125.797 2.11888C123.884 3.11377 122.392 4.58699 121.358 6.48112C120.325 8.35612 119.809 10.5946 119.809 13.101C119.809 15.3778 120.268 17.5589 121.167 19.5678C122.085 21.615 123.444 23.1839 125.223 24.2745C126.983 25.3459 129.26 25.9008 132.015 25.9008C134.713 25.9008 137.028 25.1928 138.903 23.7962C140.797 22.3995 142.117 20.3332 142.825 17.6929L143.036 16.9467L138.31 15.7987ZM0 46.8127H2.8699V29.402H0V46.8127ZM5.16582 46.8127H8.22704V29.402H5.16582V46.8127ZM10.523 46.8127H13.7755V29.402H10.523V46.8127ZM15.6888 46.8127H19.324V29.402H15.6888V46.8127ZM21.0459 46.8127H24.8724V29.402H21.0459V46.8127ZM26.2117 46.8127H30.2296V29.402H26.2117V46.8127ZM31.5689 46.8127H35.9694V29.402H31.5689V46.8127ZM36.926 46.8127H41.3265V29.402H36.926V46.8127ZM42.0918 46.8127H46.6837V29.402H42.0918V46.8127ZM150 3.59208C150 1.46835 148.393 0.0525513 146.537 0.0525513C144.662 0.0525513 143.055 1.46835 143.055 3.59208C143.055 5.60101 144.509 7.13162 146.537 7.13162C148.393 7.11246 150 5.7158 150 3.59208ZM149.254 3.59208C149.254 5.31402 148.068 6.51938 146.556 6.51938C144.872 6.51938 143.839 5.19922 143.839 3.59208C143.839 1.87014 145.026 0.664784 146.556 0.664784C148.048 0.664784 149.254 1.87014 149.254 3.59208ZM145.848 3.93647H146.46L147.475 5.60101H148.202L147.111 3.87907C147.704 3.82166 148.125 3.51555 148.125 2.80765C148.125 2.02321 147.647 1.67882 146.69 1.67882H145.198V5.60101H145.848V3.93647ZM145.848 3.38163V2.23366H146.614C146.996 2.23366 147.455 2.29109 147.455 2.76939C147.455 3.34337 147.034 3.38163 146.556 3.38163H145.848ZM87.6084 37.4186C87.4936 37.2655 87.3406 37.1508 87.1684 37.0551C86.9962 36.9594 86.8048 36.9212 86.5753 36.9212C86.3457 36.9212 86.1543 36.9594 85.9821 37.0551C85.8099 37.1508 85.6569 37.2655 85.5421 37.4186C85.4273 37.5717 85.3125 37.7439 85.2551 37.9352C85.1786 38.1265 85.1403 38.3178 85.1212 38.5092H88.0102C88.0102 38.3178 87.9719 38.1074 87.8954 37.9352C87.838 37.7439 87.7423 37.5717 87.6084 37.4186ZM101.537 37.4186C101.422 37.2655 101.269 37.1508 101.097 37.0551C100.925 36.9594 100.733 36.9212 100.504 36.9212C100.274 36.9212 100.083 36.9594 99.9107 37.0551C99.7385 37.1508 99.5855 37.2655 99.4707 37.4186C99.3559 37.5717 99.2411 37.7439 99.1837 37.9352C99.1071 38.1265 99.0689 38.3178 99.0497 38.5092H101.958C101.958 38.3178 101.92 38.1074 101.843 37.9352C101.767 37.7439 101.671 37.5717 101.537 37.4186ZM68.7628 37.4186C68.648 37.2655 68.4949 37.1508 68.3227 37.0551C68.1505 36.9594 67.9592 36.9212 67.7296 36.9212C67.5 36.9212 67.3087 36.9594 67.1365 37.0551C66.9643 37.1508 66.8112 37.2655 66.6964 37.4186C66.5816 37.5717 66.4668 37.7439 66.4094 37.9352C66.3329 38.1265 66.2946 38.3178 66.2755 38.5092H69.1837C69.1837 38.3178 69.1454 38.1074 69.0689 37.9352C68.9923 37.7439 68.8967 37.5717 68.7628 37.4186ZM108.827 37.5334C108.693 37.3612 108.54 37.2082 108.329 37.0934C108.138 36.9786 107.908 36.9212 107.64 36.9212C107.372 36.9212 107.143 36.9786 106.952 37.0934C106.76 37.2082 106.588 37.3421 106.454 37.5334C106.32 37.7056 106.224 37.9161 106.148 38.1457C106.091 38.3752 106.052 38.6048 106.052 38.8536C106.052 39.0832 106.091 39.3319 106.148 39.5615C106.205 39.7911 106.32 40.0015 106.454 40.1737C106.588 40.3459 106.741 40.499 106.952 40.6138C107.143 40.7286 107.372 40.786 107.64 40.786C107.908 40.786 108.138 40.7286 108.329 40.6138C108.52 40.499 108.693 40.365 108.827 40.1737C108.96 40.0015 109.056 39.7911 109.133 39.5615C109.19 39.3319 109.228 39.1023 109.228 38.8536C109.228 38.624 109.19 38.3752 109.133 38.1457C109.056 37.9161 108.96 37.7247 108.827 37.5334ZM131.212 37.4186C131.097 37.2655 130.944 37.1508 130.772 37.0551C130.599 36.9594 130.408 36.9212 130.179 36.9212C129.949 36.9212 129.758 36.9594 129.585 37.0551C129.413 37.1508 129.26 37.2655 129.145 37.4186C129.031 37.5717 128.916 37.7439 128.858 37.9352C128.782 38.1265 128.744 38.3178 128.725 38.5092H131.633C131.633 38.3178 131.594 38.1074 131.518 37.9352C131.422 37.7439 131.327 37.5717 131.212 37.4186ZM141.964 29.402V46.8127H52.3087H47.449V29.402H52.3087H141.964ZM60.6888 34.7974H55.6378V35.3523H57.838V41.1495H58.4885V35.3523H60.6888V34.7974ZM64.8788 38.2031C64.8788 37.9352 64.8597 37.6865 64.8023 37.4569C64.7449 37.2273 64.6492 37.0551 64.5153 36.902C64.3814 36.749 64.2092 36.6342 63.9796 36.5385C63.7691 36.462 63.4821 36.4046 63.176 36.4046C62.8508 36.4046 62.5446 36.4811 62.2768 36.6533C62.0281 36.8064 61.8367 37.0168 61.7219 37.2655V34.7783H61.1097V41.1495H61.7219V38.4709C61.7219 38.2413 61.7602 38.05 61.8367 37.8587C61.8941 37.6673 61.9898 37.5143 62.1237 37.3803C62.2385 37.2464 62.3916 37.1316 62.5638 37.0551C62.736 36.9786 62.9273 36.9403 63.1569 36.9403C63.3673 36.9403 63.5587 36.9785 63.7117 37.036C63.8648 37.1125 63.9796 37.2082 64.0561 37.3229C64.1518 37.4377 64.2092 37.5908 64.2283 37.7439C64.2666 37.9161 64.2857 38.0883 64.2857 38.2796V41.1495H64.898V38.2031H64.8788ZM69.6811 38.0691C69.6046 37.763 69.4898 37.476 69.3367 37.2464C69.1645 36.9977 68.9541 36.8064 68.7054 36.6533C68.4375 36.5002 68.1314 36.4237 67.7487 36.4237C67.3852 36.4237 67.0599 36.5002 66.8112 36.6342C66.5434 36.7681 66.3329 36.9594 66.1607 37.189C65.9885 37.4186 65.8737 37.6865 65.7972 37.9735C65.7207 38.2605 65.6824 38.5666 65.6824 38.8727C65.6824 39.198 65.7207 39.5041 65.7972 39.8102C65.8737 40.0972 66.0077 40.365 66.1607 40.5946C66.3329 40.8242 66.5434 40.9964 66.8112 41.1303C67.0791 41.2643 67.3852 41.3217 67.7487 41.3217C68.3227 41.3217 68.7819 41.1686 69.1071 40.8816C69.4324 40.5946 69.6429 40.1928 69.7577 39.6571V39.6189H69.1454V39.638C69.0497 39.9824 68.8967 40.2694 68.6671 40.4799C68.4375 40.6903 68.1314 40.786 67.7296 40.786C67.4617 40.786 67.2513 40.7286 67.06 40.6138C66.8686 40.499 66.7156 40.3651 66.6008 40.1929C66.486 40.0207 66.3903 39.8294 66.3329 39.6189C66.2755 39.4085 66.2564 39.2171 66.2564 39.0258H69.7577V39.0066C69.7768 38.6814 69.7385 38.3753 69.6811 38.0691V38.0691ZM77.6977 39.4658C77.6977 39.198 77.6594 38.9875 77.5638 38.7962C77.4681 38.6048 77.3533 38.4518 77.2002 38.3179C77.0472 38.1839 76.875 38.0883 76.6645 37.9926C76.4732 37.8969 76.2436 37.8395 76.0332 37.7821L74.5025 37.3995C74.3686 37.3612 74.2538 37.3229 74.139 37.2847C74.0242 37.2464 73.9286 37.1699 73.8329 37.0934C73.7564 37.0168 73.6798 36.9212 73.6225 36.8255C73.565 36.7107 73.5459 36.5959 73.5459 36.4429C73.5459 36.2133 73.5842 36.0219 73.6798 35.8689C73.7755 35.7158 73.8903 35.5819 74.0242 35.4862C74.1582 35.3906 74.3304 35.314 74.5217 35.2758C74.713 35.2375 74.9043 35.2183 75.1148 35.2183C75.3444 35.2183 75.5548 35.2566 75.7462 35.314C75.9375 35.3714 76.1288 35.4671 76.2819 35.5819C76.435 35.6967 76.5689 35.8497 76.6645 36.0219C76.7602 36.1941 76.8176 36.4046 76.8176 36.6533V36.6725H77.4681V36.6533C77.4681 36.328 77.4107 36.041 77.2768 35.7923C77.1429 35.5436 76.9707 35.3331 76.7602 35.1609C76.5497 34.9888 76.301 34.874 76.014 34.7783C75.727 34.7018 75.4209 34.6444 75.1148 34.6444C74.6748 34.6444 74.3112 34.7018 74.0242 34.8357C73.7372 34.9696 73.5077 35.1227 73.3546 35.314C73.1824 35.5053 73.0867 35.6967 73.0102 35.9071C72.9528 36.1176 72.9145 36.2898 72.9145 36.462C72.9145 36.7107 72.9528 36.9212 73.0293 37.0933C73.1059 37.2655 73.2207 37.4186 73.3546 37.5334C73.4885 37.6482 73.6416 37.7439 73.8138 37.8204C73.986 37.8969 74.1773 37.9543 74.3495 37.9926L75.7462 38.337C75.8992 38.3752 76.0523 38.4135 76.1862 38.4709C76.3393 38.5283 76.4732 38.6048 76.6071 38.6814C76.7219 38.777 76.8367 38.8727 76.9133 39.0066C76.9898 39.1405 77.0281 39.2745 77.0281 39.4467C77.0281 39.6763 76.9706 39.8676 76.8559 40.0206C76.7411 40.1737 76.6071 40.3076 76.4349 40.4033C76.2628 40.499 76.0906 40.5755 75.8992 40.6329C75.7079 40.6711 75.5357 40.7094 75.3635 40.7094C75.0765 40.7094 74.8087 40.6902 74.56 40.6329C74.3112 40.5755 74.1008 40.4798 73.9094 40.365C73.7372 40.2311 73.5842 40.0589 73.4885 39.8484C73.3929 39.638 73.3355 39.3701 73.3355 39.0449V39.0257H72.685V39.0449C72.6658 39.4275 72.7232 39.7719 72.838 40.0589C72.9528 40.3459 73.1441 40.5755 73.3546 40.7477C73.5842 40.9199 73.852 41.0538 74.1773 41.1495C74.5025 41.226 74.8469 41.2834 75.2105 41.2834C75.574 41.2834 75.8992 41.2451 76.1671 41.1877C76.4349 41.1112 76.6645 41.0347 76.8367 40.9199C77.0089 40.8051 77.162 40.6903 77.2768 40.5564C77.3724 40.4224 77.4681 40.2885 77.5255 40.1546C77.5829 40.0206 77.6212 39.8867 77.6403 39.7719C77.6977 39.638 77.6977 39.5423 77.6977 39.4658L77.6977 39.4658ZM82.3661 39.485H81.7538V39.5041C81.7347 39.6955 81.6964 39.8677 81.6199 40.0207C81.5434 40.1738 81.4477 40.3077 81.3329 40.4225C81.2181 40.5373 81.0842 40.633 80.9311 40.6904C80.7781 40.7478 80.625 40.786 80.4528 40.786C80.1849 40.786 79.9554 40.7286 79.764 40.6138C79.5727 40.499 79.4005 40.3651 79.2666 40.1738C79.1327 40.0016 79.037 39.7911 78.9605 39.5615C78.903 39.3319 78.8648 39.1024 78.8648 38.8536C78.8648 38.624 78.903 38.3753 78.9605 38.1457C79.0179 37.9161 79.1327 37.7057 79.2666 37.5335C79.4005 37.3613 79.5536 37.2082 79.764 37.0934C79.9554 36.9786 80.1849 36.9212 80.4528 36.9212C80.8163 36.9212 81.1033 37.0169 81.2946 37.2082C81.5051 37.3995 81.639 37.6674 81.7156 37.9927V38.0118H82.3278V37.9927C82.2704 37.4569 82.06 37.0552 81.7156 36.8064C81.3712 36.5386 80.9503 36.4046 80.4528 36.4046C80.1084 36.4046 79.7832 36.4621 79.5153 36.596C79.2475 36.7299 79.0179 36.9021 78.8265 37.1317C78.6352 37.3421 78.5013 37.61 78.4056 37.897C78.31 38.184 78.2717 38.5092 78.2717 38.8345C78.2717 39.1597 78.3291 39.485 78.4056 39.772C78.5013 40.059 78.6352 40.3268 78.8265 40.5373C79.0179 40.7478 79.2475 40.9391 79.5153 41.0539C79.7832 41.1878 80.1084 41.2452 80.4528 41.2452C80.9694 41.2452 81.4094 41.0922 81.7347 40.7669C82.06 40.4608 82.2704 40.0207 82.3469 39.4659L82.3661 39.485ZM83.7054 36.5577H83.0931V41.1686H83.7054V36.5577ZM83.7054 34.7975H83.0931V35.735H83.7054V34.7975ZM88.5268 38.0692C88.4502 37.763 88.3355 37.476 88.1824 37.2464C88.0102 36.9977 87.7997 36.8064 87.551 36.6533C87.2832 36.5003 86.977 36.4237 86.5944 36.4237C86.2309 36.4237 85.9056 36.5003 85.6569 36.6342C85.389 36.7681 85.1786 36.9595 85.0064 37.1891C84.8342 37.4186 84.7194 37.6865 84.6429 37.9735C84.5663 38.2605 84.5281 38.5666 84.5281 38.8727C84.5281 39.198 84.5663 39.5041 84.6429 39.8102C84.7194 40.0972 84.8533 40.3651 85.0064 40.5947C85.1786 40.8243 85.389 40.9965 85.6569 41.1304C85.9247 41.2643 86.2309 41.3217 86.5944 41.3217C87.1684 41.3217 87.6276 41.1686 87.9528 40.8817C88.2781 40.5947 88.4885 40.1929 88.6033 39.6572V39.6189H87.9911V39.6381C87.8954 39.9825 87.7423 40.2694 87.5128 40.4799C87.2832 40.6904 86.977 40.786 86.5753 40.786C86.3074 40.786 86.0969 40.7286 85.9056 40.6138C85.7143 40.499 85.5612 40.3651 85.4464 40.1929C85.3316 40.0207 85.236 39.8294 85.1786 39.6189C85.1212 39.4085 85.102 39.2171 85.102 39.0258H88.6033V39.0067C88.6225 38.6814 88.5842 38.3753 88.5268 38.0692V38.0692ZM93.0612 38.2031C93.0612 37.9352 93.0421 37.6865 92.9847 37.4569C92.9273 37.2273 92.8316 37.0551 92.6977 36.9021C92.5638 36.749 92.3916 36.6342 92.162 36.5385C91.9515 36.462 91.6645 36.4046 91.3584 36.4046C91.0332 36.4046 90.727 36.4811 90.4592 36.6533C90.2105 36.8064 90.0191 37.0169 89.9043 37.2656V36.5385H89.2921V41.1495H89.9043V38.4709C89.9043 38.2413 89.9426 38.05 90.0191 37.8587C90.0766 37.6674 90.1722 37.5143 90.3061 37.3804C90.4209 37.2465 90.574 37.1317 90.7462 37.0551C90.9184 36.9786 91.1097 36.9403 91.3393 36.9403C91.5498 36.9403 91.7411 36.9786 91.8941 37.036C92.0472 37.1125 92.162 37.2082 92.2385 37.323C92.3342 37.4378 92.3916 37.5908 92.4107 37.7439C92.449 37.9161 92.4681 38.0883 92.4681 38.2796V41.1495H93.0804V38.2031H93.0612ZM97.9209 39.485H97.3087V39.5041C97.2895 39.6955 97.2513 39.8677 97.1747 40.0207C97.0982 40.1738 97.0026 40.3077 96.8878 40.4225C96.773 40.5373 96.639 40.633 96.486 40.6904C96.3329 40.7478 96.1799 40.786 96.0077 40.786C95.7398 40.786 95.5102 40.7286 95.3189 40.6138C95.1276 40.499 94.9554 40.3651 94.8214 40.1738C94.6875 40.0016 94.5918 39.7911 94.5153 39.5615C94.4579 39.3319 94.4196 39.1024 94.4196 38.8536C94.4196 38.624 94.4579 38.3753 94.5153 38.1457C94.5727 37.9161 94.6875 37.7057 94.8214 37.5335C94.9554 37.3613 95.1084 37.2082 95.3189 37.0934C95.5102 36.9786 95.7398 36.9212 96.0077 36.9212C96.3712 36.9212 96.6582 37.0169 96.8495 37.2082C97.06 37.3995 97.1939 37.6674 97.2704 37.9927V38.0118H97.8827V37.9927C97.8252 37.4569 97.6148 37.0552 97.2704 36.8064C96.926 36.5386 96.5051 36.4046 96.0077 36.4046C95.6633 36.4046 95.338 36.4621 95.0702 36.596C94.8023 36.7299 94.5727 36.9021 94.3814 37.1317C94.1901 37.3421 94.0561 37.61 93.9605 37.897C93.8648 38.184 93.8265 38.5092 93.8265 38.8345C93.8265 39.1597 93.8648 39.485 93.9605 39.772C94.0561 40.059 94.1901 40.3268 94.3814 40.5373C94.5727 40.7478 94.8023 40.9391 95.0702 41.0539C95.338 41.1878 95.6633 41.2452 96.0077 41.2452C96.5242 41.2452 96.9643 41.0922 97.2895 40.7669C97.6148 40.4608 97.8253 40.0207 97.9018 39.4659L97.9209 39.485ZM102.455 38.0692C102.379 37.763 102.264 37.476 102.111 37.2464C101.939 36.9977 101.728 36.8064 101.48 36.6533C101.212 36.5003 100.906 36.4237 100.523 36.4237C100.159 36.4237 99.8342 36.5003 99.5855 36.6342C99.3176 36.7681 99.1071 36.9595 98.935 37.1891C98.7628 37.4186 98.648 37.6865 98.5714 37.9735C98.4949 38.2605 98.4566 38.5666 98.4566 38.8727C98.4566 39.198 98.4949 39.5041 98.5714 39.8102C98.648 40.0972 98.7819 40.3651 98.935 40.5947C99.1071 40.8243 99.3176 40.9965 99.5855 41.1304C99.8533 41.2643 100.159 41.3217 100.523 41.3217C101.097 41.3217 101.556 41.1686 101.881 40.8817C102.207 40.5947 102.417 40.1929 102.532 39.6572V39.6189H101.92V39.6381C101.824 39.9825 101.671 40.2694 101.441 40.4799C101.212 40.6904 100.906 40.786 100.504 40.786C100.236 40.786 100.026 40.7286 99.8342 40.6138C99.6429 40.499 99.4898 40.3651 99.375 40.1929C99.2602 40.0207 99.1645 39.8294 99.1071 39.6189C99.0497 39.4085 99.0306 39.2171 99.0306 39.0258H102.532V39.0067C102.551 38.7006 102.513 38.3753 102.455 38.0692V38.0692ZM109.841 38.8536C109.841 38.5283 109.783 38.2031 109.707 37.9161C109.611 37.6291 109.477 37.3613 109.286 37.1508C109.094 36.9403 108.865 36.749 108.597 36.6151C108.329 36.4812 108.004 36.4237 107.659 36.4237C107.315 36.4237 106.99 36.4812 106.722 36.6151C106.454 36.749 106.224 36.9212 106.033 37.1508C105.842 37.3613 105.708 37.6291 105.612 37.9161C105.517 38.2031 105.478 38.5283 105.478 38.8536C105.478 39.1788 105.517 39.5041 105.612 39.7911C105.708 40.0781 105.842 40.3459 106.033 40.5564C106.224 40.7669 106.454 40.9582 106.722 41.073C106.99 41.2069 107.315 41.2643 107.659 41.2643C108.004 41.2643 108.329 41.2069 108.597 41.073C108.865 40.9391 109.094 40.7669 109.286 40.5564C109.477 40.3459 109.611 40.0781 109.707 39.7911C109.783 39.5041 109.841 39.198 109.841 38.8536ZM112.538 34.8357H112.519C112.423 34.8166 112.347 34.8166 112.27 34.8166C112.194 34.8166 112.117 34.8166 112.041 34.8166C111.811 34.8166 111.62 34.8548 111.486 34.9122C111.333 34.9697 111.218 35.0653 111.142 35.1992C111.065 35.314 111.008 35.4671 110.969 35.6393C110.931 35.8115 110.931 35.9837 110.931 36.175V36.5577H110.147V37.0742H110.931V41.1686H111.543V37.0742H112.443V36.5577H111.543V36.175C111.543 36.0411 111.543 35.9263 111.543 35.8306C111.543 35.7349 111.563 35.6393 111.601 35.5628C111.639 35.4862 111.696 35.4288 111.773 35.3906C111.849 35.3523 111.964 35.314 112.117 35.314C112.175 35.314 112.251 35.314 112.309 35.3332C112.366 35.3332 112.443 35.3523 112.519 35.3714H112.538L112.538 34.8357ZM120.134 39.4658C120.134 39.198 120.096 38.9684 120 38.7962C119.904 38.6049 119.79 38.4518 119.636 38.3179C119.483 38.184 119.311 38.0883 119.101 37.9926C118.909 37.9161 118.68 37.8396 118.469 37.7822L116.939 37.3995C116.805 37.3613 116.69 37.323 116.575 37.2847C116.46 37.2465 116.365 37.1699 116.269 37.0934C116.193 37.0169 116.116 36.9212 116.059 36.8255C116.001 36.7299 115.982 36.5959 115.982 36.4429C115.982 36.2133 116.02 36.022 116.116 35.8689C116.212 35.7158 116.327 35.5819 116.46 35.4863C116.594 35.3906 116.767 35.3141 116.958 35.2758C117.149 35.2375 117.341 35.2184 117.551 35.2184C117.781 35.2184 117.991 35.2566 118.182 35.314C118.374 35.3714 118.565 35.4671 118.718 35.5819C118.871 35.6967 119.005 35.8498 119.101 36.0219C119.196 36.1941 119.254 36.4046 119.254 36.6533V36.6725H119.904V36.6533C119.904 36.3281 119.847 36.0411 119.713 35.7924C119.579 35.5436 119.407 35.3332 119.196 35.161C118.986 34.9888 118.737 34.874 118.45 34.7783C118.163 34.7018 117.857 34.6444 117.551 34.6444C117.111 34.6444 116.747 34.7018 116.46 34.8357C116.173 34.9697 115.944 35.1227 115.791 35.314C115.619 35.5054 115.523 35.6967 115.446 35.9071C115.389 36.1176 115.351 36.2898 115.351 36.462C115.351 36.7107 115.389 36.9212 115.466 37.0934C115.542 37.2656 115.657 37.4186 115.791 37.5334C115.925 37.6482 116.078 37.7439 116.25 37.8204C116.422 37.8969 116.614 37.9543 116.786 37.9926L118.202 38.337C118.355 38.3752 118.508 38.4135 118.642 38.4709C118.795 38.5283 118.929 38.6049 119.063 38.6814C119.177 38.7771 119.292 38.8727 119.369 39.0066C119.445 39.1406 119.483 39.2745 119.483 39.4467C119.483 39.6763 119.426 39.8676 119.311 40.0207C119.196 40.1737 119.063 40.3077 118.89 40.4033C118.718 40.499 118.546 40.5755 118.355 40.6329C118.163 40.6712 117.991 40.7094 117.819 40.7094C117.532 40.7094 117.264 40.6903 117.015 40.6329C116.767 40.5755 116.556 40.4799 116.365 40.3651C116.193 40.2311 116.04 40.0589 115.944 39.8485C115.848 39.638 115.791 39.3702 115.791 39.0449V39.0257H115.14V39.0449C115.121 39.4276 115.179 39.7719 115.293 40.0589C115.408 40.3459 115.599 40.5755 115.81 40.7477C116.04 40.9199 116.307 41.0538 116.633 41.1495C116.958 41.226 117.302 41.2834 117.666 41.2834C118.029 41.2834 118.355 41.2452 118.622 41.1878C118.89 41.1112 119.12 41.0347 119.292 40.9199C119.464 40.8051 119.617 40.6903 119.732 40.5564C119.828 40.4225 119.923 40.2885 119.981 40.1546C120.038 40.0207 120.077 39.8867 120.096 39.7719C120.134 39.638 120.134 39.5423 120.134 39.4658L120.134 39.4658ZM124.688 36.5577H124.075V38.9875C124.075 39.2171 124.056 39.4467 123.999 39.6572C123.941 39.8676 123.865 40.0781 123.75 40.2311C123.635 40.4033 123.501 40.5373 123.329 40.6329C123.157 40.7286 122.966 40.786 122.717 40.786C122.277 40.786 121.971 40.6903 121.798 40.4799C121.626 40.2694 121.531 39.9633 121.511 39.5615V36.5577H120.899V39.5424C120.899 39.8102 120.938 40.059 120.995 40.2694C121.052 40.4799 121.148 40.6712 121.282 40.8243C121.416 40.9773 121.588 41.0921 121.779 41.1686C121.99 41.2452 122.239 41.2834 122.526 41.2834C122.87 41.2834 123.195 41.2069 123.463 41.0347C123.731 40.8817 123.941 40.6521 124.094 40.3842V41.1686H124.649V36.5577H124.688ZM127.997 36.5003H127.978C127.557 36.4811 127.194 36.5768 126.907 36.7872C126.62 36.9786 126.409 37.2464 126.275 37.5908V36.5768H125.721V41.1878H126.333V38.7005C126.333 38.4709 126.371 38.2413 126.448 38.05C126.524 37.8587 126.639 37.6674 126.792 37.5334C126.945 37.3804 127.117 37.2847 127.328 37.189C127.538 37.1125 127.768 37.0742 128.017 37.0934H128.036V36.5003H127.997ZM132.111 38.0691C132.034 37.763 131.92 37.476 131.767 37.2464C131.594 36.9977 131.384 36.8064 131.135 36.6533C130.867 36.5003 130.561 36.4237 130.179 36.4237C129.815 36.4237 129.49 36.5003 129.241 36.6342C128.973 36.7681 128.763 36.9594 128.591 37.189C128.418 37.4186 128.304 37.6865 128.227 37.9735C128.151 38.2605 128.112 38.5666 128.112 38.8727C128.112 39.198 128.151 39.5041 128.227 39.8102C128.304 40.0972 128.438 40.3651 128.591 40.5947C128.763 40.8242 128.973 40.9964 129.241 41.1304C129.509 41.2643 129.815 41.3217 130.179 41.3217C130.753 41.3217 131.212 41.1686 131.537 40.8816C131.862 40.5947 132.073 40.1929 132.188 39.6571V39.6189H131.575V39.6381C131.48 39.9824 131.327 40.2694 131.097 40.4799C130.867 40.6904 130.561 40.786 130.159 40.786C129.892 40.786 129.681 40.7286 129.49 40.6138C129.298 40.499 129.145 40.3651 129.031 40.1929C128.916 40.0207 128.82 39.8294 128.763 39.6189C128.705 39.4085 128.686 39.2171 128.686 39.0258H132.207V39.0066C132.207 38.6814 132.187 38.3753 132.111 38.0692V38.0691Z" fill="#767DA5"/>
</svg>
