<svg width="132" height="37" viewBox="0 0 132 37" fill="none" xmlns="http://www.w3.org/2000/svg">
<g clip-path="url(#clip0)">
<path d="M28.6909 11.286L32.2384 9.2485L16.1192 0L0 9.2485L3.54749 11.286L16.1192 4.0721L28.6909 11.286Z" fill="#767DA5"/>
<path d="M16.1192 14.4279L19.6667 16.4625L16.1192 18.5L12.5657 16.4625L16.1192 14.4279Z" fill="#767DA5"/>
<path d="M28.6909 11.286V25.7139L19.6667 30.8903V16.4624L16.1192 18.5V32.9279V37L32.2384 27.7485V9.24849L28.6909 11.286Z" fill="#767DA5"/>
<path d="M3.54749 11.286L0 9.24849V27.7485L16.1192 37V32.9279L3.54749 25.7139V11.286Z" fill="#767DA5"/>
<path d="M47.0654 27.7515H43.5179V12.3213H47.0654V27.7515Z" fill="#767DA5"/>
<path d="M50.7488 16.1804C52.6561 15.4897 54.6668 15.1235 56.6965 15.0971C59.9361 15.0971 62.0283 16.2974 62.0283 19.9824V27.7515H58.6499V20.2045C58.6499 18.8151 57.8981 18.1039 56.4459 18.1039C55.6502 18.1064 54.8594 18.2278 54.1001 18.464V27.7665H50.7488V16.1804Z" fill="#767DA5"/>
<path d="M65.3403 15.3762V12.3213H68.6885V15.3762H72.236V18.1489H68.6885V23.1183C68.6885 24.5316 69.3588 24.9758 70.3642 24.9758C71.1791 24.9681 71.9746 24.7275 72.6557 24.2826V27.3344C71.6588 27.8251 70.5552 28.0632 69.4433 28.0276C67.2937 28.0276 65.3403 27.0013 65.3403 24.0065V15.3762Z" fill="#767DA5"/>
<path d="M77.9966 22.4791V22.5331C78.2502 24.2826 79.9802 25.1708 81.6558 25.1708C83.1205 25.2004 84.5634 24.8153 85.8162 24.0605V26.8843C84.6689 27.6885 82.9963 28.0216 81.3207 28.0216C77.272 28.0216 74.7299 25.5519 74.7299 21.6959C74.7299 17.6178 77.3263 15.0941 80.8165 15.0941C84.6991 15.0941 86.2056 17.6478 86.2056 20.9216V22.4761L77.9966 22.4791ZM83.0778 20.4805C83.0506 18.9531 82.326 17.8458 80.7349 17.8458C79.2827 17.8458 78.3196 18.8721 78.0177 20.4805H83.0778Z" fill="#767DA5"/>
<path d="M97.0534 27.2234C96.3281 27.5192 95.5486 27.6613 94.7649 27.6405C90.997 27.6405 88.3734 25.4769 88.3734 21.4228C88.3734 17.4827 91.0242 15.0971 95.3808 15.0971C97.1097 15.0894 98.8241 15.4103 100.432 16.0423V27.5565C100.432 31.8026 96.999 33.0239 94.1792 33.0239C92.7043 33.0395 91.2446 32.7268 89.9071 32.1087V28.9998C91.4167 29.8611 92.6424 30.2212 94.1792 30.2212C95.7974 30.2212 97.0534 29.3599 97.0534 27.4724V27.2234ZM97.0534 18.2599C96.5108 18.0972 95.9475 18.0133 95.3808 18.0109C93.1466 18.0109 91.7789 19.1482 91.7789 21.4228C91.7789 23.5624 93.1194 24.8377 95.1574 24.8377C95.8055 24.8267 96.4468 24.7049 97.0534 24.4776V18.2599Z" fill="#767DA5"/>
<path d="M106.295 22.4791V22.5331C106.549 24.2826 108.279 25.1708 109.954 25.1708C111.419 25.2004 112.862 24.8153 114.115 24.0605V26.8843C112.967 27.6885 111.295 28.0216 109.619 28.0216C105.57 28.0216 103.028 25.5519 103.028 21.6959C103.028 17.6178 105.625 15.0941 109.115 15.0941C112.998 15.0941 114.504 17.6478 114.504 20.9216V22.4761L106.295 22.4791ZM111.376 20.4805C111.349 18.9531 110.624 17.8458 109.033 17.8458C107.581 17.8458 106.618 18.8721 106.316 20.4805H111.376Z" fill="#767DA5"/>
<path d="M120.702 27.7515H117.351V16.3184C118.894 15.5535 120.597 15.1637 122.321 15.1811C123.198 15.1654 124.073 15.2776 124.917 15.5142V18.7341C124.115 18.4342 123.262 18.2926 122.405 18.3169C121.827 18.3216 121.252 18.4147 120.702 18.593V27.7515Z" fill="#767DA5"/>
<path d="M129.672 12.2493C130.138 12.2452 130.595 12.3787 130.985 12.633C131.374 12.8873 131.679 13.251 131.86 13.6777C132.041 14.1045 132.091 14.5752 132.003 15.03C131.914 15.4848 131.692 15.9033 131.364 16.2323C131.036 16.5614 130.617 16.7861 130.16 16.878C129.703 16.9699 129.229 16.9249 128.798 16.7486C128.367 16.5723 127.999 16.2727 127.739 15.8878C127.48 15.503 127.342 15.0502 127.341 14.587C127.332 14.2793 127.386 13.973 127.5 13.6867C127.614 13.4004 127.785 13.1401 128.003 12.9215C128.221 12.7028 128.481 12.5305 128.768 12.415C129.055 12.2995 129.363 12.2431 129.672 12.2493ZM129.672 16.6425C130.083 16.6515 130.487 16.5385 130.833 16.3182C131.179 16.0978 131.451 15.78 131.615 15.4053C131.778 15.0305 131.826 14.6159 131.751 14.2142C131.677 13.8126 131.483 13.4421 131.196 13.1501C130.909 12.8581 130.54 12.6578 130.138 12.5748C129.736 12.4918 129.317 12.5298 128.937 12.6839C128.556 12.8381 128.231 13.1015 128.001 13.4404C127.772 13.7793 127.65 14.1785 127.649 14.587C127.636 14.8566 127.679 15.1261 127.775 15.3785C127.871 15.631 128.019 15.8609 128.209 16.0539C128.399 16.2469 128.627 16.3988 128.879 16.5001C129.131 16.6014 129.401 16.6499 129.672 16.6425ZM129.274 15.9043H128.851V13.2486C129.074 13.2091 129.301 13.188 129.527 13.1856C130.216 13.1856 130.62 13.4857 130.62 14.0858C130.622 14.2537 130.571 14.4181 130.476 14.5566C130.38 14.695 130.244 14.801 130.086 14.86L130.898 15.9043H130.391L129.663 14.9531H129.274V15.9043ZM129.274 14.596H129.576C129.959 14.596 130.179 14.4339 130.179 14.0858C130.179 13.7377 129.974 13.5757 129.536 13.5757C129.45 13.5708 129.363 13.5708 129.277 13.5757L129.274 14.596Z" fill="#767DA5"/>
</g>
<defs>
<clipPath id="clip0">
<rect width="132" height="37" fill="white"/>
</clipPath>
</defs>
</svg>
