<svg width="175" height="45" viewBox="0 0 175 45" fill="none" xmlns="http://www.w3.org/2000/svg">
<path d="M45.6995 22.3785C45.6995 34.7273 35.6698 44.7571 23.321 44.7571C10.9723 44.7571 0.942505 34.7563 0.942505 22.3785C0.942505 10.0298 10.9433 0 23.321 0C35.6698 0 45.6995 10.0298 45.6995 22.3785Z" fill="#767DA5"/>
<path d="M35.8437 33.8576C35.4959 33.8576 35.235 33.8286 35.0611 33.7997C34.8871 33.7707 34.7422 33.6837 34.6263 33.5967C34.5103 33.4808 34.3944 33.3359 34.3074 33.1329C34.2204 32.93 34.1045 32.6691 33.9595 32.3793V13.3054C33.9595 12.8416 33.9595 12.4357 33.9885 12.1169C33.9885 11.798 34.0755 11.5371 34.1914 11.3342C34.3074 11.1313 34.5103 10.9863 34.7422 10.8994C35.0031 10.8124 35.3799 10.7544 35.8727 10.7544V10.2617H29.4954V10.7544C29.9592 10.7544 30.3361 10.8124 30.597 10.8994C30.8578 10.9863 31.0318 11.1313 31.1477 11.3632C31.2637 11.5661 31.3217 11.827 31.3217 12.1459C31.3217 12.4647 31.3506 12.8416 31.3506 13.2764V30.3791L31.3217 31.9734C30.6549 31.5096 29.7563 30.8719 28.7128 30.0023C28.7997 27.4224 28.22 24.8135 26.9735 22.2626C25.9009 20.0595 24.3646 17.9144 22.3644 15.8273C19.0019 12.3198 15.5523 10.2906 15.4074 10.2037L15.3784 10.2327H10.8273V10.8704C11.1752 10.8704 11.4361 10.8994 11.61 10.9284C11.7839 10.9574 11.9289 11.0443 12.0448 11.1313C12.1608 11.2472 12.2767 11.3922 12.3637 11.5951C12.4506 11.798 12.5666 12.0589 12.7115 12.3488V31.4227C12.7115 31.8865 12.7115 32.2923 12.6825 32.6112C12.6825 32.93 12.5956 33.1909 12.4796 33.3938C12.3637 33.5967 12.1608 33.7417 11.9289 33.8286C11.668 33.9156 11.2911 33.9736 10.7983 33.9736V34.4664H17.1756V33.9736C16.7118 33.9736 16.335 33.9156 16.0741 33.8286C15.8132 33.7417 15.6393 33.5967 15.5233 33.3648C15.4074 33.1619 15.3494 32.901 15.3494 32.5822C15.3494 32.2633 15.3204 31.8865 15.3204 31.4517V14.3199L15.3494 12.7546C16.0161 13.2184 16.9148 13.8561 17.9583 14.6968C17.8713 17.2767 18.4511 19.8856 19.6976 22.4365C20.7701 24.6396 22.3065 26.7846 24.3066 28.8717C27.6692 32.3793 31.1187 34.4084 31.2637 34.4954L31.2927 34.4664H35.8148V33.8576H35.8437ZM25.872 27.4224C22.4804 23.9149 20.5962 20.2914 20.1904 16.6969C20.3933 16.8998 20.5962 17.1027 20.7991 17.3057C24.1907 20.8132 26.0749 24.4366 26.4807 28.0311C26.2778 27.8572 26.0749 27.6543 25.872 27.4224Z" fill="#242939"/>
<path d="M69.6724 10.5226C69.4695 10.6095 69.2956 10.7545 69.2086 10.9284C69.1217 11.1023 69.0637 11.3342 69.0637 11.5951C69.0637 11.856 69.0347 12.1749 69.0347 12.5517V30.0603H67.5273L55.8453 13.2474V27.4804C55.8453 27.8572 55.8453 28.1761 55.8743 28.437C55.8743 28.6978 55.9322 28.9298 56.0192 29.1037C56.1062 29.2776 56.2511 29.3936 56.483 29.4805C56.6859 29.5675 57.0048 29.5965 57.3816 29.5965V29.8863H52.6566V29.5965C53.0624 29.5965 53.3813 29.5675 53.5842 29.4805C53.7871 29.3936 53.9611 29.2776 54.048 29.1037C54.135 28.9298 54.193 28.7268 54.222 28.4659C54.222 28.2051 54.222 27.8862 54.222 27.4804V11.5951C54.106 11.3342 54.019 11.1313 53.9321 10.9574C53.8451 10.7834 53.7581 10.6675 53.6712 10.5805C53.5842 10.4936 53.4393 10.4356 53.2943 10.4066C53.1494 10.3776 52.9175 10.3486 52.6276 10.3486V10.0587H56.483C58.2802 12.7546 60.1065 15.4215 61.9617 18.0304C63.8169 20.6393 65.6431 23.3061 67.4404 26.002V12.4937C67.4404 12.1169 67.4404 11.769 67.4114 11.5081C67.4114 11.2472 67.3534 11.0153 67.2664 10.8414C67.1795 10.6675 67.0345 10.5515 66.8026 10.4646C66.5707 10.3776 66.2519 10.3486 65.846 10.3486V10.0587H70.571V10.3486C70.1942 10.3776 69.9043 10.4356 69.6724 10.5226Z" fill="#767DA5"/>
<path d="M89.0072 29.8864H75.6439V29.5965C76.2526 29.5965 76.6295 29.5095 76.7744 29.3356C76.9193 29.1617 77.0063 28.7848 77.0063 28.1471V11.798C77.0063 11.1893 76.9193 10.7834 76.7744 10.6095C76.6295 10.4356 76.2526 10.3486 75.6439 10.3486V10.0587H88.7173L88.7463 13.0735H88.3405C88.2535 12.3198 88.0216 11.885 87.6448 11.7111C87.2969 11.5371 86.7752 11.4502 86.0795 11.4502H80.166C79.8471 11.4502 79.6442 11.4791 79.5862 11.5661C79.5282 11.6241 79.4993 11.827 79.4993 12.1459V18.871H85.4417C85.7606 18.871 86.0215 18.871 86.2534 18.842C86.4853 18.813 86.6882 18.7551 86.8331 18.6391C86.9781 18.5522 87.094 18.4072 87.181 18.2043C87.268 18.0014 87.3259 17.7405 87.3549 17.4216H87.7318V21.7988H87.3549C87.3259 21.4509 87.268 21.161 87.181 20.9871C87.094 20.7842 86.9781 20.6393 86.8331 20.5233C86.6882 20.4074 86.5143 20.3494 86.2824 20.3204C86.0505 20.2914 85.7896 20.2624 85.4417 20.2624H79.4993V27.9152C79.4993 28.0891 79.5572 28.2341 79.6732 28.321C79.7891 28.408 79.9051 28.466 80.05 28.466C80.195 28.4949 80.3399 28.4949 80.5138 28.466C80.6877 28.466 80.8327 28.466 80.9486 28.466H85.7896C86.2534 28.466 86.6592 28.437 87.0071 28.408C87.3549 28.35 87.6448 28.263 87.9347 28.0891C88.1956 27.9442 88.4565 27.7123 88.6594 27.4514C88.8623 27.1905 89.0652 26.8426 89.2681 26.3788H89.7319L89.0072 29.8864Z" fill="#767DA5"/>
<path d="M106.748 29.8864C106.284 28.8428 105.82 27.9152 105.356 27.1035C104.893 26.2629 104.371 25.5092 103.849 24.7845C103.298 24.0598 102.718 23.3641 102.052 22.6974C101.414 22.0307 100.689 21.335 99.8486 20.6103L97.7325 20.6393V28.1471C97.7325 28.466 97.7615 28.7269 97.7905 28.9298C97.8195 29.1327 97.9065 29.2776 97.9934 29.3646C98.0804 29.4515 98.2253 29.5095 98.4282 29.5385C98.6311 29.5675 98.863 29.5675 99.1819 29.5675V29.8574H93.8482V29.5675C94.1381 29.5675 94.37 29.5675 94.5729 29.5385C94.7468 29.5095 94.8917 29.4515 95.0077 29.3356C95.0946 29.2486 95.1816 29.1037 95.2106 28.9008C95.2396 28.7269 95.2396 28.466 95.2396 28.1181V11.769C95.2396 11.4502 95.2396 11.2183 95.2106 11.0153C95.1816 10.8124 95.1236 10.6675 95.0077 10.5805C94.9207 10.4936 94.7758 10.4066 94.5729 10.3776C94.3989 10.3486 94.1381 10.3196 93.8482 10.3196V10.0298H100.834C101.704 10.0298 102.516 10.1167 103.298 10.2906C104.081 10.4646 104.777 10.7834 105.385 11.1893C105.994 11.5951 106.487 12.1459 106.835 12.8126C107.183 13.4793 107.385 14.291 107.385 15.2765C107.385 16.0302 107.241 16.668 106.98 17.2187C106.719 17.7695 106.342 18.2333 105.878 18.6391C105.414 19.016 104.864 19.3348 104.284 19.5667C103.675 19.7986 103.037 19.9726 102.371 20.0595C102.95 20.5233 103.385 20.9291 103.762 21.248C104.11 21.5669 104.429 21.8857 104.69 22.2046C104.95 22.4945 105.211 22.8134 105.472 23.1322C105.733 23.4511 106.023 23.8279 106.371 24.2627C106.777 24.7555 107.125 25.3063 107.472 25.915C107.82 26.5238 108.139 27.1035 108.458 27.6253C108.748 28.1761 109.038 28.6109 109.299 28.9877C109.56 29.3646 109.791 29.5385 110.023 29.5385V29.8284H106.748V29.8864ZM97.7615 19.2479H99.1529C99.8486 19.2479 100.544 19.1899 101.211 19.0449C101.878 18.929 102.487 18.6971 103.037 18.3782C103.588 18.0594 104.023 17.6245 104.342 17.0738C104.661 16.523 104.835 15.8563 104.835 15.0157C104.835 14.291 104.69 13.7112 104.429 13.2184C104.168 12.7546 103.791 12.3778 103.327 12.1169C102.863 11.856 102.342 11.6821 101.762 11.5661C101.182 11.4791 100.573 11.4212 99.9646 11.4212H99.3848C99.1819 11.4212 98.979 11.4212 98.7761 11.4502C98.5732 11.4791 98.3703 11.5081 98.1673 11.5951C97.9934 11.6821 97.8195 11.769 97.7035 11.914V19.2479H97.7615Z" fill="#767DA5"/>
<path d="M114.371 29.8863V29.5965C114.69 29.5965 114.98 29.5965 115.183 29.5675C115.386 29.5385 115.56 29.4805 115.676 29.4225C115.792 29.3356 115.879 29.1906 115.908 28.9877C115.937 28.7848 115.966 28.5239 115.966 28.1761V11.827C115.966 11.4791 115.937 11.2183 115.908 11.0153C115.879 10.8124 115.792 10.6675 115.676 10.5805C115.56 10.4936 115.386 10.4356 115.183 10.4066C114.98 10.3776 114.719 10.3776 114.371 10.3776V10.0877H120.053V10.3776C119.705 10.3776 119.444 10.3776 119.241 10.4066C119.039 10.4356 118.865 10.4646 118.749 10.5805C118.633 10.6675 118.546 10.8124 118.517 11.0153C118.488 11.2183 118.459 11.4791 118.459 11.827V28.1761C118.459 28.5239 118.488 28.7848 118.517 28.9877C118.546 29.1906 118.633 29.3356 118.749 29.4225C118.865 29.5095 119.039 29.5675 119.241 29.5675C119.444 29.5965 119.705 29.5965 120.053 29.5965V29.8863H114.371Z" fill="#767DA5"/>
<path d="M141.881 10.3776C141.591 10.3776 141.359 10.4646 141.214 10.6385C141.069 10.8124 140.953 11.0153 140.895 11.2472C140.837 11.4791 140.808 11.74 140.808 12.0009V12.7256V22.9583C140.808 25.3063 140.171 27.1325 138.866 28.379C137.562 29.6255 135.735 30.2632 133.416 30.2632C131.068 30.2632 129.242 29.6255 127.938 28.35C126.662 27.0746 125.996 25.2773 125.996 22.9003V11.798C125.996 11.3632 125.938 11.0153 125.851 10.7544C125.764 10.4936 125.445 10.3486 124.952 10.3486H124.517V10.0587H129.996V10.3486C129.677 10.3486 129.445 10.3486 129.242 10.3776C129.068 10.4066 128.923 10.4646 128.807 10.5515C128.691 10.6385 128.633 10.7834 128.575 10.9864C128.547 11.1893 128.518 11.4502 128.518 11.769V22.9583C128.518 24.7555 128.923 26.1759 129.764 27.2195C130.605 28.2631 131.938 28.7848 133.793 28.7848C135.504 28.7848 136.837 28.292 137.765 27.3065C138.721 26.3209 139.185 24.9874 139.185 23.2772V12.6676V11.6821C139.185 11.3922 139.156 11.1603 139.04 10.9574C138.953 10.7545 138.808 10.6095 138.576 10.4936C138.373 10.3776 138.054 10.3196 137.649 10.3196V10.0298H142.287V10.3196H141.881V10.3776Z" fill="#767DA5"/>
<path d="M164.752 29.8864V29.5965C165.071 29.5965 165.332 29.5965 165.506 29.5675C165.709 29.5385 165.854 29.4806 165.97 29.3646C166.086 29.2776 166.144 29.1327 166.202 28.9298C166.231 28.7559 166.26 28.495 166.26 28.1471V12.3778L158.781 29.9154H157.795L150.316 12.7836V27.4514C150.316 27.8282 150.316 28.1471 150.345 28.408C150.345 28.6689 150.403 28.9008 150.49 29.1037C150.577 29.2776 150.722 29.4226 150.925 29.5095C151.128 29.5965 151.447 29.6255 151.853 29.6255V29.9154H147.157V29.6255C147.562 29.6255 147.881 29.5965 148.113 29.5095C148.345 29.4226 148.49 29.2776 148.577 29.1037C148.664 28.9298 148.722 28.6979 148.722 28.437C148.722 28.1761 148.722 27.8282 148.722 27.4514V11.856C148.722 11.5081 148.693 11.2472 148.635 11.0443C148.577 10.8414 148.49 10.6965 148.374 10.6095C148.258 10.5226 148.084 10.4646 147.881 10.4356C147.678 10.4066 147.417 10.4066 147.099 10.4066V10.1167H151.679L158.781 26.2919L165.68 10.0877H170.173V10.3776C169.854 10.3776 169.622 10.3776 169.419 10.4356C169.245 10.4646 169.1 10.5226 168.984 10.6385C168.897 10.7255 168.81 10.8704 168.781 11.0733C168.752 11.2762 168.752 11.5081 168.752 11.827V28.1761C168.752 28.495 168.752 28.7559 168.781 28.9588C168.81 29.1327 168.868 29.2776 168.984 29.3936C169.071 29.4806 169.216 29.5675 169.419 29.5965C169.593 29.6255 169.854 29.6255 170.173 29.6255V29.9154H164.752V29.8864Z" fill="#767DA5"/>
<path d="M55.0626 34.8722H54.3089V39.0465H55.0626V34.8722Z" fill="#767DA5"/>
<path d="M61.5848 34.8722H62.5704L64.5996 37.9739V34.8722H65.3532V39.0465H64.3966L62.3385 35.8288V39.0465H61.5848V34.8722Z" fill="#767DA5"/>
<path d="M72.7741 35.5389H71.4986V34.8722H74.8032V35.5389H73.5278V39.0465H72.7741V35.5389Z" fill="#767DA5"/>
<path d="M80.9486 34.8722H83.7025V35.5389H81.6733V36.5535H83.5865V37.2202H81.6733V38.3508H83.8184V39.0465H80.9486V34.8722Z" fill="#767DA5"/>
<path d="M90.1667 34.8722H91.6161C92.4278 34.8722 93.1815 35.1331 93.1815 36.0607C93.1815 36.6695 92.8336 37.1043 92.2249 37.1913L93.3264 39.0465H92.4278L91.4712 37.2782H90.9204V39.0465H90.1667V34.8722ZM91.5002 36.6405C91.906 36.6405 92.3988 36.6115 92.3988 36.0607C92.3988 35.5679 91.935 35.51 91.5582 35.51H90.9204V36.6405H91.5002Z" fill="#767DA5"/>
<path d="M99.5298 34.8722H100.515L102.545 37.9739V34.8722H103.298V39.0465H102.342L100.283 35.8288H100.254V39.0465H99.5298V34.8722Z" fill="#767DA5"/>
<path d="M111.212 34.8722H111.85L113.647 39.0465H112.806L112.429 38.0899H110.603L110.226 39.0465H109.386L111.212 34.8722ZM112.139 37.4521L111.502 35.7419L110.835 37.4521H112.139Z" fill="#767DA5"/>
<path d="M120.053 35.5389H118.778V34.8722H122.082V35.5389H120.807V39.0465H120.053V35.5389Z" fill="#767DA5"/>
<path d="M128.952 34.8722H128.199V39.0465H128.952V34.8722Z" fill="#767DA5"/>
<path d="M137.475 34.7563C138.779 34.7273 139.707 35.5969 139.707 36.9594C139.707 38.2638 138.779 39.1334 137.475 39.1624C136.199 39.1624 135.272 38.2928 135.272 36.9883C135.272 35.6259 136.17 34.7563 137.475 34.7563ZM137.475 38.4667C138.344 38.4667 138.924 37.8 138.924 36.9014C138.924 36.0607 138.344 35.394 137.475 35.394C136.605 35.394 136.054 36.0607 136.054 36.9014C136.054 37.8 136.605 38.4667 137.475 38.4667Z" fill="#767DA5"/>
<path d="M146.026 34.8722H147.012L149.041 37.9739H149.07V34.8722H149.795V39.0465H148.867L146.78 35.8288V39.0465H146.026V34.8722Z" fill="#767DA5"/>
<path d="M157.708 34.8722H158.346L160.143 39.0465H159.302L158.926 38.0899H157.099L156.723 39.0465H155.882L157.708 34.8722ZM158.665 37.4521L158.027 35.7419L157.36 37.4521H158.665Z" fill="#767DA5"/>
<path d="M166.26 34.8722H167.013V38.3508H168.781V39.0465H166.26V34.8722Z" fill="#767DA5"/>
<path d="M172.956 10.2617H172.434V11.74H172.231V10.2617H171.68V10.0877H172.956V10.2617Z" fill="#767DA5"/>
<path d="M173.188 10.0877H173.477L174.028 11.3632H174.057L174.608 10.0877H174.898V11.74H174.695V10.3486L174.086 11.74H173.97L173.391 10.3486V11.74H173.188V10.0877Z" fill="#767DA5"/>
</svg>
