<svg width="176" height="42" viewBox="0 0 176 42" fill="none" xmlns="http://www.w3.org/2000/svg">
<path d="M40.008 4.47048e-09C38.8779 -1.86324e-05 33.8079 0.0582404 33.8079 0.0582404V8.56134H12.4586C12.4586 8.56132 7.42605 8.56134 5.32271 12.114C3.86743 14.3178 4.05696 16.4168 4.09439 16.715C4.05696 17.0178 3.9236 19.1192 5.3812 21.316C7.48924 24.871 12.4586 24.8686 12.4586 24.8686H23.6889C25.5139 24.8686 25.7876 26.2548 25.7946 26.8488C25.7876 27.4405 25.5068 28.7707 23.6889 28.7707C21.8336 28.7707 2.33966 28.7707 2.33966 28.7707H8.31875e-06C-1.03984e-05 29.9123 8.31875e-06 35.0025 8.31875e-06 35.0025H23.455C23.455 35.0025 28.4431 35.0211 30.5324 31.4498C31.9853 29.2576 31.8473 27.1447 31.8192 26.8488C31.8379 26.5366 31.9924 24.3771 30.5324 22.1896C28.4384 18.6206 23.455 18.6369 23.455 18.6369L12.2247 18.6952C10.4091 18.6998 10.1377 17.3067 10.119 16.715C10.133 16.1186 10.3974 14.8 12.2247 14.7931C14.0847 14.8 33.574 14.7931 33.574 14.7931H33.8079V26.7323C33.8079 26.7323 33.7939 31.755 37.3759 33.8377C39.4909 35.2214 41.5217 35.1399 41.9382 35.1189H48.6062V28.9455H41.8797C41.2457 28.9012 40.0244 28.5494 40.008 26.8488C40.0243 25.8704 40.001 20.079 40.008 14.7931L48.5477 14.7348C48.5477 13.6026 48.4892 8.56134 48.4892 8.56134H40.008C40.008 6.8514 40.008 5.70756 40.008 5.70756V4.47048e-09ZM96.335 0.232962L96.3935 15.1425V35.9343H102.594V28.3631L106.103 23.9368L113.005 36.0508H120.141L119.556 35.0607C119.556 35.0607 113.321 24.0789 110.548 19.1611L119.322 8.67782H111.25L102.594 18.9864V0.291202C102.594 0.291202 97.4697 0.232962 96.335 0.232962ZM172.081 2.85378C169.994 2.85378 168.211 4.52411 168.221 6.69764C168.211 8.86652 169.989 10.6067 172.081 10.5997C174.203 10.5997 176 8.8735 176 6.69764C176 4.54042 174.224 2.85378 172.081 2.85378ZM172.081 3.3197C174.007 3.31504 175.532 4.86191 175.532 6.69764C175.532 8.59861 173.983 10.1315 172.081 10.1338C170.221 10.1315 168.689 8.62191 168.689 6.69764C168.689 4.81997 170.207 3.31735 172.081 3.3197ZM170.677 4.60099V8.73606H171.262V6.87236H171.964C172.645 6.87003 172.837 7.05174 172.9 7.68773C172.984 8.34701 173.003 8.46349 173.075 8.73606H173.66C173.513 8.31906 173.483 7.96726 173.426 7.45477C173.352 6.94691 173.223 6.73492 172.783 6.6394C173.569 6.41343 173.593 5.77745 173.602 5.64932C173.592 4.60332 172.446 4.60332 172.14 4.60099H170.677ZM171.262 5.06691H172.14C172.451 5.06691 172.958 5.11816 172.958 5.7658C172.958 6.40877 172.467 6.40642 172.198 6.40644H171.262V5.06691ZM132.249 8.44485C124.603 8.44484 118.386 14.637 118.386 22.2478C118.391 29.7398 124.373 35.7969 131.839 35.9926H140.847V30.052H132.424H131.605C128.601 29.9938 125.943 27.6712 124.937 24.6357H145.877C146.022 23.8343 146.111 23.0376 146.111 22.1896C146.102 14.5787 139.906 8.44485 132.249 8.44485ZM148.685 8.73606L148.743 35.2354H155.002V14.9678H160.266C162.376 14.9678 162.68 16.4844 162.723 17.1227V20.6753H168.923V16.8315C168.955 16.4051 169.026 14.404 167.636 12.2887C165.53 8.73606 160.5 8.73606 160.5 8.73606H148.743H148.685ZM51.0628 8.7943L51.1798 35.2937H57.3799V14.9678H62.6441C64.7755 14.9747 65.0562 16.5449 65.1007 17.1809V20.7336H71.3008V16.8897C71.3265 16.4611 71.4061 14.4553 70.014 12.347C67.9106 8.79197 62.878 8.7943 62.878 8.7943H51.1798H51.0628ZM71.3593 8.85254L78.6707 33.6047L78.9046 34.2453C79.045 34.8138 79.0754 35.6757 78.0273 35.7596H77.3254H70.3064V41.9913H78.2027C78.6262 42.0216 80.6594 42.0496 82.765 40.6518C85.7621 38.8766 86.7565 34.7532 87.0934 33.6047C87.4911 32.2326 94.3463 8.85254 94.3463 8.85254C94.3463 8.85254 89.3886 8.85254 88.2632 8.85254L82.882 27.7224L77.4423 8.85254C76.31 8.85254 71.3593 8.85254 71.3593 8.85254ZM132.249 14.5601C135.508 14.5601 138.287 16.5612 139.443 19.394H125.054C126.198 16.5589 128.996 14.5601 132.249 14.5601Z" fill="#767DA5"/>
</svg>
