<svg width="176" height="32" viewBox="0 0 176 32" fill="none" xmlns="http://www.w3.org/2000/svg">
<path d="M170.691 10.0133H166.948V8.73479H176V10.0133H172.257V21.6031H170.691V10.0133ZM157.861 8.73479H165.365V10.0133H159.427V14.3862H164.214V15.6634H159.427V20.3246H165.689V21.6031H157.861V8.73479ZM142.458 8.73479H144.636L148.613 18.7603L152.464 8.73479H154.624V21.6031H153.058V10.7695L148.793 21.6031H148.307L143.898 10.7695V21.6031H142.458V8.73479ZM138.231 15.1968V15.0527C138.231 12.1733 136.539 9.8325 133.57 9.8325C130.582 9.8325 128.854 12.0291 128.854 15.0881V15.2322C128.854 18.3456 130.924 20.4688 133.605 20.4688C136.467 20.4688 138.231 18.3089 138.231 15.1968V15.1968ZM127.234 15.2499V15.1058C127.234 11.4524 129.79 8.573 133.57 8.573C137.348 8.573 139.85 11.4524 139.85 15.0704V15.2144C139.85 18.8489 137.348 21.7649 133.605 21.7649C129.808 21.7649 127.234 18.8489 127.234 15.2499ZM122.97 8.73479H124.536V20.4928V21.6031H122.97V8.73479ZM116.062 20.379C117.932 20.379 118.796 19.5507 118.796 17.9852V17.9146C118.796 16.33 117.914 15.5751 115.846 15.5751H113.218V20.3791L116.062 20.379ZM115.557 14.3508C117.447 14.3508 118.166 13.6666 118.166 12.0821V12.0115C118.166 10.5535 117.321 9.95912 115.521 9.95912H113.218V14.351L115.557 14.3508ZM111.688 8.73479H115.557C117.95 8.73479 119.696 9.5277 119.696 12.0645V12.1365C119.696 13.3062 119.228 14.3508 117.753 14.8541C119.624 15.3042 120.326 16.2577 120.326 17.932V18.003C120.326 20.4335 118.671 21.6033 116.097 21.6033H111.688V8.73479ZM99.5959 14.7643C101.432 14.7643 102.422 13.9727 102.422 12.3894V12.3174C102.422 10.571 101.342 9.99435 99.5959 9.99435H97.1843V14.7643L99.5959 14.7643ZM95.6188 8.73479H99.4884C101.953 8.73479 103.988 9.74268 103.988 12.3173V12.3894C103.988 14.5126 102.565 15.5559 100.802 15.8973L104.743 21.603H102.998L99.1634 16.0061H97.1843V21.603H95.6188V8.73479ZM85.4339 8.73479H92.9392V10.0133H86.9995V14.3862H91.7872V15.6634H86.9995V20.3246H93.2617V21.6031H85.4339V8.73479ZM70.0302 8.73479H72.2091L76.1861 18.7603L80.0368 8.73479H82.1966V21.6031H80.6311V10.7695L76.3657 21.6031H75.8801L71.4705 10.7695V21.6031H70.0302V8.73479ZM54.6277 8.73479H56.8053L60.7824 18.7603L64.6343 8.73479H66.7942V21.6031H65.2274V10.7695L60.962 21.6031H60.4764L56.0681 10.7695V21.6031H54.6277V8.73479ZM49.7338 8.73479H51.2994V20.6711V21.6031H49.7338V8.73479ZM37.8216 21.3502L45.1106 10.0133H38.4691V8.73479H47.2692V8.96999L40.1787 20.2714H47.1617V21.603H37.8216V21.3502Z" fill="#767DA5"/>
<path fill-rule="evenodd" clip-rule="evenodd" d="M5.37194 26.286C8.05156 28.9808 11.7568 30.6501 15.8565 30.6501C24.0269 30.6501 30.6507 24.025 30.6507 15.8533C30.6507 11.8244 29.0409 8.17105 26.4283 5.50152L15.8223 25.8611C20.8819 25.8081 25.0487 22.0257 25.7138 17.1368L25.7151 26.286H5.37194ZM5.11016 26.0229L15.8185 5.68863L15.7148 5.67791C10.4289 5.67791 6.06742 9.77132 5.63621 14.946V5.24794H26.1678C23.5033 2.6581 19.8652 1.06221 15.8565 1.06221C6.99183 1.06221 1.06098 6.99178 1.06098 15.8539C1.06098 19.7943 2.59996 23.3718 5.11013 26.0235L5.11016 26.0229ZM15.8565 0C24.6149 0 31.7129 7.09799 31.7129 15.8539C31.7129 24.6123 24.6149 31.7116 15.8565 31.7116C7.09932 31.7116 0 24.6123 0 15.8539C0 6.39867 6.39875 0 15.8565 0Z" fill="#767DA5"/>
</svg>
