<svg width="175" height="41" viewBox="0 0 175 41" fill="none" xmlns="http://www.w3.org/2000/svg">
<path d="M44.1371 10.3314V29.2396H39.4186V26.7034C38.1211 28.7284 35.4522 29.6524 33.1421 29.6524C28.1583 29.6524 23.8281 25.804 23.8281 19.7732C23.8281 13.7424 28.119 9.94312 33.1028 9.94312C35.4915 9.94312 38.126 10.8721 39.4186 12.8577V10.3314H44.1371ZM39.3597 19.724C39.3597 19.0091 39.2179 18.3012 38.9425 17.6413C38.6672 16.9815 38.2636 16.3829 37.7553 15.88C37.247 15.3772 36.644 14.9802 35.9812 14.712C35.3185 14.4438 34.6091 14.3097 33.8941 14.3175C33.189 14.3153 32.4906 14.4545 31.8402 14.7269C31.1899 14.9994 30.6007 15.3994 30.1076 15.9035C29.6146 16.4076 29.2276 17.0054 28.9696 17.6616C28.7116 18.3178 28.5878 19.0191 28.6055 19.724C28.5839 20.4347 28.7044 21.1424 28.9598 21.8059C29.2152 22.4694 29.6004 23.0752 30.093 23.5879C30.5855 24.1006 31.1754 24.5098 31.8281 24.7916C32.4808 25.0733 33.1832 25.222 33.8941 25.2289C34.6174 25.2369 35.335 25.0997 36.0043 24.8254C36.6736 24.5511 37.281 24.1453 37.7907 23.632C38.3003 23.1186 38.7018 22.5083 38.9713 21.837C39.2408 21.1658 39.3728 20.4473 39.3597 19.724Z" fill="#767DA5"/>
<path d="M77.2251 18.6329V29.2396H72.5706V18.9966C72.5706 15.9591 70.9928 14.46 68.8056 14.46C66.0925 14.46 64.3821 16.485 64.5934 19.8666L64.5541 19.7044V29.2396H59.8553V18.9966C59.8553 15.9591 58.2776 14.46 56.2526 14.46C54.0654 14.46 51.8782 15.6741 51.8782 19.2768V29.2396H47.1795V10.3314H51.8782V13.5704C52.5663 11.1817 55.1566 9.92838 57.506 9.92838C60.2584 9.92838 62.5291 11.2259 63.6203 13.654C65.0948 10.6558 68.0733 9.92838 69.9754 9.92838C74.7135 9.92838 77.2251 13.1281 77.2251 18.6329Z" fill="#767DA5"/>
<path d="M99.7409 10.3314V29.2396H95.0421V26.7034C93.7446 28.7284 91.0757 29.6524 88.7656 29.6524C83.7867 29.6524 79.4516 25.804 79.4516 19.7732C79.4516 13.7424 83.7424 9.94312 88.7263 9.94312C91.115 9.94312 93.7495 10.8721 95.0421 12.8577V10.3314H99.7409ZM94.9586 19.724C94.9586 19.0091 94.8168 18.3012 94.5415 17.6413C94.2661 16.9815 93.8625 16.3829 93.3542 15.88C92.8459 15.3772 92.2429 14.9802 91.5802 14.712C90.9174 14.4438 90.208 14.3097 89.493 14.3175C88.7867 14.3133 88.0867 14.4511 87.4346 14.7226C86.7825 14.9942 86.1916 15.3939 85.6969 15.8982C85.2023 16.4025 84.814 17.001 84.5551 17.6582C84.2962 18.3154 84.1719 19.0179 84.1897 19.724C84.1681 20.4359 84.289 21.1449 84.5453 21.8093C84.8016 22.4737 85.1882 23.0802 85.6823 23.5931C86.1764 24.106 86.7681 24.5149 87.4225 24.7958C88.0769 25.0767 88.7809 25.224 89.493 25.2289C90.2163 25.2369 90.9339 25.0997 91.6032 24.8254C92.2725 24.5511 92.88 24.1453 93.3896 23.632C93.8992 23.1186 94.3007 22.5083 94.5702 21.837C94.8397 21.1658 94.9718 20.4473 94.9586 19.724Z" fill="#767DA5"/>
<path d="M115.98 10.5722L115.046 15.0253C114.199 14.5754 113.254 14.3392 112.294 14.3372C109.217 14.3372 107.516 17.3353 107.516 22.6387V29.2396H102.778V10.3314H107.477V14.3814C108.49 11.221 110.554 9.92838 112.884 9.92838C113.946 9.90586 114.998 10.1278 115.961 10.5772" fill="#767DA5"/>
<path d="M136.245 10.3314V29.2396H131.526V26.7034C130.229 28.7284 127.555 29.6524 125.25 29.6524C120.271 29.6524 115.911 25.804 115.911 19.7732C115.911 13.7424 120.202 9.94312 125.186 9.94312C127.575 9.94312 130.209 10.8721 131.502 12.8577V10.3314H136.245ZM131.443 19.724C131.443 19.0091 131.301 18.3012 131.026 17.6413C130.75 16.9815 130.347 16.3829 129.839 15.88C129.33 15.3772 128.727 14.9802 128.064 14.712C127.402 14.4438 126.692 14.3097 125.977 14.3175C125.271 14.3133 124.571 14.4511 123.919 14.7226C123.267 14.9942 122.676 15.3939 122.181 15.8982C121.687 16.4025 121.298 17.001 121.039 17.6582C120.781 18.3154 120.656 19.0179 120.674 19.724C120.652 20.4359 120.773 21.1449 121.03 21.8093C121.286 22.4737 121.673 23.0802 122.167 23.5931C122.661 24.106 123.252 24.5149 123.907 24.7958C124.561 25.0767 125.265 25.224 125.977 25.2289C126.701 25.2369 127.418 25.0997 128.088 24.8254C128.757 24.5511 129.364 24.1453 129.874 23.632C130.384 23.1186 130.785 22.5083 131.055 21.837C131.324 21.1658 131.456 20.4473 131.443 19.724Z" fill="#767DA5"/>
<path d="M138.614 19.7634C138.614 13.7719 143.431 9.93329 148.901 9.93329C150.378 9.90337 151.842 10.2173 153.177 10.8502C154.512 11.4831 155.681 12.4177 156.593 13.5802L153.231 16.2098C152.701 15.6059 152.047 15.1234 151.313 14.7952C150.579 14.4669 149.783 14.3006 148.98 14.3077C145.701 14.3077 143.352 16.5735 143.352 19.7732C143.352 22.9729 145.701 25.2289 148.98 25.2289C149.783 25.2359 150.579 25.0697 151.313 24.7414C152.047 24.4132 152.701 23.9307 153.231 23.3268L156.593 25.9612C155.675 27.1169 154.505 28.0467 153.171 28.6789C151.838 29.3112 150.377 29.6291 148.901 29.6082C143.436 29.6082 138.614 25.7597 138.614 19.7781" fill="#767DA5"/>
<path d="M22.0046 10.6951C22.0046 10.6951 22.0046 6.03075 22.0046 6.02584C16.7603 5.07724 13.6392 0.162196 13.5114 0H8.4981C8.37031 0.162196 5.24926 5.07724 0 6.02584V10.6951C0 10.6951 6.11923 9.63839 8.49319 6.30108V29.2101H13.5164V6.29617C15.8903 9.63348 22.0096 10.6902 22.0096 10.6902" fill="#767DA5"/>
<path d="M22.0096 13.0052C19.8125 12.6169 16.8684 11.5012 15.561 10.5477V15.2661C17.5321 16.4729 19.7246 17.2734 22.0096 17.6204V13.0101" fill="#767DA5"/>
<path d="M0 17.6155C2.28329 17.2679 4.47408 16.4675 6.44362 15.2612V10.5428C5.14113 11.5258 2.19211 12.6169 0 13.0003V17.6106" fill="#767DA5"/>
<path d="M174.971 25.396C171.24 24.6932 167.962 21.6802 166.551 19.3652C166.507 19.2915 174.71 10.3216 174.71 10.3216H168.596L163.189 16.3572V0.196594H158.49V29.2297H163.189V21.233C163.189 21.233 165.401 28.291 175 29.6524L174.971 25.396Z" fill="#767DA5"/>
<path d="M82.0408 41C81.1436 40.9945 80.4111 40.717 79.8433 40.1676C79.2811 39.6181 79 38.8956 79 38C79 37.0989 79.2811 36.3736 79.8433 35.8242C80.4111 35.2747 81.1607 35 82.0919 35C82.8529 35 83.5258 35.1868 84.1106 35.5604L84.281 36.7225H84.2043C84.0794 36.25 83.8267 35.8874 83.4463 35.6346C83.0658 35.3764 82.6144 35.2473 82.0919 35.2473C81.3481 35.2473 80.7518 35.4973 80.3032 35.9973C79.8603 36.4973 79.6388 37.1593 79.6388 37.9835C79.6388 38.8077 79.8575 39.4725 80.2947 39.978C80.7376 40.478 81.3197 40.7363 82.0408 40.7527C82.6768 40.7527 83.2078 40.5852 83.6336 40.25C84.0936 39.8874 84.3719 39.2967 84.4684 38.478H84.5365L84.4343 39.772C83.9176 40.5907 83.1197 41 82.0408 41Z" fill="#767DA5"/>
<path d="M90.5821 40.8022H90.6503V40.8846H88.9041V40.8022H88.9723C89.0802 40.8022 89.1625 40.7665 89.2193 40.6951C89.2761 40.6236 89.3045 40.5577 89.3045 40.4973C89.3045 40.4313 89.2931 40.3681 89.2704 40.3077L88.8019 39.2115H86.6469L86.1785 40.283C86.1501 40.3544 86.1359 40.4231 86.1359 40.489C86.1359 40.5495 86.1643 40.6181 86.221 40.6951C86.2778 40.7665 86.363 40.8022 86.4766 40.8022H86.5447V40.8846H84.9178V40.8022H84.986C85.1052 40.8022 85.2245 40.7637 85.3437 40.6868C85.4686 40.6044 85.5709 40.4835 85.6504 40.3242C86.8939 37.7527 87.5413 36.4066 87.5924 36.2857C87.6889 36.0549 87.74 35.9011 87.7457 35.8242H87.8224L89.9263 40.3242C90.0909 40.6429 90.3096 40.8022 90.5821 40.8022ZM86.7577 38.9643H88.6997L87.7457 36.706L86.7577 38.9643Z" fill="#767DA5"/>
<path d="M92.559 38.544C92.6896 38.5769 92.8088 38.5934 92.9167 38.5934C93.0246 38.5934 93.1126 38.5907 93.1808 38.5852C93.2489 38.5797 93.3454 38.5632 93.4704 38.5357C93.5953 38.5027 93.7089 38.4533 93.8111 38.3874C94.0496 38.2445 94.2256 38.0192 94.3392 37.7115C94.3789 37.6016 94.3988 37.4533 94.3988 37.2665C94.3988 36.9313 94.2796 36.6676 94.0411 36.4753C93.8026 36.283 93.4732 36.1868 93.053 36.1868H92.2268V40.3571C92.2325 40.533 92.3148 40.6621 92.4738 40.7445C92.5476 40.783 92.63 40.8022 92.7208 40.8022H92.8401V40.8846H91.0769V40.8022H91.1961C91.3324 40.8022 91.446 40.761 91.5368 40.6786C91.6334 40.5907 91.6845 40.4863 91.6902 40.3654V36.4588C91.6845 36.3324 91.6334 36.228 91.5368 36.1456C91.446 36.0632 91.3324 36.022 91.1961 36.022H91.0769V35.9396H93.07C93.6663 35.9396 94.1376 36.0659 94.484 36.3187C94.836 36.5714 95.0121 36.9121 95.0121 37.3407C95.0121 37.6484 94.9383 37.9176 94.7906 38.1484C94.501 38.5989 94.0524 38.8242 93.4448 38.8242C93.1439 38.8242 92.8486 38.7582 92.559 38.6264V38.544Z" fill="#767DA5"/>
<path d="M95.9042 40.8022C96.0575 40.8022 96.1909 40.7582 96.3045 40.6703C96.4181 40.5824 96.4749 40.478 96.4749 40.3571V36.467C96.4749 36.3462 96.4181 36.2418 96.3045 36.1538C96.1909 36.0659 96.0547 36.022 95.8957 36.022H95.7849V35.9396H97.7099V36.022H97.5992C97.4459 36.022 97.3124 36.0632 97.1989 36.1456C97.091 36.228 97.0314 36.3297 97.02 36.4505V40.3654C97.0257 40.4863 97.0853 40.5907 97.1989 40.6786C97.3124 40.761 97.4459 40.8022 97.5992 40.8022H97.7099L97.7185 40.8846H95.7849V40.8022H95.9042Z" fill="#767DA5"/>
<path d="M100.921 36.1786V40.3654C100.926 40.5357 101.011 40.6621 101.176 40.7445C101.25 40.783 101.332 40.8022 101.423 40.8022H101.517V40.8846H99.7622V40.8022H99.8644C100.001 40.8022 100.117 40.7582 100.214 40.6703C100.31 40.5824 100.361 40.478 100.367 40.3571V36.1786H98.8252C98.6946 36.1786 98.5896 36.2198 98.5101 36.3022C98.4363 36.3846 98.3993 36.4835 98.3993 36.5989V36.7308H98.3056V35.7995C98.4192 35.8434 98.5782 35.8764 98.7826 35.8984C98.9927 35.9203 99.1489 35.9313 99.2511 35.9313H102.028C102.437 35.9313 102.755 35.8874 102.982 35.7995V36.7308H102.888V36.5989C102.888 36.4835 102.848 36.3846 102.769 36.3022C102.689 36.2198 102.587 36.1786 102.462 36.1786H100.921Z" fill="#767DA5"/>
<path d="M108.125 40.8022H108.193V40.8846H106.447V40.8022H106.515C106.623 40.8022 106.705 40.7665 106.762 40.6951C106.819 40.6236 106.847 40.5577 106.847 40.4973C106.847 40.4313 106.836 40.3681 106.813 40.3077L106.345 39.2115H104.19L103.721 40.283C103.693 40.3544 103.679 40.4231 103.679 40.489C103.679 40.5495 103.707 40.6181 103.764 40.6951C103.821 40.7665 103.906 40.8022 104.019 40.8022H104.088V40.8846H102.461V40.8022H102.529C102.648 40.8022 102.767 40.7637 102.887 40.6868C103.012 40.6044 103.114 40.4835 103.193 40.3242C104.437 37.7527 105.084 36.4066 105.135 36.2857C105.232 36.0549 105.283 35.9011 105.289 35.8242H105.365L107.469 40.3242C107.634 40.6429 107.852 40.8022 108.125 40.8022ZM104.301 38.9643H106.243L105.289 36.706L104.301 38.9643Z" fill="#767DA5"/>
<path d="M108.739 40.8022C108.875 40.8022 108.989 40.761 109.08 40.6786C109.176 40.5907 109.227 40.4863 109.233 40.3654V36.467C109.227 36.3462 109.173 36.2418 109.071 36.1538C108.975 36.0659 108.858 36.022 108.722 36.022H108.62V35.9396H110.383V36.022H110.281C110.144 36.022 110.025 36.0659 109.923 36.1538C109.826 36.2418 109.778 36.3462 109.778 36.467V40.6291H111.107C111.368 40.6291 111.59 40.5852 111.771 40.4973C111.953 40.4093 112.089 40.3049 112.18 40.1841C112.277 40.0632 112.37 39.9038 112.461 39.706H112.546L112.078 40.8846H108.62V40.8022H108.739Z" fill="#767DA5"/>
<path d="M122.513 40.8022H122.65V40.8846H120.801V40.8104H120.929C121.026 40.8104 121.108 40.7747 121.176 40.7033C121.244 40.6264 121.273 40.544 121.261 40.456L120.878 36.3104L119.089 40.1593C118.93 40.4945 118.834 40.7747 118.8 41H118.714L116.534 36.4258L116.168 40.456C116.156 40.544 116.185 40.6264 116.253 40.7033C116.321 40.7747 116.4 40.8104 116.491 40.8104H116.628V40.8846H114.975V40.8022H115.111C115.27 40.8022 115.407 40.7555 115.52 40.6621C115.64 40.5687 115.71 40.4423 115.733 40.283L116.372 35H116.457L118.834 39.9698L121.159 35H121.236L121.892 40.283C121.92 40.5027 122.033 40.6566 122.232 40.7445C122.317 40.783 122.411 40.8022 122.513 40.8022Z" fill="#767DA5"/>
<path d="M128.396 40.8022H128.464V40.8846H126.718V40.8022H126.786C126.894 40.8022 126.977 40.7665 127.033 40.6951C127.09 40.6236 127.119 40.5577 127.119 40.4973C127.119 40.4313 127.107 40.3681 127.084 40.3077L126.616 39.2115H124.461L123.993 40.283C123.964 40.3544 123.95 40.4231 123.95 40.489C123.95 40.5495 123.978 40.6181 124.035 40.6951C124.092 40.7665 124.177 40.8022 124.291 40.8022H124.359V40.8846H122.732V40.8022H122.8C122.919 40.8022 123.039 40.7637 123.158 40.6868C123.283 40.6044 123.385 40.4835 123.464 40.3242C124.708 37.7527 125.355 36.4066 125.406 36.2857C125.503 36.0549 125.554 35.9011 125.56 35.8242H125.636L127.74 40.3242C127.905 40.6429 128.124 40.8022 128.396 40.8022ZM124.572 38.9643H126.514L125.56 36.706L124.572 38.9643Z" fill="#767DA5"/>
<path d="M134.615 36.022C134.49 36.022 134.382 36.0632 134.291 36.1456C134.2 36.2225 134.152 36.3187 134.146 36.4341V39.9451C134.146 40.2637 134.166 40.5659 134.206 40.8516L134.223 41H134.146L129.717 36.9368V40.3736C129.717 40.4945 129.763 40.5962 129.853 40.6786C129.944 40.761 130.055 40.8022 130.186 40.8022H130.33V40.8846H128.721V40.8022H128.865C128.996 40.8022 129.107 40.761 129.198 40.6786C129.288 40.5962 129.334 40.4945 129.334 40.3736V36.8462C129.334 36.511 129.314 36.2115 129.274 35.9478L129.257 35.8159L129.351 35.8242L133.772 39.8544V36.4341C133.76 36.3187 133.709 36.2225 133.618 36.1456C133.527 36.0632 133.42 36.022 133.295 36.022H133.15V35.9396H134.76V36.022H134.615Z" fill="#767DA5"/>
<path d="M140.682 40.8022H140.75V40.8846H139.004V40.8022H139.072C139.18 40.8022 139.262 40.7665 139.319 40.6951C139.376 40.6236 139.404 40.5577 139.404 40.4973C139.404 40.4313 139.393 40.3681 139.37 40.3077L138.902 39.2115H136.747L136.278 40.283C136.25 40.3544 136.236 40.4231 136.236 40.489C136.236 40.5495 136.264 40.6181 136.321 40.6951C136.378 40.7665 136.463 40.8022 136.576 40.8022H136.645V40.8846H135.018V40.8022H135.086C135.205 40.8022 135.324 40.7637 135.444 40.6868C135.569 40.6044 135.671 40.4835 135.75 40.3242C136.994 37.7527 137.641 36.4066 137.692 36.2857C137.789 36.0549 137.84 35.9011 137.846 35.8242H137.922L140.026 40.3242C140.191 40.6429 140.409 40.8022 140.682 40.8022ZM136.858 38.9643H138.8L137.846 36.706L136.858 38.9643Z" fill="#767DA5"/>
<path d="M143.803 41C142.957 40.9945 142.279 40.761 141.768 40.2995C141.262 39.8324 141.009 39.2033 141.009 38.4121C141.009 37.6154 141.262 36.9863 141.768 36.5247C142.279 36.0577 142.934 35.8242 143.735 35.8242C144.541 35.8242 145.226 35.989 145.788 36.3187L145.975 37.489H145.899C145.779 37.0055 145.547 36.6484 145.2 36.4176C144.859 36.1868 144.374 36.0714 143.744 36.0714C143.119 36.0714 142.608 36.283 142.21 36.706C141.819 37.1236 141.623 37.6923 141.623 38.4121C141.623 39.1319 141.821 39.7033 142.219 40.1264C142.616 40.544 143.164 40.7527 143.863 40.7527C144.567 40.7527 145.172 40.5137 145.677 40.0357L145.686 38.9396C145.691 38.8407 145.657 38.7637 145.583 38.7088C145.515 38.6484 145.419 38.6181 145.294 38.6181H145.175V38.5357H146.733V38.6181H146.614C146.359 38.6181 146.231 38.728 146.231 38.9478V39.9368C145.992 40.2225 145.663 40.4725 145.243 40.6868C144.828 40.8956 144.348 41 143.803 41Z" fill="#767DA5"/>
<path d="M147.368 40.8022C147.505 40.8022 147.618 40.761 147.709 40.6786C147.806 40.5907 147.857 40.4863 147.862 40.3654V36.4505C147.862 36.3297 147.814 36.228 147.717 36.1456C147.621 36.0632 147.505 36.022 147.368 36.022H147.249V35.9396H149.736C149.969 35.9396 150.173 35.9231 150.349 35.8901C150.526 35.8571 150.639 35.8297 150.69 35.8077V36.7473L150.596 36.739V36.6154C150.596 36.5 150.557 36.4011 150.477 36.3187C150.398 36.2363 150.296 36.1951 150.171 36.1951H148.399V38.2885H149.855C149.969 38.2885 150.054 38.2555 150.111 38.1896C150.173 38.1236 150.205 38.0412 150.205 37.9423V37.8352H150.298V38.989H150.205V38.8819C150.205 38.728 150.145 38.6236 150.026 38.5687C149.98 38.5522 149.932 38.5412 149.881 38.5357H148.399V40.6291H149.736C149.997 40.6291 150.216 40.5852 150.392 40.4973C150.574 40.4093 150.71 40.3049 150.801 40.1841C150.897 40.0632 150.994 39.9038 151.091 39.706H151.176L150.707 40.8846H147.249V40.8022H147.368Z" fill="#767DA5"/>
<path d="M158.722 40.8022H158.849V40.8846H157.078V40.8104H157.205C157.291 40.8104 157.364 40.7802 157.427 40.7198C157.495 40.6538 157.523 40.5769 157.512 40.489L157.069 37.0934L155.459 40.1593C155.3 40.4945 155.201 40.7747 155.161 41H155.076L153.023 37.1676L152.64 40.489C152.629 40.5714 152.654 40.6456 152.717 40.7115C152.785 40.7775 152.864 40.8104 152.955 40.8104H153.074V40.8846H151.499V40.8022H151.626C151.831 40.8022 151.99 40.7308 152.103 40.5879C152.16 40.5165 152.194 40.4313 152.205 40.3324L152.87 35.8242H152.955L155.204 40.011L157.376 35.8242H157.452L158.142 40.3489C158.165 40.4863 158.23 40.5962 158.338 40.6786C158.446 40.761 158.574 40.8022 158.722 40.8022Z" fill="#767DA5"/>
<path d="M159.496 40.8022C159.632 40.8022 159.746 40.761 159.837 40.6786C159.933 40.5907 159.984 40.4863 159.99 40.3654V36.4505C159.99 36.3297 159.942 36.228 159.845 36.1456C159.749 36.0632 159.632 36.022 159.496 36.022H159.377V35.9396H161.864C162.097 35.9396 162.301 35.9231 162.477 35.8901C162.653 35.8571 162.767 35.8297 162.818 35.8077V36.7473L162.724 36.739V36.6154C162.724 36.5 162.685 36.4011 162.605 36.3187C162.526 36.2363 162.423 36.1951 162.298 36.1951H160.527V38.2885H161.983C162.097 38.2885 162.182 38.2555 162.239 38.1896C162.301 38.1236 162.332 38.0412 162.332 37.9423V37.8352H162.426V38.989H162.332V38.8819C162.332 38.728 162.273 38.6236 162.154 38.5687C162.108 38.5522 162.06 38.5412 162.009 38.5357H160.527V40.6291H161.864C162.125 40.6291 162.344 40.5852 162.52 40.4973C162.702 40.4093 162.838 40.3049 162.929 40.1841C163.025 40.0632 163.122 39.9038 163.218 39.706H163.303L162.835 40.8846H159.377V40.8022H159.496Z" fill="#767DA5"/>
<path d="M169.751 36.022C169.626 36.022 169.518 36.0632 169.427 36.1456C169.336 36.2225 169.288 36.3187 169.282 36.4341V39.9451C169.282 40.2637 169.302 40.5659 169.342 40.8516L169.359 41H169.282L164.853 36.9368V40.3736C164.853 40.4945 164.898 40.5962 164.989 40.6786C165.08 40.761 165.191 40.8022 165.321 40.8022H165.466V40.8846H163.856V40.8022H164.001C164.132 40.8022 164.242 40.761 164.333 40.6786C164.424 40.5962 164.47 40.4945 164.47 40.3736V36.8462C164.47 36.511 164.45 36.2115 164.41 35.9478L164.393 35.8159L164.487 35.8242L168.907 39.8544V36.4341C168.896 36.3187 168.845 36.2225 168.754 36.1456C168.663 36.0632 168.555 36.022 168.43 36.022H168.285V35.9396H169.895V36.022H169.751Z" fill="#767DA5"/>
<path d="M172.939 36.1786V40.3654C172.944 40.5357 173.03 40.6621 173.194 40.7445C173.268 40.783 173.35 40.8022 173.441 40.8022H173.535V40.8846H171.78V40.8022H171.883C172.019 40.8022 172.135 40.7582 172.232 40.6703C172.328 40.5824 172.379 40.478 172.385 40.3571V36.1786H170.843C170.713 36.1786 170.608 36.2198 170.528 36.3022C170.454 36.3846 170.417 36.4835 170.417 36.5989V36.7308H170.324V35.7995C170.437 35.8434 170.596 35.8764 170.801 35.8984C171.011 35.9203 171.167 35.9313 171.269 35.9313H174.046C174.455 35.9313 174.773 35.8874 175 35.7995V36.7308H174.906V36.5989C174.906 36.4835 174.867 36.3846 174.787 36.3022C174.708 36.2198 174.605 36.1786 174.48 36.1786H172.939Z" fill="#767DA5"/>
</svg>
