<svg width="173" height="30" viewBox="0 0 173 30" fill="none" xmlns="http://www.w3.org/2000/svg">
<g clip-path="url(#clip0)">
<path d="M3.17724 25.3479C3.09387 25.1843 2.96309 25.0488 2.80148 24.9586C2.63987 24.8683 2.45471 24.8274 2.26947 24.841C2.04819 24.8259 1.82941 24.8946 1.65786 25.0332C1.48632 25.1718 1.37496 25.3697 1.34656 25.5865C1.34656 26.0114 1.77019 26.2351 2.10304 26.332L2.50398 26.4811C3.26046 26.7868 3.87321 27.2266 3.87321 28.1287C3.88465 28.3593 3.84789 28.5898 3.76519 28.8058C3.6825 29.0218 3.55564 29.2188 3.39249 29.3845C3.22934 29.5501 3.03338 29.681 2.81677 29.7689C2.60016 29.8569 2.36752 29.9 2.1333 29.8956C1.70789 29.8939 1.29828 29.7366 0.983819 29.4543C0.669358 29.1719 0.472439 28.7846 0.431213 28.3673L1.12718 28.2257C1.12718 28.4985 1.23716 28.7602 1.43294 28.9531C1.62872 29.1461 1.89425 29.2545 2.17112 29.2545C2.44799 29.2545 2.71353 29.1461 2.9093 28.9531C3.10508 28.7602 3.21507 28.4985 3.21507 28.2257C3.21507 27.6367 2.73849 27.3832 2.2619 27.1894L1.87609 27.0254C1.24821 26.7346 0.680853 26.3767 0.680853 25.6163C0.691362 25.4177 0.742073 25.2232 0.830002 25.0442C0.917932 24.8652 1.0413 24.7054 1.19285 24.5741C1.3444 24.4428 1.52107 24.3427 1.71246 24.2797C1.90385 24.2167 2.1061 24.1921 2.30729 24.2073C2.59777 24.2027 2.88395 24.2768 3.1347 24.4214C3.38545 24.566 3.59117 24.7756 3.72948 25.0273L3.17724 25.3479Z" fill="#767DA5"/>
<path d="M10.3033 27.0477C10.2654 27.7788 9.94398 28.4676 9.40549 28.9718C8.86701 29.4761 8.15258 29.7572 7.40978 29.7572C6.66698 29.7572 5.95256 29.4761 5.41407 28.9718C4.87559 28.4676 4.55418 27.7788 4.51624 27.0477C4.55418 26.3166 4.87559 25.6278 5.41407 25.1236C5.95256 24.6193 6.66698 24.3382 7.40978 24.3382C8.15258 24.3382 8.86701 24.6193 9.40549 25.1236C9.94398 25.6278 10.2654 26.3166 10.3033 27.0477ZM9.61493 27.0477C9.63253 26.7516 9.58855 26.4551 9.48569 26.1763C9.38283 25.8976 9.22326 25.6425 9.01676 25.4267C8.81027 25.211 8.56121 25.039 8.28487 24.9215C8.00853 24.804 7.71074 24.7434 7.40978 24.7434C7.10882 24.7434 6.81103 24.804 6.53469 24.9215C6.25835 25.039 6.00929 25.211 5.8028 25.4267C5.5963 25.6425 5.43673 25.8976 5.33387 26.1763C5.23101 26.4551 5.18703 26.7516 5.20463 27.0477C5.18703 27.3438 5.23101 27.6403 5.33387 27.9191C5.43673 28.1978 5.5963 28.4529 5.8028 28.6687C6.00929 28.8845 6.25835 29.0564 6.53469 29.1739C6.81103 29.2914 7.10882 29.352 7.40978 29.352C7.71074 29.352 8.00853 29.2914 8.28487 29.1739C8.56121 29.0564 8.81027 28.8845 9.01676 28.6687C9.22326 28.4529 9.38283 28.1978 9.48569 27.9191C9.58855 27.6403 9.63253 27.3438 9.61493 27.0477Z" fill="#767DA5"/>
<path d="M11.9146 29.1576H13.6167V29.7763H11.2262V24.3191H11.9146V29.1576Z" fill="#767DA5"/>
<path d="M14.8876 24.3191V27.5398C14.8876 28.4344 15.1599 29.2545 16.219 29.2545C17.278 29.2545 17.5579 28.4344 17.5579 27.5398V24.3191H18.2463V27.7709C18.2632 28.043 18.2234 28.3157 18.1294 28.5721C18.0353 28.8285 17.889 29.0633 17.6994 29.2619C17.5099 29.4605 17.2811 29.6187 17.0271 29.7269C16.7731 29.8351 16.4994 29.8909 16.2227 29.8909C15.9461 29.8909 15.6723 29.8351 15.4184 29.7269C15.1644 29.6187 14.9356 29.4605 14.7461 29.2619C14.5565 29.0633 14.4102 28.8285 14.3161 28.5721C14.2221 28.3157 14.1823 28.043 14.1992 27.7709V24.3191H14.8876Z" fill="#767DA5"/>
<path d="M20.9319 29.7763H20.2435V24.9453H18.912V24.3191H22.2254V24.9453H20.9319V29.7763Z" fill="#767DA5"/>
<path d="M23.7082 29.7763H23.0198V24.3191H23.7082V29.7763Z" fill="#767DA5"/>
<path d="M30.3879 27.0477C30.35 27.7788 30.0286 28.4676 29.4901 28.9718C28.9516 29.4761 28.2372 29.7572 27.4944 29.7572C26.7516 29.7572 26.0372 29.4761 25.4987 28.9718C24.9602 28.4676 24.6388 27.7788 24.6008 27.0477C24.6388 26.3166 24.9602 25.6278 25.4987 25.1236C26.0372 24.6193 26.7516 24.3382 27.4944 24.3382C28.2372 24.3382 28.9516 24.6193 29.4901 25.1236C30.0286 25.6278 30.35 26.3166 30.3879 27.0477ZM29.6995 27.0477C29.7171 26.7516 29.6731 26.4551 29.5703 26.1763C29.4674 25.8976 29.3079 25.6425 29.1014 25.4267C28.8949 25.211 28.6458 25.039 28.3695 24.9215C28.0931 24.804 27.7953 24.7434 27.4944 24.7434C27.1934 24.7434 26.8956 24.804 26.6193 24.9215C26.3429 25.039 26.0939 25.211 25.8874 25.4267C25.6809 25.6425 25.5213 25.8976 25.4185 26.1763C25.3156 26.4551 25.2716 26.7516 25.2892 27.0477C25.2716 27.3438 25.3156 27.6403 25.4185 27.9191C25.5213 28.1978 25.6809 28.4529 25.8874 28.6687C26.0939 28.8845 26.3429 29.0564 26.6193 29.1739C26.8956 29.2914 27.1934 29.352 27.4944 29.352C27.7953 29.352 28.0931 29.2914 28.3695 29.1739C28.6458 29.0564 28.8949 28.8845 29.1014 28.6687C29.3079 28.4529 29.4674 28.1978 29.5703 27.9191C29.6731 27.6403 29.7171 27.3438 29.6995 27.0477Z" fill="#767DA5"/>
<path d="M31.2427 24.0582L35.3883 28.33V24.3191H36.0767V30L31.9311 25.7132V29.7764H31.2427V24.0582Z" fill="#767DA5"/>
<path d="M39.7607 25.3479C39.68 25.1866 39.5532 25.052 39.396 24.9606C39.2388 24.8693 39.058 24.8251 38.8756 24.8335C38.6544 24.8184 38.4356 24.8872 38.264 25.0257C38.0925 25.1643 37.9811 25.3622 37.9527 25.579C37.9527 26.004 38.3764 26.2276 38.7092 26.3246L39.1026 26.4737C39.8591 26.7793 40.4718 27.2192 40.4718 28.1213C40.475 28.3485 40.4314 28.5741 40.3434 28.7842C40.2555 28.9943 40.1252 29.1847 39.9603 29.3436C39.7955 29.5026 39.5996 29.6269 39.3845 29.709C39.1695 29.791 38.9397 29.8292 38.7092 29.8211C38.2835 29.8179 37.8738 29.6603 37.5585 29.3784C37.2431 29.0965 37.0442 28.71 36.9996 28.2927L37.6955 28.1511C37.6955 28.424 37.8055 28.6856 38.0013 28.8786C38.1971 29.0715 38.4626 29.1799 38.7395 29.1799C39.0164 29.1799 39.2819 29.0715 39.4777 28.8786C39.6734 28.6856 39.7834 28.424 39.7834 28.1511C39.7834 27.5621 39.3068 27.3086 38.8303 27.1148L38.452 26.9508C37.8241 26.6899 37.2492 26.332 37.2492 25.5716C37.2597 25.373 37.3104 25.1785 37.3984 24.9995C37.4863 24.8205 37.6097 24.6607 37.7612 24.5294C37.9128 24.3981 38.0894 24.298 38.2808 24.235C38.4722 24.172 38.6745 24.1473 38.8756 24.1625C39.1661 24.158 39.4523 24.2321 39.7031 24.3766C39.9538 24.5212 40.1595 24.7308 40.2978 24.9826L39.7607 25.3479Z" fill="#767DA5"/>
<path d="M44.5417 24.9453V26.4811H46.4631V27.0999H44.5417V29.7763H43.876V24.3191H46.5539V24.9453H44.5417Z" fill="#767DA5"/>
<path d="M52.9538 27.0477C52.9158 27.7788 52.5944 28.4676 52.0559 28.9718C51.5175 29.4761 50.803 29.7572 50.0602 29.7572C49.3174 29.7572 48.603 29.4761 48.0645 28.9718C47.526 28.4676 47.2046 27.7788 47.1667 27.0477C47.2046 26.3166 47.526 25.6278 48.0645 25.1236C48.603 24.6193 49.3174 24.3382 50.0602 24.3382C50.803 24.3382 51.5175 24.6193 52.0559 25.1236C52.5944 25.6278 52.9158 26.3166 52.9538 27.0477ZM52.2654 27.0477C52.283 26.7516 52.239 26.4551 52.1361 26.1763C52.0333 25.8976 51.8737 25.6425 51.6672 25.4267C51.4607 25.211 51.2117 25.039 50.9353 24.9215C50.659 24.804 50.3612 24.7434 50.0602 24.7434C49.7593 24.7434 49.4615 24.804 49.1851 24.9215C48.9088 25.039 48.6597 25.211 48.4533 25.4267C48.2468 25.6425 48.0872 25.8976 47.9843 26.1763C47.8815 26.4551 47.8375 26.7516 47.8551 27.0477C47.8375 27.3438 47.8815 27.6403 47.9843 27.9191C48.0872 28.1978 48.2468 28.4529 48.4533 28.6687C48.6597 28.8845 48.9088 29.0564 49.1851 29.1739C49.4615 29.2914 49.7593 29.352 50.0602 29.352C50.3612 29.352 50.659 29.2914 50.9353 29.1739C51.2117 29.0564 51.4607 28.8845 51.6672 28.6687C51.8737 28.4529 52.0333 28.1978 52.1361 27.9191C52.239 27.6403 52.283 27.3438 52.2654 27.0477Z" fill="#767DA5"/>
<path d="M57.3414 29.7764H56.5017L54.8752 27.4727H54.5878V29.7764H53.8994V24.3191H54.739C55.2397 24.2791 55.7424 24.3664 56.1991 24.5726C56.424 24.7092 56.6088 24.9016 56.7349 25.1305C56.8609 25.3594 56.924 25.6169 56.9177 25.8773C56.9206 26.2424 56.7874 26.596 56.5434 26.8708C56.2994 27.1456 55.9615 27.3227 55.5939 27.3683L57.3414 29.7764ZM54.5878 26.9061H54.8071C55.5107 26.9061 56.2747 26.7719 56.2747 25.9071C56.2747 25.0423 55.4577 24.9304 54.7617 24.9304H54.5726L54.5878 26.9061Z" fill="#767DA5"/>
<path d="M63.7564 26.5184V24.2818H64.4448V29.7391H63.7564V27.1595H61.1314V29.7763H60.443V24.3191H61.1314V26.5557L63.7564 26.5184Z" fill="#767DA5"/>
<path d="M65.6929 24.3191H68.6583V24.9453H66.3889V26.4364H68.6054V27.0552H66.3813V29.1203H68.6508V29.7391H65.6929V24.3191Z" fill="#767DA5"/>
<path d="M70.5496 28.412L69.9141 29.7764H69.1577L71.7902 24.088L74.4303 29.7764H73.6739L73.046 28.412H70.5496ZM71.8129 25.579L70.8295 27.8156H72.7963L71.8129 25.579Z" fill="#767DA5"/>
<path d="M75.8525 29.1576H77.5319V29.7763H75.1641V24.3191H75.8525V29.1576Z" fill="#767DA5"/>
<path d="M79.5063 29.7763H78.8104V24.9453H77.5016V24.3191H80.815V24.9453H79.5063V29.7763Z" fill="#767DA5"/>
<path d="M84.8698 26.5184V24.2818H85.5582V29.7391H84.8698V27.1595H82.2372V29.7763H81.5488V24.3191H82.2372V26.5557L84.8698 26.5184Z" fill="#767DA5"/>
<path d="M93.1911 25.3479C92.8639 25.0621 92.4599 24.8755 92.0277 24.8106C91.5954 24.7457 91.1533 24.8052 90.7546 24.982C90.3559 25.1588 90.0174 25.4453 89.78 25.8071C89.5426 26.169 89.4163 26.5907 89.4163 27.0216C89.4163 27.4525 89.5426 27.8743 89.78 28.2361C90.0174 28.5979 90.3559 28.8845 90.7546 29.0613C91.1533 29.2381 91.5954 29.2976 92.0277 29.2327C92.4599 29.1678 92.8639 28.9812 93.1911 28.6953V29.493C92.7478 29.7407 92.2482 29.8741 91.7387 29.8807C91.3619 29.8827 90.9884 29.8112 90.6397 29.6705C90.291 29.5298 89.974 29.3225 89.7069 29.0606C89.4398 28.7987 89.2278 28.4874 89.0831 28.1445C88.9385 27.8016 88.864 27.434 88.864 27.0626C88.863 26.6835 88.9384 26.308 89.0858 25.9578C89.2332 25.6077 89.4498 25.2899 89.7228 25.0229C89.9959 24.7558 90.32 24.5449 90.6765 24.4023C91.0329 24.2598 91.4145 24.1884 91.7992 24.1923C92.2885 24.185 92.7703 24.3115 93.1911 24.5577V25.3479Z" fill="#767DA5"/>
<path d="M95.0445 28.412L94.4166 29.7764H93.6601L96.3002 24.088L98.9403 29.7764H98.1839L97.5862 28.412H95.0445ZM96.3154 25.579L95.3319 27.8156H97.2988L96.3154 25.579Z" fill="#767DA5"/>
<path d="M103.101 29.7764H102.269L100.612 27.4727H100.325V29.7764H99.6363V24.3191H100.468C100.969 24.2784 101.472 24.3657 101.928 24.5726C102.16 24.7046 102.353 24.8949 102.486 25.1241C102.619 25.3534 102.687 25.6132 102.685 25.8772C102.688 26.2424 102.555 26.596 102.311 26.8708C102.067 27.1456 101.729 27.3227 101.361 27.3683L103.101 29.7764ZM100.355 26.9061H100.612C101.316 26.9061 102.08 26.7719 102.08 25.9071C102.08 25.0423 101.255 24.9304 100.567 24.9304H100.385L100.355 26.9061Z" fill="#767DA5"/>
<path d="M103.895 24.3191H106.861V24.9453H104.591V26.4364H106.8V27.0552H104.591V29.1203H106.861V29.7391H103.895V24.3191Z" fill="#767DA5"/>
<path d="M111.021 29.7763H110.333V24.3191H111.089C112.792 24.3191 113.359 24.9006 113.359 25.8996C113.359 27.0477 112.466 27.4876 111.422 27.4876H111.029L111.021 29.7763ZM111.021 26.8837H111.241C111.944 26.8837 112.701 26.7495 112.701 25.8847C112.701 25.0199 111.884 24.9304 111.188 24.9304H111.006L111.021 26.8837Z" fill="#767DA5"/>
<path d="M117.641 29.7763H116.808L115.182 27.4727H114.895V29.7763H114.229V24.3191H115.061C115.557 24.2915 116.051 24.389 116.498 24.6024C116.73 24.7344 116.923 24.9247 117.056 25.1539C117.188 25.3832 117.257 25.643 117.255 25.907C117.258 26.2722 117.125 26.6258 116.881 26.9006C116.636 27.1754 116.299 27.3525 115.931 27.3981L117.641 29.7763ZM114.895 26.9061H115.114C115.817 26.9061 116.582 26.7719 116.582 25.907C116.582 25.0422 115.757 24.9304 115.069 24.9304H114.887L114.895 26.9061Z" fill="#767DA5"/>
<path d="M123.836 27.0477C123.798 27.7788 123.477 28.4676 122.938 28.9718C122.4 29.4761 121.685 29.7572 120.943 29.7572C120.2 29.7572 119.485 29.4761 118.947 28.9718C118.408 28.4676 118.087 27.7788 118.049 27.0477C118.087 26.3166 118.408 25.6278 118.947 25.1236C119.485 24.6193 120.2 24.3382 120.943 24.3382C121.685 24.3382 122.4 24.6193 122.938 25.1236C123.477 25.6278 123.798 26.3166 123.836 27.0477ZM123.148 27.0477C123.165 26.7516 123.121 26.4551 123.019 26.1763C122.916 25.8976 122.756 25.6425 122.55 25.4267C122.343 25.211 122.094 25.039 121.818 24.9215C121.541 24.804 121.244 24.7434 120.943 24.7434C120.642 24.7434 120.344 24.804 120.068 24.9215C119.791 25.039 119.542 25.211 119.336 25.4267C119.129 25.6425 118.97 25.8976 118.867 26.1763C118.764 26.4551 118.72 26.7516 118.738 27.0477C118.72 27.3438 118.764 27.6403 118.867 27.9191C118.97 28.1978 119.129 28.4529 119.336 28.6687C119.542 28.8845 119.791 29.0564 120.068 29.1739C120.344 29.2914 120.642 29.352 120.943 29.352C121.244 29.352 121.541 29.2914 121.818 29.1739C122.094 29.0564 122.343 28.8845 122.55 28.6687C122.756 28.4529 122.916 28.1978 123.019 27.9191C123.121 27.6403 123.165 27.3438 123.148 27.0477Z" fill="#767DA5"/>
<path d="M125.432 24.9453V26.4811H127.354V27.0999H125.432V29.7763H124.744V24.3191H127.422V24.9453H125.432Z" fill="#767DA5"/>
<path d="M128.473 24.3191H131.446V24.9453H129.177V26.4364H131.393V27.0552H129.177V29.1203H131.446V29.7391H128.473V24.3191Z" fill="#767DA5"/>
<path d="M135.002 25.3479C134.919 25.1866 134.791 25.0523 134.632 24.961C134.474 24.8698 134.292 24.8255 134.109 24.8335C133.888 24.8184 133.669 24.8872 133.498 25.0257C133.326 25.1643 133.215 25.3622 133.186 25.579C133.186 26.004 133.618 26.2276 133.943 26.3246L134.336 26.4737C135.093 26.7793 135.705 27.2192 135.705 28.1213C135.709 28.3485 135.665 28.5741 135.577 28.7842C135.489 28.9943 135.359 29.1847 135.194 29.3436C135.029 29.5026 134.833 29.6269 134.618 29.709C134.403 29.791 134.173 29.8292 133.943 29.8211C133.517 29.8179 133.107 29.6603 132.792 29.3784C132.477 29.0965 132.278 28.71 132.233 28.2927L132.929 28.1511C132.929 28.2862 132.956 28.42 133.009 28.5448C133.061 28.6696 133.138 28.7831 133.235 28.8786C133.332 28.9741 133.447 29.0499 133.574 29.1016C133.7 29.1533 133.836 29.1799 133.973 29.1799C134.11 29.1799 134.246 29.1533 134.373 29.1016C134.499 29.0499 134.614 28.9741 134.711 28.8786C134.808 28.7831 134.885 28.6696 134.938 28.5448C134.99 28.42 135.017 28.2862 135.017 28.1511C135.017 27.5621 134.54 27.3086 134.071 27.1148L133.686 26.9508C133.058 26.6899 132.483 26.332 132.483 25.5716C132.493 25.373 132.544 25.1785 132.632 24.9995C132.72 24.8205 132.843 24.6607 132.995 24.5294C133.146 24.3981 133.323 24.298 133.514 24.235C133.706 24.172 133.908 24.1473 134.109 24.1625C134.4 24.1563 134.687 24.2297 134.938 24.3744C135.189 24.5192 135.394 24.7297 135.531 24.9826L135.002 25.3479Z" fill="#767DA5"/>
<path d="M139.193 25.3479C139.112 25.1866 138.985 25.052 138.828 24.9607C138.671 24.8693 138.49 24.8251 138.308 24.8335C138.086 24.8184 137.868 24.8872 137.696 25.0257C137.525 25.1643 137.413 25.3622 137.385 25.579C137.385 26.004 137.808 26.2276 138.141 26.3246L138.542 26.4737C139.299 26.7793 139.911 27.2192 139.911 28.1213C139.915 28.5633 139.745 28.9894 139.437 29.3108C139.129 29.6322 138.707 29.8239 138.259 29.8461C137.811 29.8682 137.371 29.719 137.032 29.4295C136.693 29.1401 136.481 28.7329 136.439 28.2928L137.135 28.1511C137.133 28.2887 137.159 28.4253 137.212 28.5525C137.266 28.6798 137.344 28.7951 137.444 28.8913C137.544 28.9876 137.663 29.0628 137.793 29.1124C137.923 29.162 138.062 29.185 138.202 29.1799C138.462 29.1671 138.707 29.0591 138.891 28.8771C139.074 28.695 139.182 28.4521 139.193 28.1958C139.193 27.6069 138.716 27.3534 138.24 27.1596L137.854 26.9955C137.226 26.7346 136.659 26.3767 136.659 25.6163C136.669 25.4177 136.72 25.2232 136.808 25.0442C136.896 24.8652 137.019 24.7054 137.171 24.5741C137.322 24.4428 137.499 24.3427 137.69 24.2797C137.882 24.2167 138.084 24.1921 138.285 24.2073C138.575 24.2024 138.86 24.2764 139.109 24.4211C139.359 24.5658 139.563 24.7756 139.7 25.0273L139.193 25.3479Z" fill="#767DA5"/>
<path d="M141.583 29.7763H140.895V24.3191H141.583V29.7763Z" fill="#767DA5"/>
<path d="M148.271 27.0477C148.233 27.7788 147.911 28.4676 147.373 28.9718C146.834 29.4761 146.12 29.7572 145.377 29.7572C144.634 29.7572 143.92 29.4761 143.381 28.9718C142.843 28.4676 142.521 27.7788 142.484 27.0477C142.521 26.3166 142.843 25.6278 143.381 25.1236C143.92 24.6193 144.634 24.3382 145.377 24.3382C146.12 24.3382 146.834 24.6193 147.373 25.1236C147.911 25.6278 148.233 26.3166 148.271 27.0477ZM147.582 27.0477C147.6 26.7516 147.556 26.4551 147.453 26.1763C147.35 25.8976 147.191 25.6425 146.984 25.4267C146.778 25.211 146.528 25.039 146.252 24.9215C145.976 24.804 145.678 24.7434 145.377 24.7434C145.076 24.7434 144.778 24.804 144.502 24.9215C144.226 25.039 143.977 25.211 143.77 25.4267C143.564 25.6425 143.404 25.8976 143.301 26.1763C143.198 26.4551 143.154 26.7516 143.172 27.0477C143.154 27.3438 143.198 27.6403 143.301 27.9191C143.404 28.1978 143.564 28.4529 143.77 28.6687C143.977 28.8845 144.226 29.0564 144.502 29.1739C144.778 29.2914 145.076 29.352 145.377 29.352C145.678 29.352 145.976 29.2914 146.252 29.1739C146.528 29.0564 146.778 28.8845 146.984 28.6687C147.191 28.4529 147.35 28.1978 147.453 27.9191C147.556 27.6403 147.6 27.3438 147.582 27.0477Z" fill="#767DA5"/>
<path d="M149.118 24.0582L153.263 28.33V24.3191H153.952V30L149.784 25.7132V29.7764H149.095L149.118 24.0582Z" fill="#767DA5"/>
<path d="M155.972 28.412L155.336 29.7764H154.58L157.22 24.088L159.86 29.7764H159.103L158.476 28.412H155.972ZM157.235 25.579L156.251 27.8156H158.218L157.235 25.579Z" fill="#767DA5"/>
<path d="M161.275 29.1576H162.954V29.7763H160.586V24.3191H161.275V29.1576Z" fill="#767DA5"/>
<path d="M166.108 25.3479C166.028 25.1866 165.901 25.052 165.744 24.9607C165.587 24.8693 165.406 24.8251 165.223 24.8335C165.002 24.8184 164.783 24.8872 164.612 25.0257C164.44 25.1643 164.329 25.3622 164.3 25.579C164.3 26.004 164.724 26.2276 165.057 26.3246L165.45 26.4737C166.207 26.7793 166.82 27.2192 166.82 28.1213C166.823 28.3485 166.779 28.5741 166.691 28.7842C166.603 28.9943 166.473 29.1847 166.308 29.3436C166.143 29.5026 165.947 29.6269 165.732 29.709C165.517 29.791 165.287 29.8292 165.057 29.8211C164.652 29.808 164.264 29.6554 163.962 29.3898C163.659 29.1242 163.46 28.7623 163.4 28.3673L164.096 28.2256C164.096 28.4985 164.206 28.7602 164.402 28.9531C164.598 29.1461 164.863 29.2545 165.14 29.2545C165.417 29.2545 165.683 29.1461 165.878 28.9531C166.074 28.7602 166.184 28.4985 166.184 28.2256C166.184 27.6367 165.707 27.3832 165.231 27.1894L164.853 27.0254C164.225 26.7644 163.65 26.4066 163.65 25.6461C163.66 25.4475 163.711 25.253 163.799 25.074C163.887 24.8951 164.01 24.7352 164.162 24.6039C164.313 24.4726 164.49 24.3725 164.681 24.3095C164.873 24.2465 165.075 24.2219 165.276 24.2371C165.567 24.2325 165.853 24.3066 166.104 24.4512C166.354 24.5958 166.56 24.8054 166.698 25.0572L166.108 25.3479Z" fill="#767DA5"/>
<path d="M37.2568 14.3737C37.1983 14.966 37.2705 15.5636 37.4686 16.1257C37.6123 16.3568 37.8998 16.4538 38.4671 16.4761L39.6094 16.5432V17.244C38.3688 17.1993 37.2568 17.1769 36.1674 17.1769C35.0781 17.1769 33.898 17.1769 32.6574 17.244V16.5432L33.7921 16.4761C34.3594 16.4761 34.6469 16.3568 34.7906 16.1257C34.9887 15.5636 35.061 14.966 35.0024 14.3737V9.15506C34.7226 9.15506 34.0795 9.11032 33.0356 9.11032H27.483C26.4391 9.11032 25.7961 9.11032 25.5162 9.15506V14.3737C25.4552 14.9654 25.5249 15.5631 25.7204 16.1257C25.8641 16.3568 26.144 16.4538 26.7114 16.4761L27.8537 16.5432V17.244C26.6206 17.1993 25.5086 17.1769 24.4117 17.1769C23.3148 17.1769 22.1422 17.1769 20.9016 17.244V16.5432L22.0439 16.4761C22.6113 16.4761 22.8912 16.3568 23.0349 16.1257C23.2367 15.5645 23.3116 14.9665 23.2543 14.3737V3.86927C23.3108 3.27651 23.236 2.67871 23.0349 2.11728C22.8912 1.88617 22.6113 1.78925 22.0439 1.76689L20.9016 1.69979V0.998993C22.1347 1.04372 23.2543 1.06609 24.4117 1.06609C25.5691 1.06609 26.6206 1.06609 27.8537 0.998993V1.69979L26.7114 1.76689C26.144 1.76689 25.8641 1.88617 25.7204 2.11728C25.523 2.67953 25.4508 3.27706 25.5086 3.86927V8.03677C25.7885 8.03677 26.4315 8.0815 27.4754 8.0815H33.028C34.072 8.0815 34.715 8.0815 34.9949 8.03677V3.86927C35.0575 3.27813 34.9905 2.68063 34.7982 2.11728C34.6545 1.88617 34.367 1.78925 33.7996 1.76689L32.6649 1.69979V0.998993C33.898 1.04372 35.01 1.06609 36.175 1.06609C37.34 1.06609 38.3764 1.06609 39.617 0.998993V1.69979L38.4747 1.76689C37.9073 1.76689 37.6199 1.88617 37.4761 2.11728C37.2788 2.67953 37.2065 3.27706 37.2643 3.86927L37.2568 14.3737Z" fill="#767DA5"/>
<path d="M42.1361 6.53081C42.1838 6.05669 42.1244 5.57804 41.9621 5.12922C41.8486 4.94284 41.6217 4.86829 41.2056 4.84592L40.2979 4.79374V4.23459C40.8274 4.23459 41.3569 4.23459 41.8865 4.23459H43.5053C45.1545 4.23459 46.9019 4.1824 47.9837 4.1824C48.8385 4.1824 49.6934 4.1824 50.4347 4.23459C50.2219 5.16908 50.1203 6.12484 50.1321 7.0825H49.4664V5.91203C49.4664 5.67346 49.4664 5.46471 49.2924 5.41252C48.0818 5.08239 46.8247 4.94893 45.5705 5.01739C45.0343 5.00181 44.4981 5.0519 43.9744 5.1665V10.1615C44.5871 10.1615 45.2679 10.2212 46.1833 10.2212C46.8614 10.2782 47.5443 10.2074 48.1955 10.0124C48.3019 9.87327 48.3554 9.70182 48.3468 9.52783L48.4149 8.55119H48.9823C48.9823 9.29672 48.9293 10.0422 48.9293 10.7207C48.9293 11.3991 48.9293 12.1223 48.9823 12.8007H48.4149L48.3241 11.6973C48.3241 11.4513 48.2636 11.2798 48.1728 11.2276C47.526 11.0121 46.8398 10.9358 46.1606 11.004C45.2452 11.004 44.5417 11.004 43.9517 11.0562V16.2748C44.4754 16.3894 45.0116 16.4395 45.5478 16.424C46.8313 16.4829 48.1174 16.4028 49.3832 16.1854C49.6707 16.0363 49.9203 15.2087 50.0489 14.0905H50.6843C50.4841 15.0999 50.3828 16.126 50.3818 17.1546C49.5421 17.1546 48.0442 17.2291 46.5993 17.2142C45.1545 17.1993 43.6945 17.1471 42.5143 17.1471C41.7579 17.1471 41.1678 17.1844 40.487 17.2068V16.6402L41.1678 16.588C41.6217 16.5507 41.8486 16.4911 41.9243 16.3047C42.0982 15.861 42.1706 15.3849 42.1361 14.9105V6.53081Z" fill="#767DA5"/>
<path d="M53.332 6.53081C53.3769 6.05728 53.3202 5.57975 53.1656 5.12922C53.0521 4.94284 52.8176 4.8832 52.3637 4.84592L51.5316 4.79373V4.23459C52.3637 4.23459 53.1278 4.28678 53.8011 4.28678C54.1415 4.28678 54.4819 4.28678 54.8223 4.23459L63.9001 15.2684H63.9606V6.53081C64.0044 6.05674 63.9451 5.57891 63.7866 5.12922C63.6732 4.94284 63.4462 4.8832 63.0301 4.84592L62.1905 4.79373V4.23459C62.9469 4.23459 63.7034 4.28678 64.3918 4.28678C65.0802 4.28678 65.8367 4.28678 66.6613 4.23459V4.79373L65.814 4.84592C65.3601 4.84592 65.1332 4.94284 65.0575 5.12922C64.8953 5.57804 64.8359 6.05669 64.8835 6.53081V16.8564C64.8835 17.0875 64.9214 17.326 64.9365 17.5497L63.2344 17.2515L54.2474 6.30715V14.9105C54.2026 15.3841 54.2593 15.8616 54.4138 16.3121C54.5273 16.4985 54.7542 16.5581 55.2157 16.5954L56.0478 16.6476V17.2142C55.2157 17.2142 54.5348 17.1546 53.7784 17.1546C53.0219 17.1546 52.3335 17.1918 51.577 17.2142V16.6476L52.4091 16.5954C52.863 16.5581 53.0975 16.4985 53.211 16.3121C53.3503 15.8584 53.3915 15.3809 53.332 14.9105V6.53081Z" fill="#767DA5"/>
<path d="M70.8522 14.9105C70.8073 15.3841 70.864 15.8616 71.0186 16.3121C71.1321 16.4985 71.3666 16.573 71.8205 16.5954L72.7282 16.6476V17.2142C71.7448 17.1769 70.8522 17.1546 69.9746 17.1546C69.0971 17.1546 68.1591 17.1546 67.1681 17.2142V16.6476L68.0834 16.6178C68.5373 16.6178 68.7643 16.5209 68.8399 16.3345C69.0145 15.8807 69.0843 15.3942 69.0442 14.9105V6.5308C69.093 6.05723 69.0362 5.57887 68.8777 5.12921C68.7643 4.94283 68.5373 4.88319 68.1213 4.84591L67.3648 4.79372V4.23458C68.3709 4.23458 69.4678 4.28677 70.5874 4.28677C71.707 4.28677 72.8114 4.28677 73.9083 4.23458C76.9343 4.17494 77.7437 5.72563 77.7437 7.03776C77.7437 9.07305 75.8828 10.2957 74.0445 10.6461L78.3565 16.1854C78.5002 16.3465 78.6789 16.4736 78.8792 16.5575C79.0795 16.6414 79.2964 16.6798 79.5139 16.67V17.2366C79.0146 17.2366 78.5834 17.1769 78.1447 17.1769C77.7059 17.1769 77.2898 17.2142 76.8511 17.2366C76.609 16.8787 76.3215 16.5581 76.0946 16.2227L72.6072 11.6004C72.297 11.1903 71.9415 10.8549 71.6162 10.4448L71.7297 10.2212C72.2883 10.2596 72.8495 10.2321 73.4015 10.1392C74.0613 10.0635 74.672 9.75838 75.124 9.27875C75.576 8.79912 75.8397 8.17636 75.8676 7.52235C75.8676 5.50197 74.3547 4.94283 72.8417 4.94283C72.1889 4.93116 71.5375 5.00639 70.9051 5.16649L70.8522 14.9105Z" fill="#767DA5"/>
<path d="M85.0513 10.7952L86.9955 7.74604C87.752 6.5681 88.4177 5.39017 89.0456 4.18987H90.5585V4.47317C88.7677 6.51772 87.203 8.74451 85.891 11.1158C85.6974 11.5576 85.6069 12.0366 85.6263 12.5174V14.9105C85.5814 15.3841 85.6381 15.8616 85.7927 16.3121C85.9062 16.4985 86.1331 16.5731 86.5946 16.5954L87.5023 16.6476V17.2142C86.5189 17.1769 85.6263 17.1546 84.7487 17.1546C83.8712 17.1546 82.9256 17.1546 81.9422 17.2142V16.6476L82.85 16.5954C83.3039 16.5954 83.5308 16.4985 83.6518 16.3121C83.8064 15.8616 83.8631 15.3841 83.8183 14.9105V12.2788C83.8294 12.0203 83.772 11.7634 83.6518 11.5333L81.3067 7.45528C80.3233 5.77039 79.355 5.07705 78.8784 5.02486L78.3262 4.96522V4.47317L80.5124 4.0184C80.8907 3.94385 81.1781 4.31661 81.5034 4.71174C81.816 5.09232 82.0944 5.49892 82.3356 5.92695L85.0513 10.7952Z" fill="#767DA5"/>
<path d="M104.236 4.87576L104.092 3.54127C104.024 2.91502 103.926 2.67646 103.048 2.13968C102.248 1.74032 101.357 1.54792 100.461 1.58053C99.999 1.56306 99.5385 1.63909 99.1076 1.80392C98.6767 1.96875 98.2847 2.21888 97.9558 2.53886C97.6268 2.85885 97.3679 3.24189 97.1951 3.66435C97.0222 4.0868 96.9391 4.53969 96.9508 4.99504C96.9508 6.58301 97.904 7.56711 100.869 7.89514C104.213 8.24554 106.324 9.06562 106.324 11.7271C106.324 15.7306 102.693 17.6466 99.1597 17.6466C97.7583 17.6284 96.3756 17.3264 95.0974 16.7595C95.2556 15.5734 95.3113 14.3763 95.2639 13.1809H96.0203L96.2095 14.7465C96.3305 15.7306 98.199 16.6178 100.075 16.6178C102.216 16.6178 104.327 15.328 104.327 13.0169C104.327 10.7058 102.571 10.1615 100.151 9.87824C96.4213 9.46075 94.9537 8.31264 94.9537 5.88222C94.9537 2.25896 98.1763 0.596436 101.006 0.596436C102.49 0.638797 103.951 0.973393 105.302 1.58053C105.077 2.66473 104.965 3.76899 104.97 4.87576H104.236Z" fill="#767DA5"/>
<path d="M118.768 16.5432C117.487 17.1913 116.07 17.5359 114.63 17.5497C110.091 17.5497 107.004 14.9925 107.004 10.743C106.973 9.78546 107.165 8.83357 107.567 7.96098C107.968 7.08838 108.568 6.31845 109.319 5.71072C110.88 4.50188 112.819 3.86658 114.804 3.91401C116.297 3.92992 117.779 4.18162 119.191 4.65953C118.972 5.59159 118.85 6.54341 118.828 7.49999H118.238V6.17295C118.238 5.65108 117.482 5.33051 116.604 5.01738C115.919 4.80245 115.205 4.69429 114.486 4.69681C110.915 4.69681 109.032 7.26142 109.032 10.4448C109.032 14.1725 111.521 16.5432 115.28 16.5432C116.647 16.5375 117.983 16.1469 119.131 15.4175L119.305 15.6039L118.768 16.5432Z" fill="#767DA5"/>
<path d="M133.292 14.9105C133.247 15.3841 133.304 15.8616 133.459 16.3121C133.572 16.4985 133.799 16.5731 134.261 16.5954L135.168 16.6476V17.2142C134.185 17.1769 133.292 17.1546 132.415 17.1546C131.537 17.1546 130.592 17.1546 129.608 17.2142V16.6476L130.516 16.5954C130.97 16.5954 131.204 16.4985 131.318 16.3121C131.472 15.8616 131.529 15.3841 131.484 14.9105V10.7356C131.257 10.7356 130.728 10.7356 129.911 10.7356H125.47C124.631 10.7356 124.124 10.7356 123.889 10.7356V14.9105C123.841 15.3847 123.901 15.8633 124.063 16.3121C124.177 16.4985 124.404 16.5731 124.857 16.5954L125.773 16.6476V17.2142C124.782 17.1769 123.889 17.1546 123.019 17.1546C122.149 17.1546 121.196 17.1546 120.213 17.2142V16.6476L121.12 16.5954C121.574 16.5954 121.801 16.4985 121.922 16.3121C122.077 15.8616 122.134 15.3841 122.089 14.9105V6.53081C122.134 6.05728 122.077 5.57975 121.922 5.12922C121.801 4.94284 121.574 4.86829 121.12 4.84592L120.213 4.79373V4.23459C121.196 4.23459 122.089 4.28678 123.019 4.28678C123.95 4.28678 124.782 4.28678 125.773 4.23459V4.79373L124.857 4.84592C124.404 4.84592 124.177 4.94284 124.063 5.12922C123.901 5.57804 123.841 6.05669 123.889 6.53081V9.86332C124.124 9.86332 124.646 9.86332 125.47 9.86332H129.911C130.743 9.86332 131.257 9.86332 131.484 9.86332V6.53081C131.529 6.05728 131.472 5.57975 131.318 5.12922C131.204 4.94284 130.97 4.86829 130.516 4.84592L129.608 4.79373V4.23459C130.592 4.23459 131.484 4.28678 132.415 4.28678C133.345 4.28678 134.185 4.28678 135.168 4.23459V4.79373L134.261 4.84592C133.799 4.84592 133.572 4.94284 133.459 5.12922C133.304 5.57975 133.247 6.05728 133.292 6.53081V14.9105Z" fill="#767DA5"/>
<path d="M137.68 6.53081C137.725 6.05728 137.668 5.57976 137.513 5.12922C137.4 4.94284 137.165 4.86829 136.712 4.84592L135.796 4.79374V4.23459C136.333 4.23459 136.863 4.23459 137.4 4.23459H139.011C140.66 4.23459 142.408 4.1824 143.49 4.1824C144.344 4.1824 145.199 4.1824 145.941 4.23459C145.728 5.16908 145.626 6.12484 145.638 7.0825H144.972V5.91203C144.972 5.67346 144.972 5.46471 144.798 5.41252C143.588 5.08239 142.331 4.94893 141.076 5.01739C140.543 5.00142 140.009 5.05152 139.488 5.1665V10.1615C140.093 10.1615 140.774 10.2212 141.689 10.2212C142.367 10.2782 143.05 10.2074 143.701 10.0124C143.808 9.87327 143.861 9.70182 143.853 9.52783L143.944 8.55119H144.488C144.488 9.29672 144.428 10.0422 144.428 10.7207C144.428 11.3991 144.465 12.1223 144.488 12.8007H143.913L143.822 11.6973C143.822 11.4513 143.762 11.2798 143.671 11.2276C143.024 11.0121 142.338 10.9358 141.659 11.004C140.744 11.004 140.04 11.004 139.458 11.0562V16.2748C139.979 16.3898 140.512 16.4399 141.046 16.424C142.33 16.4829 143.616 16.4028 144.882 16.1854C145.169 16.0363 145.419 15.2087 145.547 14.0905H146.213C146.013 15.0999 145.911 16.126 145.91 17.1546C145.071 17.1546 143.573 17.2291 142.166 17.2142C140.759 17.1993 139.193 17.1471 138.028 17.1471C137.271 17.1471 136.681 17.1844 136 17.2068V16.6402L136.681 16.588C137.135 16.5507 137.37 16.4911 137.483 16.3047C137.647 15.8586 137.714 15.3837 137.68 14.9105V6.53081Z" fill="#767DA5"/>
<path d="M150.82 14.9105C150.772 15.3847 150.832 15.8633 150.994 16.3121C151.107 16.4985 151.334 16.5731 151.788 16.5954L152.704 16.6476V17.2142C151.713 17.1769 150.82 17.1546 149.95 17.1546C149.08 17.1546 148.127 17.1546 147.136 17.2142V16.6476L148.051 16.5954C148.505 16.5954 148.732 16.4985 148.808 16.3121C148.985 15.8667 149.06 15.388 149.027 14.9105V6.53081C149.075 6.05669 149.015 5.57804 148.853 5.12922C148.74 4.94284 148.513 4.86829 148.097 4.84592L147.181 4.79373V4.23459C148.172 4.23459 149.065 4.28678 149.995 4.28678C150.926 4.28678 151.758 4.28678 152.749 4.23459V4.79373L151.834 4.84592C151.38 4.84592 151.153 4.94284 151.039 5.12922C150.877 5.57804 150.818 6.05669 150.865 6.53081L150.82 14.9105Z" fill="#767DA5"/>
<path d="M155.011 6.53081C155.056 6.05728 154.999 5.57975 154.844 5.12922C154.731 4.94284 154.504 4.8832 154.05 4.84592L153.21 4.79373V4.23459C154.05 4.23459 154.807 4.28678 155.48 4.28678C155.82 4.28678 156.161 4.28678 156.501 4.23459L165.579 15.2684H165.67V6.53081C165.717 6.05669 165.658 5.57804 165.496 5.12922C165.382 4.94284 165.155 4.8832 164.701 4.84592L163.869 4.79373V4.23459C164.626 4.23459 165.382 4.28678 166.063 4.28678C166.744 4.28678 167.508 4.28678 168.333 4.23459V4.79373L167.493 4.84592C167.039 4.84592 166.812 4.94284 166.698 5.12922C166.536 5.57804 166.477 6.05669 166.525 6.53081V16.8564C166.525 17.0875 166.525 17.326 166.585 17.5497L164.875 17.2515L155.926 6.30715H155.888V14.9105C155.844 15.3841 155.9 15.8616 156.055 16.3121C156.168 16.4985 156.403 16.5581 156.857 16.5954L157.689 16.6476V17.2142C156.857 17.2142 156.176 17.1546 155.419 17.1546C154.663 17.1546 153.982 17.1918 153.218 17.2142V16.6476L154.058 16.5954C154.512 16.5581 154.739 16.4985 154.852 16.3121C155.007 15.8616 155.063 15.3841 155.018 14.9105L155.011 6.53081Z" fill="#767DA5"/>
<path d="M172.97 5.49454C173.019 5.78421 172.995 6.08124 172.902 6.36006C172.808 6.63887 172.647 6.89111 172.433 7.09505C172.219 7.29899 171.957 7.44851 171.671 7.53075C171.385 7.61298 171.083 7.62546 170.791 7.5671C170.473 7.49626 170.18 7.34163 169.945 7.11973C169.709 6.89783 169.539 6.61698 169.452 6.30716C169.376 6.06984 169.35 5.81949 169.376 5.57187C169.403 5.32426 169.481 5.08474 169.606 4.86839C169.731 4.65203 169.901 4.46353 170.103 4.31475C170.306 4.16596 170.537 4.06011 170.783 4.00386C171.03 3.94761 171.285 3.94217 171.533 3.98789C171.782 4.03361 172.018 4.1295 172.226 4.26952C172.435 4.40954 172.613 4.59067 172.747 4.80149C172.882 5.01232 172.97 5.24828 173.008 5.49454H172.97ZM169.566 5.80766C169.566 6.12057 169.66 6.42644 169.836 6.68652C170.013 6.94659 170.264 7.14916 170.557 7.26857C170.851 7.38797 171.174 7.41883 171.485 7.35724C171.796 7.29565 172.082 7.14438 172.306 6.92259C172.53 6.70081 172.682 6.41849 172.743 6.11141C172.804 5.80433 172.771 5.48631 172.649 5.19764C172.526 4.90897 172.32 4.66265 172.055 4.48988C171.79 4.31711 171.479 4.22567 171.162 4.22714C170.951 4.22714 170.743 4.26807 170.549 4.34759C170.355 4.42711 170.179 4.54365 170.03 4.69051C169.882 4.83738 169.765 5.01167 169.685 5.20339C169.605 5.3951 169.565 5.60046 169.566 5.80766ZM171.079 4.76392C171.427 4.76392 171.835 4.80865 171.835 5.25597C171.835 5.56909 171.563 5.73311 171.275 5.77038C171.502 5.77038 171.638 6.09842 171.714 6.2848C171.756 6.38942 171.809 6.48938 171.873 6.58301C171.9 6.60538 171.931 6.62219 171.965 6.63243C171.999 6.64267 172.034 6.64615 172.07 6.64265V6.70975H171.933C171.826 6.72348 171.717 6.70256 171.623 6.6501C171.528 6.53831 171.456 6.40911 171.411 6.26989C171.362 6.12733 171.293 5.99194 171.207 5.8673C171.124 5.78529 170.988 5.8002 170.882 5.8002H170.791V6.44136C170.791 6.5681 170.791 6.62028 170.935 6.62774H171.041V6.70975H170.284V6.6501H170.36C170.488 6.6501 170.526 6.6501 170.526 6.501V5.00995C170.526 4.88321 170.451 4.8683 170.36 4.8683H170.277V4.76392H171.079ZM170.814 5.72565H170.965C171.283 5.72565 171.593 5.6511 171.593 5.27834C171.593 4.90557 171.404 4.85339 171.116 4.85339H170.965C170.814 4.85339 170.821 4.9503 170.821 5.06959L170.814 5.72565Z" fill="#767DA5"/>
<path fill-rule="evenodd" clip-rule="evenodd" d="M18.7381 0H0V18.0268H18.7381V0ZM18.0951 1.95327V0.745514H0.75647V13.6879C3.18478 13.6879 5.8249 12.1372 8.46503 8.05913C11.1052 3.9811 14.9783 1.95327 18.0951 1.95327ZM0.75647 17.2962V16.0586C3.88074 16.0586 7.75393 14.0159 10.3865 9.94532C13.0191 5.87474 15.6667 4.31659 18.0951 4.31659V17.2962H0.75647Z" fill="#767DA5"/>
</g>
<defs>
<clipPath id="clip0">
<rect width="173" height="30" fill="white"/>
</clipPath>
</defs>
</svg>
