<svg width="176" height="29" viewBox="0 0 176 29" fill="none" xmlns="http://www.w3.org/2000/svg">
<path d="M17.6 12.911L17.5285 13.0957C18.7201 13.6201 21.3953 15.6994 21.3953 19.8879C21.3953 23.8321 18.0707 27.8061 12.8455 27.8061C6.3453 27.8061 4.10508 24.0049 4.10508 20.5135C4.10508 16.039 7.23304 13.06 7.23304 8.98471C7.216 7.54338 6.71056 6.15046 5.79932 5.0336C4.88809 3.91675 3.62496 3.14201 2.21639 2.83603L2.10914 3.02073C2.61996 3.51638 3.02527 4.11021 3.30069 4.76653C3.57612 5.42284 3.71597 6.12807 3.71185 6.83982C3.71185 11.2428 0 14.3708 0 19.4232C0 24.0764 3.25308 28.819 12.6727 28.819C21.0676 28.819 25.4944 24.7079 25.4944 20.3347C25.4884 16.5812 22.8014 13.4056 17.6 12.911Z" fill="#767DA5"/>
<path d="M54.4802 28.0683L43.3208 13.6796V26.6502L45.5967 27.1924V27.7882H40.4073V27.1924L42.2662 26.6502V12.5178C41.8138 12.0961 41.269 11.786 40.6754 11.6122C40.449 11.5645 40.1452 11.5109 40.1452 11.5109V10.9151H44.5481L54.081 23.3078V12.065L51.805 11.5169V10.9211H56.9944V11.5169L55.1355 12.065V24.9284C55.1355 26.12 55.219 27.8538 55.2368 28.0742L54.4802 28.0683ZM77.8118 18.9048C77.8118 24.8628 73.6412 28.3185 69.0833 28.3185C64.5254 28.3185 60.3369 24.8152 60.3369 19.3695C60.3369 13.9239 64.5075 10.3848 69.0416 10.3848C70.1829 10.3472 71.32 10.5401 72.3851 10.9521C73.4501 11.3641 74.421 11.9868 75.2398 12.7828C76.0586 13.5787 76.7084 14.5317 77.1503 15.5846C77.5922 16.6376 77.8172 17.7689 77.8118 18.9108V18.9048ZM74.9102 19.7985C74.9102 15.4194 72.2887 11.1713 68.7258 11.1713C64.9365 11.1713 63.2265 14.8355 63.2265 18.7559C63.2265 22.6762 65.3893 27.538 69.4586 27.538C73.2837 27.538 74.9102 23.6653 74.9102 19.7985ZM81.4164 12.0531L79.629 11.5049V10.9091H86.4747V11.5049L84.3299 12.0531L89.0546 24.9343L93.7793 12.0531L91.6344 11.5049V10.9091H96.6987V11.5049L94.9113 12.0531L88.995 28.11H87.4817L81.4164 12.0531ZM121.871 19.1729H120.787V11.7969C124.362 11.7969 126.489 12.6191 126.489 15.5385C126.471 17.7072 124.612 19.1729 121.871 19.1729ZM152.502 27.1924L154.885 26.6502V12.059L152.502 11.5109V10.9151H159.931V11.5109L157.548 12.059V26.6502L159.931 27.1924V27.7882H152.502V27.1924ZM164.483 23.1529H164.954L166.533 26.7873C167.471 27.2587 168.503 27.5152 169.553 27.538C171.603 27.538 173.474 26.3464 173.474 24.2134C173.474 22.5928 172.425 21.6276 170.727 20.7399L169.047 19.87C167.039 18.8274 165.031 17.3498 165.031 14.9725C165.031 12.3867 166.819 10.3908 170.644 10.3908C171.988 10.4044 173.322 10.6234 174.6 11.0402L174.999 14.9487H174.493L173.033 11.8148C172.277 11.3927 171.426 11.1712 170.56 11.1713C168.624 11.1713 167.307 12.3629 167.307 14.0133C167.307 15.5087 168.302 16.4501 170.006 17.3319L171.996 18.3686C174.713 19.7747 176 21.0795 176 23.4925C176 26.4715 173.206 28.3244 169.732 28.3244C168.097 28.3493 166.469 28.1058 164.912 27.6035L164.483 23.1529ZM95.6084 27.1924L97.5209 26.6502L103.425 10.9032L105.397 10.3968L111.492 26.6443L113.405 27.1924V27.7882H106.172V27.1924L108.621 26.6443L106.893 21.9732H100.399L98.6827 26.6443L101.131 27.1865V27.7823H95.6084V27.1924ZM100.851 20.728H106.47L103.682 13.197L100.851 20.728ZM125.279 19.5364C125.875 19.3874 129.218 18.5354 129.218 15.3657C129.218 12.8217 127.269 10.8496 122.467 10.8496C119.488 10.8496 116.509 10.9151 116.134 10.927V11.5228L118.094 12.071V26.6443L116.134 27.1924V27.7882H123.069V27.1924L120.793 26.6443V20.0547H122.753L127.764 27.8001H132.203V27.2043L129.956 26.6085L125.279 19.5364ZM139.924 11.7909V26.6502L137.541 27.1924V27.7882H144.971V27.1924L142.587 26.6502V11.7969H146.597L147.92 14.6448H148.432L148.051 10.933H134.461L134.079 14.6448H134.592L135.902 11.8267L139.924 11.7909ZM12.7859 22.5154L15.1691 0H10.224L12.6072 22.5154H12.7859Z" fill="#767DA5"/>
</svg>
